<mxfile host="drawio-plugin" modified="2022-02-18T02:06:12.250Z" agent="5.0 (Macintosh; Intel Mac OS X 10_15_7) AppleWebKit/537.36 (KHTML, like Gecko) Chrome/89.0.4389.114 Safari/537.36" version="15.5.4" etag="V58Kopcs_zG4Z6kufcYf" type="embed"><diagram id="znVxSsyJJjj05bmJz4H_" name="Page-1"><mxGraphModel dx="1981" dy="1088" grid="1" gridSize="10" guides="1" tooltips="1" connect="1" arrows="1" fold="1" page="1" pageScale="1" pageWidth="850" pageHeight="1100" math="0" shadow="0"><root><mxCell id="0"/><mxCell id="1" parent="0"/><mxCell id="2" value="" style="shape=image;verticalLabelPosition=bottom;labelBackgroundColor=#ffffff;verticalAlign=top;aspect=fixed;imageAspect=0;image=data:image/png,iVBORw0KGgoAAAANSUhEUgAABK0AAAJUCAYAAADXdNU5AAABP2lDQ1BJQ0MgUHJvZmlsZQAAKJFjYGASSCwoyGFhYGDIzSspCnJ3UoiIjFJgf8bAyCDKwAMk1ROTiwscAwJ8gEoYYDQq+HYNqA4ILuuCzDpV4KzW1TrPtOSA5QmjK0uyMNWjAK6U1OJkIP0HiJOSC4pKGBgYE4Bs5fKSAhC7BcgWKQI6CsieAWKnQ9hrQOwkCPsAWE1IkDOQfQXIFkjOSEwBsp8A2TpJSOLpSGyovSDA4RNsbORobkDAqaSDktSKEhDtnF9QWZSZnlGi4AgMoVQFz7xkPR0FIwMjIwYGUHhDVH++AQ5HRjEOhFhxOgODpRlQkBMhFmPNwLAtnoGB7w1CTN0E6CVgWB82L0gsSoQ7gPEbS3GasRGEzb2dgYF12v//n8MZGNg1GRj+Xv////f2////LmNgYL7FwHDgGwBKWFzjD8Ma5wAAAFZlWElmTU0AKgAAAAgAAYdpAAQAAAABAAAAGgAAAAAAA5KGAAcAAAASAAAARKACAAQAAAABAAAEraADAAQAAAABAAACVAAAAABBU0NJSQAAAFNjcmVlbnNob3Sc+n3zAAAB12lUWHRYTUw6Y29tLmFkb2JlLnhtcAAAAAAAPHg6eG1wbWV0YSB4bWxuczp4PSJhZG9iZTpuczptZXRhLyIgeDp4bXB0az0iWE1QIENvcmUgNS40LjAiPgogICA8cmRmOlJERiB4bWxuczpyZGY9Imh0dHA6Ly93d3cudzMub3JnLzE5OTkvMDIvMjItcmRmLXN5bnRheC1ucyMiPgogICAgICA8cmRmOkRlc2NyaXB0aW9uIHJkZjphYm91dD0iIgogICAgICAgICAgICB4bWxuczpleGlmPSJodHRwOi8vbnMuYWRvYmUuY29tL2V4aWYvMS4wLyI+CiAgICAgICAgIDxleGlmOlBpeGVsWERpbWVuc2lvbj4xMTk3PC9leGlmOlBpeGVsWERpbWVuc2lvbj4KICAgICAgICAgPGV4aWY6VXNlckNvbW1lbnQ+U2NyZWVuc2hvdDwvZXhpZjpVc2VyQ29tbWVudD4KICAgICAgICAgPGV4aWY6UGl4ZWxZRGltZW5zaW9uPjU5NjwvZXhpZjpQaXhlbFlEaW1lbnNpb24+CiAgICAgIDwvcmRmOkRlc2NyaXB0aW9uPgogICA8L3JkZjpSREY+CjwveDp4bXBtZXRhPgptsx8lAABAAElEQVR4AeydB5gtRZmw+w5zrxIUVBBx5YIRdF1XXRQlKBeUpKKYV0HRH2UxgAFdV1AxK8EEKCIqmEgSVJIil0tQQV1XZQVRYYliQkURdJC5/7w9fmfq9OkzUzNzZs6Z6fd7nnO6u/rrquq3qqurv0pLHvrQh64uamTZsmWl68jISM3Zdqfly5cX119/fbtj5SjXv17rEY0jjjiieO1rX1uJUfthr8PN9Y9YDDo/49eeVzgyfTuZTIeL/OQXBCxfgsTE1udjgkW6l8slVw+/zX8p4fF9+XUywSWXS64efpr/oNAu8mvnEUe5XHL18Dc3/x1++OHz/h01nfihO9X3ai6XXD3jB4FOkV8nE1xyueTq4Wfu84vuYng+hriRxS4XX3zxYr9F708CEpCABCQgAQlIQAISkEBPCZx11lk99U/PJCABCUyXQCOMVpdeeul0uagvAQlIQAISkIAEJCABCUig0QRWrlzZ6Pv35iUggf4TaITRqv+YjYEEJCABCUhAAhKQgAQkIAEJSEACEpDAdAg0wmj1hCc8YTpM1JWABCQgAQlIQAISkIAEJNB4AjvssEPjGQhAAhLoL4FGGK223Xbb/lI2dAlIQAISkIAEJCABCUhAAguMwK677rrAYmx0JSCBxUagEUarxZZo3o8EJCABCUhAAhKQgAQkIAEJSEACEljsBIZjacXqjS5durTq1PV4aGiotZRjN6Vc/3qtR3wuueSSgY7foPMzfp25OjefcqX85JebX3qtZ/7rzHu45HKWn/ymk19y81WunvnP/Gf+q88D4Wr9KkhMbOeifDn33HPn/TuKOzJ9J9I19uYifcPvyba54ebqEZbp20lcfp1McIFLI3paXXbZZfUEdJWABCQgAQlIQAISkIAEJCCBWgKrVq2qdddRAhKQwHwRGB4ZGZk0rKnOc/Ho6GiRo4duP/SMH+TrJSc95FfPDlf51bPJ4SK/ena5XHL1fH5nx1l+8gsCvSzXfH6Daue2l5x9fjv5hksOZ/kFrc6t/DqZ4JLDJVfP/FfPWH6z4yK/hcmvET2tXD2we+b0jAQkIAEJSEACEpCABCQggToCrh5YR0U3CUhgPgk0wmjl6oHzmaUMSwISkIAEJCABCUhAAhJYDARcPXAxpKL3IIGFTaARRquFnUTGXgISkIAEJCABCUhAAhKQgAQkIAEJNI9AI4xWF198cfNS1juWgAQkIAEJSEACEpCABCQwCwJnnXXWLK72UglIQAKzJ9AIo9Wll146e1L6IAEJSEACEpCABCQgAQlIoEEEVq5c2aC79VYlIIFBJNAIo9UggjdOEpCABCQgAQlIQAISkIAEJCABCUhAAt0JNMJo5eqB3TOAZyQgAQlIQAISkIAEJCABCdQRcPXAOiq6SUAC80lgeNmyZbXhLV26tNa9znFoaKjo5k/o5/rXaz3CZ/XAM844I6JSu+11uLn+EZlB52f8OrOM6dvJBJdcLrl6+Gn+g0K7yK+dRxzlcsnVw1/zX9Cd2MpvgkW6l8slVw+/zX8p4fF9+XUywSWXS64efpr/oNAuTeTH6oHnn39+O4jKUS6XXD28N/9VII8dyq+TCS65XHL18NP8B4V26Se/RvS0asftkQQkIAEJSEACEpCABCQgAQlIQAISkMCgExgeGRmZNI5Tnefi0dHRIkcP3X7osXpgP8LNvd9B52f8SMl6yclX8qtnh6v86tnkcJFfPbtcLrl6Pr+z4yw/+QWBXpZrPr9BtXPbS84+v518wyWH82Lhx+qBOfcLm17qLRZ+veaS65/8IFUvOflUfvXscO0Hv0b0tHL1wO6ZzjMSkIAEJCABCUhAAhKQgATqCLh6YB0V3SQggfkk0Aij1XwCNSwJSEACEpCABCQgAQlIQAISkIAEJCCB2RNohNHK1QNnn1H0QQISkIAEJCABCUhAAhJoFgFXD2xWenu3EhhEAo0wWrF6oCIBCUhAAhKQgAQkIAEJSEAC+QRYPVCRgAQk0E8CjTBa9ROwYUtAAhKQgAQkIAEJSEACEpCABCQgAQlMn0AjjFasHqhIQAISkIAEJCABCUhAAhKQQD4BVg9UJCABCfSTQCOMVq4e2M8sZtgSkIAEJCABCUhAAhKQwEIk4OqBCzHVjLMEFheBRhitFleSeTcSkIAEJCABCUhAAhKQgAQkIAEJSGDxE1gytiLE6rrbHBoat2eNjo7WnW5zW3fddYtbb721za16kOtfr/WIx4oVK4oLLrigGqW2416Hm+sfkRh0fsavLauUB6ZvJxNccrnk6uGn+Q8K7SK/dh5xlMslVw9/zX9Bd2IrvwkW6V4ul1w9/Db/pYTH9+XXyQSXXC65evhp/oNCuzSRH6uwf/vb324HUTnK5ZKrh/fmvwrksUP5dTLBJZdLrh5+mv+g0C795Dd8/fXXt8fmH0fLli0r90ZGRmrPp47Lly8vuvkTern+9VqP8LfYYovi+OOPj6jUbnsdbq5/RGbQ+Rm/zixj+nYywSWXS64efpr/oNAu8mvnEUe5XHL18Nf8F3QntvKbYJHu5XLJ1cNv819KeHxffp1McMnlkquHn+Y/KLRLE/ltvfXWxYknntgOonKUyyVXD+/NfxXIY4fy62SCSy6XXD38NP9BoV36yW+4PSoeSUACEpCABCTQNALPe97ziv3337+87dWraztgt5D86U9/Km6++ebivPPOK0466aSWez92ttxyy+Kwww4rg6bx7MUvfnE/omGYEpCABCQgAQlIQAJzRKARRitXD5yj3KO3EpCABCSwKAjc6173KpYuXZp1L+uvv37B71/+5V+KPffcszR2XX311VnX9lrpnve8Z6uF9d73unevvZ+Vf4997GOLsSkYSj8uu+yy4qKLLpqVf14sAQlIoB8EXD2wH9QNUwISSAk0wmjl6oFpkrsvAQlIQAIS6A2BDTbYoDjmmGOKnXbaqfj73//eG08XiS+77bZbscsuu5R3s+mmm2q0WiTp6m1IoGkEXD2waSnu/Upg8Ag0wmg1eNiNkQQkIAEJSGAwCdx1113FVltt1RG5u9/97sU///M/l/NEMgzvbne7W6mzzjrrFAceeGDxzne+s+OauXb4+c9/XkTD1M9+9rO5Dk7/JSABCUhAAhKQgATmmUAjjFasejHVRPHzzN3gJCABCUhAAguKwF//+tfiv//7v4vLL7+8+OpXv1rOZxWGqyc+8Yl9uZdrr722NRdXXyJgoBKQgAQWOQGGOZ9zzjmL/C69PQlIYJAJNMJote222xYnn3zyIKeDcZOABCQgAQksGAK33HJLuQT6ihUryjgzt1Qq9MpiaeQwanGOlXhYhQrdz3zmM8Wdd96ZXlLqP+QhDymYXH3jjTcufvWrXxXf+973iiuvvLJnQw833HDDshcZ8aOHFr3KcmV4eLicx4teaCyFTfx++tOflv6Mjo62vEGPFXbSe19jjTWKtdZaq9SpG0ZJvB796EcXm222WYHuj370o+KHP/xhy093JCABCfSLwK677qrRql/wDVcCEigJNMJoZVpLQAISkIAEJNBbAr/4xS+KMFphaFl77bWLv/zlL2UgzIGC2+rR1cVWW29VHHroocU222zTisApp5xS/P73v28dP//5zy9e9apXlde0HMd29tlnn9Kw9PGPf7y28elJT3pS6TfXYER65jOfmV7e2t9vv/2KF7zgBQUGpVQwIF111VXF6173uoJVEbvJ3nvvXbxkz5cUS4aWdKhwz0cddVTxta99rTxHXP/1X/+1Te8xj3lMccEFF5RufAD++c9/Lvfve9/7Fu9617sKzqfywhe+sDwkTi9/+cuLG264IT3tvgQkIAEJSEACEmgMgWFaA+skdxUhrqU1tZs/4Xeuf73WI/xLLrlkoOM36PyMX+TiiW1uPuUK+U1wiz35BYn2bS6XXD18N/+1M+ZIfp1MMDClMtk7PfhttNFGrUvosUTPqbrr6FX18Ic/vKXLDn6gixHpox/9aPGoRz2q7Xx6QNxe+9rXlgYpDDipYCgLoWcTfkb8cL/HPe5RYERiIvQ6IXzm6frKV75avOIVe3dMJYBfRx99dPGwhz2s7vLSjTi8+c1vLvfPPffcDsNY9ULiyVDLNddcc2yI5cljPbDWrKq0jumVdtJJJxUHHXRQWZdpnUh20vtNnDt2e61HAJYvHZjb8l/n2XYX+bXz4Cg3n6IrPyi0y1zwo1yrK9vTkHPDzdXDb9M3JTy+L79OJrjkcsnVw0/zHxTapZ/82psc2+O1aI5YalqRgAQkIAEJSKA3BDDUbL/9Di3PoudQy+EfO/RMSg1WGLZuv/32YmRkpNR4zWte02aw+u1vf1tceOGFBROs01uJubLuda97lboML6THFL22cuUjH/lIm8Hql7/8ZTmscfXq1WW4D3vow8reUxiOPve5zxXPec5zCoY+htADKzVYcZ/f/e53i5/85CfF5ptvXjz1KU9t9b560wFvKr71rW+NGcC+Utx0003FYx/72GL99dcvvaLHFMMRCZf7R97znve0DFYY/RgOSCPbHXfcUQ5D3HnnncueZxjt3va2t4+tRLhzkQ5DLD3xTwISkMAcE1i1atUch6D3EpCABCYnMBwVx25qU53nOipROXro9kPP+EG+XnLSQ3717HCVXz2bHC7yq2eXyyVXz+d3dpybwq86t1O3Zxhj1S677FK88pWvbBlcIMzE7N2u4fzvb/l9se+r9i2YOD2EXkTPetaz4rCcu4qeVDBHzjjjjLKl84QTTmgZnp7x9GcUn//851s9otL5oRiKmMaBIXepwenYY48tPvWpT7XCY4chg69/3etLwxPGoT333LM45JBDSp311luveNrTntbS/81vflP29or4cYK4ffazny11MNAxXJE5NDFcHXzwwSUrTrKy4dve9rZSL3os0MMr5MQTTyw+9rGPxWFx+umnl3GFAYJRjfmumOuqm6T33k0H917qNeX5SHnKL6Uxsd9LLvia45/5b4J/dU9+VSLjxzlc0MzRM//VM5bf7LjIr57fUL3z4nJl9UBFAhKQgAQkIIGpCWC8+fa3v93xu/Q7lxbMVfWmN72pnIg8fLrtttuKT3ziE3HYsaXyv9szd2szWKGEP4SFYHxi3qjUIIQ7x3vssUfrAwLD0F577cWpKeXtb397S4eeUVWDFSe/853vFKedflpLj95NIWn8MOq97GUv64jfFVdc0TbfFAu/5AjDDtKhjd///vc7Lrv55ptLQ97tt98x1jvrjoLJ2hUJSEAC802A1QMVCUhAAv0k0AijVW4lsp8JYdgSkIAEJCCBQSGAMan6q5uEnOF8GJGqxqb0Po4//viOlQI5/8hHPrKlxrC4tNdU68TYDkMKGVoX8qAHPSh2u24xCsXQPJQ+9KEPddWN3kwoYEhi5ULkEY94RLnl78Ybbyx+97vftY7THXpmXX755eWQwauvvjo91XW/2kL/wQ9+sByaWJ0oHsPbihXblb9vfOMbXf3zhAQkIIG5IsDiEYoEJCCBfhJoxJxW/QRs2BKQgAQkIIGFRqA6XDDiz5xMrJZHLyB6KR1zzDGTGqy4jl5bdbLeeuNzVXHuvPPOq1Npuf3P//xPOfQOh3QC+JZCZeeBD3xgm8vuu+9eu7IgE7VX5+N68IMfXPaeSuM3mTGKOa74xbC/toAnOeCettxyy1KDa5nM/Y1vfGNx3XXXlWwZcjmZMXASrz0lAQlIQAISkIAEFg2BRhitLr744kWTYN6IBCQgAQlIYC4JYLDaaqutugYRxpmcOT/w5Ne//nWHX/SESlfN+7//+78OndSBHl0h66yzTux23abzRaH09Kc/vatu9QRzbSFp/H784x9X1WZ9/IY3vKGc/B0jWQi92+hJxu/FL35xucrg17/+9eKII47oMK7FNW4lIAEJzCWBs846ay69128JSEACUxJoxPDAdFjBlERUkIAEJCABCUhgTgmsueaabf6zut5ksu6667ZOj4zc2drvthMrDnY7P5k7vcnogZUKqxn2WhgO+aIXvag48MADi5/+9KdFXe+2u9/97mUPsdNOO23MiLZWr6OgfxKQgASmJMBchooEJCCBfhJoRE+rfgI2bAlIQAISkIAE2gkwxBAjTUzEvskmmxRpb6p27aI1zxTuf/zjH6qnO47T4XysKviEJ9YvyLJ8+fLWSoRVT7gu5vHaYIMNqqd7dvzNb36z4Efvs0c96lHFjjvuWGy99dbF/e53v1YY9P5ifqu3vOUtLTd3JCABCUhAAhKQQBMINKKnlasHNiEre48SkIAEJLCQCGC4Cnn0ox8du7Xb9D3+y1/+slYndWS1wBAMT6kBKNzTLasG7rbbbm3DCP98259bKumk8S3Hf+zss88+5bxdq1atKj7+8Y9XT9ce3//+9y/DI8wYHsj8VT/84Q8LJnZ/5jOfWeyyyy5tk79XhzzWeqyjBCQggR4TcPXAHgPVOwlIYNoEhmNuiuqVS5curTp1PaZ1sJs/cVGuf73WI3xWD0xXB4o4pdteh5vrH3EYdH7GL80p4/umbycTXHK55Orhp/kPCu0iv3YecZTLJVcPf5uS/6LHU7Cc7J0+HX74h36df/Ssivmjnve855XzO0X46ZaheptuumnL6Xvf+17Lv3S1PYxThEN4t912W1tPrle/+tXFu9/97pYfsUP6Puc5zyknQceN3l8MhWHoHsaxiB8GpI9+9KNxWWtL+HvuuWerxxhzc8W9pkzTfET8MFYxZxVCOC94wQtafsYO9/DFL36x2H///Uundda5R8vv0GGbmx691iPs9L44rpNeh5vrH3Exfp0pIr9OJrjkcsnVw8/Fkv9YPfD888/nlrpKLpdcPQJaLPy6QktO5HLJ1ZNfAjfZlV8CI9nN5ZKrh9e9fn4b0dMqSRN3JSABCUhAAhIYAAKf+tSnWrFYb731CnosVYVKzyc+8YmWM5O/n3jiia3jyXYuvPDC1ml6Cjz0oQ9tHcfO+uuvX7zmNa+Nw3JuKQxWCJOfh6y99tpjeq+Jw9b2pS99advH7plnntk6x9xYIfe5z31it9yy2mAIva66DT9Me6DdfPPUPczCT7cSkIAEJCABCUhgsRAYnmr1n6nOA4Iu7Tl66PZDj9UD+xFu7v0OOj/jR0rWS06+kl89O1zlV88mh4v86tnlcsnVa8rzW50EPCcP5ujA+c4776x91i+44ILimmuuKVfKQ2+PPfYoHvGIRxRnn312ce211xYYbJ71rN2LBzzgnzhdCj2P/vrXv8Zh2SMqDpiDKo3TO9/5zmKbbbYpeyfR6+nTx366OO3008qhfKTrlltuWbzg+S9ozVvF9e9617tafnz/+98vjVibb755GQS9oR7+8IeXPbGYOJ65p6rDFq+88srW9Qz122mnncprmbMLv+lVdeyxx5bDAG+//Y7WCoUnn3xygRHvW9/6VvGHP/yhWLFiRbH99tsXj33sY+P2im984xstv1uOyU5674lzx24v9ZryfKQQ5ZfSmNjvJRd8zfHP/DfBv7rXS36sHpjjX2665eqZvtVUnTjOSQ/5TfCq7smvSmT8OIcLmjl6vc5/jZiI3dUD6zOmrhKQgAQkIIF+EvjP//zP4vjjP9cy3mCkSQ01adzonXTcccelTpPuY9zCcIWxCKMVwwcZCsivTg459JDSWJaee/Ob31wOW6QnGMJE6fyqQgXula98ZZvzeeedV3B/IRiikBNOOKG49dZbx+L1zuIDH/hA6cYww3333bf8lQ6Vv+uvv35a91653EMJSEACMybg6oEzRueFEpBAjwg4PLBHIPVGAhKQgAQksFAJxJA44p8Oa+vF/VR7caV+YozZffdnFVdccUXq3LZPD6gjjzyyeOMb31j27G47OcUBq/IxX9ZvfvObrppM2v7c5z63OO200zp0fv3rX4/Fb/fiRz/6Uce5cPjBD35QXo8hKpU///nPxamnnlrOk5W6xz49zQ4++ODib3/7WzjVbi+66KJir732qj2nowQkIAEJSEACEljsBBrR04ru+1SMFQlIQAISkIAEOgl85jOfKb7whS+UJ3K6fXf60O6y1VZblQ7Lly8v/vjHP7afrBzdfvvt5XxWG264YfH4xz++7Gm1zjrrFP/7v/9bMETv8ssvL4cBxgTnlcunPLzpppuKZzzjGcVmm21WDuejpxSGtBtvvLEMY6peBBj0mM+K3lBbbLFF8bjHPa40NF111VWlMSsMYnXxYyVA5uRiKCL+MOwxNW6dc845BYY1hhqyiuCDHvSgsV5na5Vx+8UvflFcffXVxWWXXTblPaogAQlIYK4IMCcgZZUiAQlIoF8EGmG0YvVA5otQJCABCUhAAhIYTAI33HBDwY/eSbmyZMmSXNUCIxO/VDCq5QrGNXo98ZuO0OMKw1RI1bjFnF/MGVMn04lf3fW6SUACEpgtAVYP1Gg1W4peLwEJzIaAwwNnQ89rJSABCUhAAhLoGwFW/wu5a/Su2HUrAQlIQAISkIAEJLBICDSipxWrByqLk4DDJhZnunpXEpCABKZLYIMNNnAo3XShqS8BCUggg8BiqG8zP+ITnviEjLtVRQISGDQCjehp5eqBg5btjI8EJCABCUhAAhKQgAQkIAEJSEACEpicwHB1boVQX7p0aexOuR0aGiq6+RMX5/rXaz3CN36RChPbXM4LgR9xZN6yySTul7lDJpNe6xHW/e9//+KXv/zlZMEWvQ431z/jV58s8psdl37xi161vSoPfD5mlw/mkt/pp59epEMDzz777OL9739/GeF+5b/ccHP15pJffcqOuy6G+FHvu/DCC8sb6lV5kMslV8/0rc+F8psdF/l18mPuw5iLsFffq4Ti92Un68h/nWc6XeTXyUR+nUxwgUsjhgeyag8VXEUCEpCABCQggYVP4LDDDis23njj4pprrilXAGSSdEUCEpCABHpPYLvttivOO++83nusjxKQgAQyCQxPtbT1VOcJZ3R0tMjRQ7cfettss01x0kknEfyU0o/4DTq/QY8fidqPdMsNd9D5Gb/uxUJOvpKf/IJATn7JLTdy9Zqa/y644ILA3nWbkx5N5dcVWnJiIfOjBT8k5z7Q7Yee+S9SqXObkx7y6+QWLr3kt/POO3dd4TTCi21OuOjm6PUqfdNVZnPCne/4BbvccHP1esXP+KUE6vd7ma9M33rGE2/1+vO6SkACEpCABCQgAQlIQAISkIAEJCABCUhg3gk0wmgV85zMO10DlIAEJCABCUhAAhKQgAQksEAJnHXWWQs05kZbAhJYLAQaYbRy9cDFkl29DwlIQAISkIAEJCABCUhgvgisXLlyvoIyHAlIQAK1BBphtKq9cx0lIAEJSEACEpCABCQgAQlIQAISkIAEBpZAI4xWT3jCEwY2AYyYBCQgAQlIQAISkIAEJCCBQSSw/fbbD2K0jJMEJNAgAo0wWm277bYNSlJvVQISkIAEJCABCUhAAhKQwOwJPO1pT5u9J/ogAQlIYBYEGmG0mgUfL5WABCQgAQlIQAISkIAEJCABCUhAAhLoA4FGGK1cPbAPOcsgJSABCUhAAhKQgAQkIIEFTcDVAxd08hl5CSwKAsPLly+vvZGhoXF71ujoaO351HHdddctuvkTern+9VqP8K+88sqBjt+g8xv0+JHGg5z/Bp2f8SMHtUtuOcRV8mtnx1G/+EVMelUe4J/pG1Qntv1K39xwc/VM34k0TfcWA7+4B+6rV+VB+DlVvThXj7hZvkChXeTXziOOcrnk6uFvbv776U9/Ou/P0XTih+5kz+WSJUtQKaVX5QGe5fJDd7L4cT433XL18NP4QaFd5NfOI45yueTq4W+v89/w9ddfH/Ft2y5btqw8HhkZaXOvO6AA6OZP6Of612s9wjd+kQoT21zOC4EfcTT/TaQte4spfX1+29PW9O3kUXXpVXmAv+a/Kl3Ll04i4y655W6uHr6a/zpp5/CLijVX96o8yAmX8HL10DV9odAu8mvnEUe5XHL18Lcp+S81WvWqPGgSP+41N1/l6skPAp0iv04muMClEcMDXT2wPgPoKgEJSEACEpCABCQgAQlIoBsBVw/sRkZ3CUhgvgg0wmjl6oHzlZ0MRwISkIAEJCABCUhAAhJYLARcPXCxpKT3IYGFS6ARRquFmzzGXAISkIAEJCABCUhAAhKQgAQkIAEJNJNAI4xWrh7YzMztXUtAAhKQgAQkIAEJSEACMyfg6oEzZ+eVEpBAbwg0wmh16aWX9oaWvkhAAhKQgAQkIAEJSEACEmgIgZUrVzbkTr1NCUhgUAk0wmg1qPCNlwQkIAEJSEACEpCABCQgAQlIQAISkEA9gUYYrVw9sD7xdZWABCQgAQlIQAISkIAEJNCNgKsHdiOjuwQkMF8EhpctW1Yb1tKlS2vd6xyHhoaKbv6Efq5/vdYjfFYPPOOMMyIqtdteh5vrH5EZdH6DHj8YDnL+G3R+xo8c1C4+v+084iiXS64e/vYy/0U8e1Ue9Dp+uVxy9YxfpHj7Vn7tPOIol0uuHv728vnNDTdHj3iF9Ko8yAmXMHP10B1UfsQNMX7jHNL/JqYvqwdONUQwl0uuXi/z35IlS1pJ2KvyoJfxw69cLrl6xg8CnSK/Tia45HLJ1cPPXr8/Jt7q+K5IQAISkIAEJCABCUhAAhKQgAQkIAEJSGAACAyPjIxMGo2pznPx6OhokaOHbj/0WD2wH+Hm3u+g8xv0+OVy7pfeoPMzfuSMeskpN+RXzw5X+dWzyeEiv3p2uVxy9Xx+Z8d5UPmlPa16+bzl5qtcvUHlF7nC+AWJzm1Ovlos/Fg9MOd+c/N9rl6v+KU9rXp5H72KX5q7jF9KY2K/l1zmO/9N3EVevdj4pcQm9hvR08rVAycS3D0JSEACEpCABCQgAQlIQAI5BKYaGpjjhzoSkIAEZkOgEUar2QDyWglIQAISkIAEJCABCUhAAhKQgAQkIIH5J9AIo5WrB85/xjJECUhAAhKQgAQkIAEJSGBhE9h+++0X9g0YewlIYMETaITRitUDFQlIQAISkIAEJCABCUhAAhLIJ8DqgYoEJCCBfhJohNGqn4ANWwISkIAEJCABCUhAAhKQgAQkIAEJSGD6BBphtGL1QEUCEpCABCQgAQlIQAISkIAE8gmweqAiAQlIoJ8EGmG0cvXAfmYxw5aABCQgAQlIQAISkIAEFiIBVw9ciKlmnCWwuAgML1u2rPaOli5dWute5zg0NFR08yf0c/3rtR7hG79IhYltLueFwI84mv8m0pa9xZS+Pr/taWv6dvKouvSqPMBf81+VruVLJ5Fxl9xyN1cPX81/nbRz+MEtpFflQU64hJmrh67pC4V2kV87jzjK5ZKrh79NyX9LliwJjD37XmgSP+41N1/l6skPAp0iv04muMBl4q1er7MoXLfccstFcR/ehAQkIAEJSEACEpCABCQggfkisGLFivkKynAkIAEJ1BIYHhkZqT0RjlOdR290dLTI0UO3H3rbbLNNcdJJJxH8lNKP+A06v0GPH4naj3TLDXfQ+Rm/7sVCTr6Sn/yCQE5+yS03cvXMf0G/c5uTHvLr5BYuC5lf2tMq5z64537omf8it3Vuc9JDfp3cwqWX/HbaaafizDPPDK8n3eaEiwc5er1K37SnVU648x2/FKjxS2lM7PeSi+k7wbW610vOvXp+I46N6GkVN+tWAhKQgAQkIAEJSEACEpCABCQgAQlIYGEQaITRytUDF0ZmNJYSkIAEJCABCUhAAhKQwOAQcPXAwUkLYyKBphJohNHK1QObmr29bwlIQAISkIAEJCABCUhgpgRcPXCm5LxOAhLoFYFGGK16BUt/JCABCUhAAhKQgAQkIAEJSEACEpCABOaHQCOMVk94whPmh6ahSEACEpCABCQgAQlIQAISWCQEtt9++0VyJ96GBCSwUAk0wmi17bbbLtT0Md4SkIAEJCABCUhAAhKQgAT6QuBpT3taX8I1UAlIQAJBoBFGq7hZtxKQgAQkIAEJSEACEpCABCQgAQlIQAILg8DwsmXLamO6dOnSWvc6x6GhoaKbP6Gf61+v9Qj/kksuGej4DTq/QY8faTzI+W/Q+Rk/clC75JZDXCW/dnYc9YtfxKRX5QH+mb5BdWLbr/TNDTdXz/SdSNN0bzHw47kN6VV5kMslV4/4Wb5EKk1s5TfBIt3L5ZKrh9+5+e/cc8+d93r2dOKXcqrbX7JkScu5V+VBL+OHX7nplqtn/CDQKfLrZIJLLpdcPfzMLV/QnUoId+KtPpX2Aj5/2WWXLeDYG3UJSEACEpCABCQgAQlIQALzT2DVqlXzH6ghSkACEkgIDI+MjCSHnbtTneeK0dHRIkcP3X7oGT/I10tOegw6P+4s5z76pTfo/Ixf/bORm1/kJ78g0I9yyPwX9Du3Oekhv05u4bKQ+aU9rXLug3vuh575L3Jb5zYnPeTXyS1c5BckiiLtaZXDhStz9Mx/E4yre/KrEhk/zuGCZo5e0/JfI3pauXpg/YOjqwQkIAEJSEACEpCABCQggW4Etnf1wG5odJeABOaJQCOMVq4eOE+5yWAkIAEJSEACEpCABCQggUVDwNUDF01SeiMSWLAEGmG0WrCpY8QlIAEJSEACEpCABCQgAQlIQAISkEBDCTTCaHXxxRc3NHm9bQlIQAISkIAEJCABCUhAAjMjcNZZZ83sQq+SgAQk0CMCjTBaXXrppT3CpTcSkIAEJCABCUhAAhKQgASaQWDlypXNuFHvUgISGFgCjTBaDSx9IyYBCUhAAhKQgAQkIAEJSEACEpCABCRQS2C41nWRObJ64PXXX7/I7srbgcCWW25ZLF++XBgSkIAEChfdMBNIQAIQYClw6wfmBQn0hgCrB5577rm98awPvqxevdr6QR+4G6QEekmgET2t/JDpZZbRLwlIQAISkIAEJCABCUigCQRcPbAJqew9SmCwCQx366UyNDRuz6K1aipZd911p+ztkutfr/Ui7t3uM873Otxc/wh/0PkZv8glE1vTd4JFupfLJVcPv81/KeHx/UHld//737/YeOONy14O//3f/11uO2Pf7mL6tvPgaFDTN2Jq/IJE+zaXS64evvfq+dh8882Le93rXsXvf//74qqrrmqPeOWoH/EjCrnh5uptsskmxWMe85jyni+66KLKXU4c5vrXaz1iMN30JR255o9//GNHOvYyflGWr7nmmsWqVasmYNXs9TJcvM/1D93p8uOabpIbbq4e4SzU+D3+8Y8vlixZUvzf//1f8bvf/a5ENt/fUQuZXwnsH3+5+aXXegT/5Cc/ufjrX/9ajja6+eab02i19nsdbq5/RGCq5+Oe97xnsdVWW5VxvfDCC4s77rijFe/qTm64uXr4P1X80Mn1r9d6TYzfkoc+9KGrufGqLFu2rHQaGRmpnuo4piCbavhdrn+91iOyz3/+84uTTz65I96pQ6/DzfWPOAw6P+OX5pTxfdO3kwkuuVxy9fDT/AeFdhlUfh/96EcLhmMj9HDtx/tjeHi4DPfvf/97O7TkaFD5RRSNX5Bo3+ZyydXD96aUL9/85jeLe9zjHsWvf/3rYrfddmsHWzmaK37RCNrt2cwNN1fv/e9/f7H92LCmu+66q/XhU7nV8jDXv17rEfh081+k4+9v+X2xy667tN3OTOJHeYmQNpE+HKdlOcMsJ5OZhNsL//Bjuvx6EW7u/S7U+K211lrFBRdcUKJi1cAPfOAD5XM01fDAXC45enzg83vAAx5QXHvttZMlW8/rnTnxiwgNev677LLLyqhefPHFxQEHHBDRbtvm3i96Ub+qlheph7n+cc1U/J761KcW73nPe0rv99577+Lyyy9Pg2rbzw03Vw/Pp4ofOrn+9VqvifFrxPBAVw8kaw+uPOlJTypbAzbaaKPBjeQ0YkbLAK0b/PhIyBUs+rvvvnv5o9KgSEAC0yOwxx57lJXtb33rW8W//Mu/TO9itSUggTkjwLPJc+mzOWeIp+3x/e53v1aavP71r5/29V7QHALzvXrgpz71qTJvnnjCic2BPOB3SnmBMZMy3PJiwBNrkUavEROxL9K0WxS3hXHm0EMPLe+FFp13vetd835f0aKTtjLOJhI77LBD8Za3vKX04qCDDurowt/N7y222KJ13S9+8YtJWxS6+aG7BPpJgAYCjK933nlnX6KxxhprtMKNrtgtB3ck0GAC3/72twuGy1155ZV9oeCz2Rvs5513XpmO1BFmK5OlCUNxli5dWv5mG47XLywC9JC+4ooryuGBP/jBD/oSeYYmKoNFIK1TpfuDFUtjs5gJNMJo5eqBizkLz/7eaNF55CMfWQ4h2G677WbvoT5IoKEETjjhhIJfdINuKAZvWwIDR+Dtb3+7z+XApcr0I/TBD35w+hfN4IrTTjut4MfwGKVZBBi++7KXvax107zPGWY71fDA1gXuSEACEpgDAo0wWjG3ylRzWs0BW73MILAYW3SY5JZJqJFrrrkmg4IqEpgZgWc961nlh+j//M//FFdffXXxuMc9rnjGM55RPOQhDymPmf8E96rsvPPOZWv9z372s7K7NysD7brrrgUt7y9/+ctb6rSmPec5zyn9feADH1iwbDT+0SvykksuaenFziMe8YjSAEyvxa9+9avh3NrSs3LHHXcs/funf/qncq6Kn/zkJwUThE7WO4veiwy3ffCDHzw2z8UaY/q/LL72ta8VX//610u/8XfPPfdszaeFI3MZ0mBxxhlnlPP4tCIxzR3mVGAeB+ZSoLcKPSKpwGPoZlLr7373u8U3vvGN4k9/+lOtz5tttlnB0CgmqF977bWLP/zhDwW9JI4//viOeMH7//2//1f2boDvj3/84/IeGDZ8n/vcp/xoOPvss4vbb7+9DIu5ZsgDfFjecMMNBT3d4N6t1+iGG25Y8v+3f/u3gmHM//u//1vQc2OyeSJqb0rHSQnAlmcMIW8wEe5TnvKU0o3J0Mnz5N867nvttVdxt7vdrVg1Nvk1z9pLXvKSYmzu0fKaQw45pBUuYbzgBS8oHv3oRxc8S+Q/elFhNL62Zg6YFStWFAzBv/HGG4u6ScnTvEFvSXpa8JFaF8dWJMZ2ttlmm/JZII7dnk3uibIppFfPZvi36aabFjQ4wYLnizzNczmVRHnEc8TE40w6zfAXnvNu5REMuR/Kw3vc455jPG8oWZ100knl5Oh1Ya6//vrFC1/4wnJSePaZRJ2y96ijjmpT5xzlLfKlL32pLAcYhgPbE088sSzLSMcNNtig+NWvftVKR8pFnmnK56985StlWfH0pz+9QBcDBO8H8gXlVchzn/vc8h0Qx4997GOLffbZp+SGfpTl6623XnHMMceEWmtLmJQ9lIOUTcyV9sMf/rA47rjjir/85S8tPXbSco13EvWinXbaqZxnjLSDO2UXZVu3sqvNw0V2AEsWDGCS6dNPP71r+t12221td56TX+KCNL3ufe97l+9cnu3zzz8/VFpb0uvZz352mW7UZXm3UEdIjVbkD/IXw/DJd8ydRO+8m266qeVPdYf36L//+78XTPLO+5ByEb+PPfbY1ogE4klZyfOILBlaUuZL5qVDrxfCO524dyuzqmGkZS3xoqz96U9/Wj5Tdfn1mc98ZsFQOspv8vuDHvSgctoPFlH4zne+UxqDf/Ob35TBUI5Q96JeQfp///vfL89TRoRU3yeESR0ETrxPqCdQz5lqgY3wL92SjvhDOlJWkI7kCdIlFcpseIVUy4twZ8uUL6Qx9VBYkS/ws1sdiWvIk5Th1NnITwxBrMub6CrNJdCIidiPOOKI4rWvfe2kqRw9A6aaOLjXekTKid46kyaXcy/4feYznyn++Z//ua2nVa/ywXTix4f5wQcfXMLoNuFgLpdcvenED91ecTF+ZTJ3/OVyCT0m10So8JOH6+ZQo3L1yle+svjb3/7WCu/MM88sP3z4uKVygmEfWT26unjCE8cnUucjlkrife9739Z16Q4VpTe+8Y1tFZF08t7qROx83BxxxJHFWmutmXpT7pOviGN16NLd73734sgjj+w6P9Uvf/nL4nnPe145WSsfjXXCM3XOOee0nQp+U+VnLmIuD4xNfMTfcsstLVaph3xMvOhFL+owQqU8Uv3Y//KXv9waHo0bH9ExAS4VPT5E11lnnVAvt6TRK175irLyT5lRFdKbVvK0Ms398jG8/377lx8B1WvgiHEk8shUXKbDr4nvNz5APvzhD5eYyZcYCNKhWMH/85//fJm/45htTJxLL5ftnrxdce/73Ls8feONN42l4bPLfYwshx12WG3PKfLHqaedWhx++OFteSAm8K6biJ1n6I1veOOkeePPf/5zGXb8zcWzmZuvUr399tuvePGLXxzRam3Jwz//+c9b7/ZYgSoUZlIeve51ryte+IIX1nIivDe96U1lWZzGjw+x9773vaXhO8KOLWn1yWM+WXz2s58tndCNnlTve9/7ije/+c2t6zBG4RbpmE7ETi86jAoIRiOMalXBCPfWt761NHQRP8o1hv9VBYMm95GWXdWJ2Kmf7P3/9u7KgXimZW5artGAzH3WvVcoYzHax+TwU5VDxH0xlC9Mi4ERD/n0pz9dMigPkj/Sj3SmMSO45OQXvJgsvfCX/NktvWIidsoTvqMwaL373e8uDR1J9Fq7vLfIt1XBSEV9AiNonWDcf9vb3lYaqNKGs1T3iU98YluZFufS5y3c6rYYfz7ykY+UZULd+ahPcI8InKcqa8/75nnFO97xjrZ4xTOKfxjRqZtVhe8ODFcxlUh6HqMvRsMwXFF2zfZ9Up2Ifap0pB6Sxo3rg3Ma1ygvcCNtGbnCM1kVyrpDDzu0OPXUU9tOoYvhmsn+q+9Irll5wcoi6jndvovCw4hfPB/hXt3m6nHdYihfcu+313pzwW/8yaym6CI7jg+7RXZbM7odWjGwmNMSgNBC9tKXvrSs6PBCefWrX11avKue06JDKxw/PoyxivPiovWOFr1UCIOPWSpiVLSOPvro0l8+/KpCwUmFnjhxXZ3QEkC88OcTn/hEWSHjBTiZUOmh5wUVL1qu+DhgJSF6PYQQHvcTLToUmBSKabfo0J3OlsoY98MPTlXBjRcSreZUUFnJqY5N9TqPJdCNAK1TYbDio5SKUgite1TU6oTKQhisOH/X6F2lGh8ZGFTiw4JKFEaq6667rjTuovSoRz2qrKCUF0zxR6vcsZ86tmWwuvXWW8vW9ttvH1++mJflZz/z2Y4VvnhuY0J1KjAY2OilRKsrwrPLM4TRiApg+Mc5PrJxo0dCL4RyKFixBDiciROCYanaa4Lnn3RBaMGkdw0t22lrOWUfPVXqhJ5l+Mu13ENUxGh5pqyOihz3nPpJevPhl8qrXvWqgg9urkXgwoq/0ZsEjpTVdeVV6o/70ydAbyjeLeRZmKd5lHcUPQ/qhHdEGKw4//e/j88TR4+Mj33sY60PCPIiPWNIU/IjaUy+Ir1z5DWveU25qtRUeYO6QirTeTZ/+9vftt13r55NPo5Tg1WUA3CgTKn7WOQe6sojevtE2tSVRzynpBWcoizCwBjlC9d85MMfKagrhdDbgPIpjDCUoxhmMDgh+LXPK/cpe53ENbH9r7f8V+s63KLMi/PdtmGworwgv1F+IBiomD80Pijp7RQfxZxHnzw0VW8NjISveMUrWhwwpvJuiF4UcKChgHxaJ5SLvFdgCLv0XUUZS92xyRJld136UYftVvftll/q0ovyItKLfDFZekVaYLxCeO7pmYNEmRZlD268t774xS+y2xLqE3wrhMGK9w69kNJV5+mBzXcJdQz8i3yLJxzzSxtiWp5PYycaqLkknuG6+kR4WVfWMsdX3C/PL/HuVtbyXqUMIizKwNTwj2EujEKkdZQJhM33QLc620zfJ3FPsa2mI3WruC906ImWpuNU5QVpTO/hKF+4J66hrofAivKa/JgKZSTlUhisuI5ygTzCNVHPSa9xv7kEhptw6/RCUMYJUMGLFjkqV1HBCT58IFIxixa5cKdVMlo/KFDSFkAKZVpJkLoWHbrJUvjTPR5DTQzpQZ/WWlr1kOpE7Bi0aAGKF2SpNPZHhXPfffcteyREoR/n2HZr0eEDnYpntOjgb9xTXI8BD6G1YKYvyK233rpV8aJCllYC6TZbbVHYbqzVkZfaqgtXlWH7J4GZEOCDCANyDB2j2/kJXzqhfPHzzPBBwAdTnWDY/cIXvlAOHeI8zyQfHwjDAzB6ILjRWknvEQwqPFMMXeP6yQQDNxUQ5EMf+lB5fej/53/+Z2nE5Tz7YVCn0hQVIHoAEQ49nRA+eugOT0Vn6622Loe9MCySjynKIISPnx/96Eflfq/+qEjR2h0rKcGYih3xoNzhAyAMQf/xH/9RBssx90Tcgykt1ny8IZRDdUMtOUeFmnsiTRkyRhkZxknO08JLmlL5p4zFsI/QQ4syDMEQFWFRISQtY8gXZSwGMMpwKsoY8fkwUnpLAN70JIx3Cu/Y+NAhPTAQR75JQ8btuLGeMzxv8cGTLlZCL0Q+PiJfPfzhDy8+efQny2ft+c97fnndZMN1yBv0EETSvIF/TIRMI1HkDeLJc4ykzybXUaeIj+C6ZxMDHO/WXj6blEPP3n285xkfz3x4Rz2Eus3nP/f5NqNfGfF//FXLoyi/uBeeAeoF1fKIIb4h+/zHPm1lC/Uo6iRcwz5GRYSyIuRzn/tcm2E76jZcQxpED6vQx536A34wjDf9iA+dblvSjXwTQnyitxTPNw1zpAXDDOnRhzCsOBbFieuqW5hTj0OID2UceTvyH0ZY8jlCXY/eQ5HnS8d//PGBvu+r9m0NY6Vsj7oc9SEaG5ssk6UfeTee2ZRRXX7pll5xHQaynPRCn3ce7yqGfCEYOHimY8gpZckpp5xS1gvQocEmvr34nohefbzTomGY542yhDox8pKXvLTsTcowxDAwUTfm3T5bIZww+FGfoK7Urcyi7GOIWl1ZG/H413/916yylnoZjHlHc7+kLfWxEIbEkqY8J5RbPI+86zfZZNNQ6djSAEZ5Ez2j6Sl7wAEHlHqTvU/Co2o6UhZQ1hC/bulIWlPfix7t1fLiwAMPbJUDDK/+r//6r3L4J2HS85gyiHrSi/79RcUnP/nJVtyp34TQCyuGwGPox3CXDisPPbfNJTAcL5sqgihgqu51x1R8u/kT+rn+9VqP8I1fpELR1nJH5QqhoMIQRasABQVpQOWFFyPWd/hFSyH6tOjwgkyFaygsaeFFeNHc/KubC1qBKeh4eZJHWE2PjzfGbSNpehNG5CPc+ZhiLDhCpZSuthTmG6y/QRk+LyHmfeCFGNdFi074S6Wfl8Xd7nb3sSFE/1T6RcsIcy/gH60fjAmP+yO+vKziuLyg5i/8rznVdi3+RP7DYJZ+EBI3Xvi8JPCP+wnhOO4p3NhOFu5M9Lgm4pdeX93vdbi5/hm/akqMH9fxo9LCh0TkGz5Wj/r4UQU9KRAqBxiFkHRlHowuDElAuBa/d9l5l/KYShEf1+En55h3gUoYzx7CsLJohU39jTjusssurd4Hq8bm6eEDMfzjeipBfBjTCxIDN+UFz2ba4s4+81/EdfQQYBgC8zpQFlGxofU4Wuvwl/BDn+NUIm6pW84+lUsMTOEvjDFKYxBEHvCAB7Tm9CAMyi16+mJw4JoIl0pbGJK45/AvzuMXZSitkpGmlEsYqOLjk4ohHxKU21xPRZaeJhgTMaaFnwy5CC4M2yG+cY5wqPwydwRh06rJsLOpJI3nVLpNLF9SPrxfeTbTdwoVfvIuvRVJC4w+fLxUhR7GtFTzHKLH8Jjo/Uh68+zgHuFdOTan1WeP+2zL6MLHYXwEhN88o5H+3fJG+JfmDeaBCcNK+my+5z3vmfLZxOgSeZB44H/EIeIV7ulxt32up1yKegi9OFaNlS3hJx+jr3r1q8p5oMKPOFdXHsX9oksPcRqequUR84aFUF8K/3Bjvin8xY30wj/8wCiE0HsEI3J6Dcb7HbbfobwHPvA5l+YR6gfUp8g/+JfGET+59/AvvY4eY5TNcQ5dDEIMCccwjUGBbfjLeYT0Sa9Jy/JwJx9HOmJUiLIk4oYBlYY5entS56OsotEjzhMO5dpLXvqSklP4y/vjDW94Qxk+16X6XDOZLIbyhXsIoXfKZOnHCAHKeNIvTfe6/NItvSKs6G1DPbtbehFGpEc0MPNeow7A+ybSkP3999+/VZfAEEKvJK59yg5PKYMkjpRp4R+OzF1EvRuDzUYb3a+s4/Ouq8t/Ee/qNvWvei6O0zKL9+pk9QmMLDSo15W14V9OWYvuO9/5znL+sIgjQwfDaEVZwTdBpCN1K4zAhL/WWmu20jmuxT/SnXoc18AJoZc05TOGNNKj7n2SPt916RhhkI58y2FkRyId2Q8d9lP/+IaiLENIS77z0vP0xKRRFMMX5RbfltQ7eZ9F7zt63mGkivyEX6TZued+vdVDn/DT8+ikksYvda/u5+px3WIoX3Lvt9d6c8FvoqSspuoiOo5K/iK6pZ7dChUpPlTogYXR5Hvf+17Lbz7Q6oRCh49GKhlcw1hrWv+f8+zxCUT5yKLCSDdWXlAUoPFRjH8U4ukLqS4M/A2DFS06tMRR0DEvyzOf9czWcBhe4Gk3dHqAxYNHIciHAca5l7xkzzLcCItWU3p80QLMhKgIL2I+JIn3XEj60qSXCHGjUooRrV/LCs/Ffern/BOgNY8Pw6pEDwLc04+u0OMDAgNKKjxT8THYbSJMjNlUQJHqsKHUL/ZjiBz7MXcL+6lggAoJ4y0VIYRw6nqIUcH5+Mc/Xv4m600S/s52S2Ux5ptK/Up7UkacOU+5ut1225W9oUJ/zTXXLA1c8fEf7nXb666/rtW7Js7zQRNS1zuLijiC8T7kYQ97WLkLx7r0pOIbZWDZKPCPD+243u3sCPAREr0fU59SI1U6wW3oYLjlwygVPmZCuj1L6XQI8Q6Na6rb6eaN+IiLfE6eSvN/+D8fzyYGP4T3dlq/iDhQJmAsqspMyyOMQSH0KOEDnUnZEXpJ0MuIugMLLCBMCh9S96xiyD7obQeVw6bqJjqntwllznQF41RVqJNh1A+J3jJxnLuN6RV4b2Coq5NYhIZz9PyrylU/u6o1ZCg9x3BrJIxi6bkm7WPQrkpO+tXll5z0wvgdUpdecY76ahgYrr322lav5zjPlmckev9E2ZLWJ2hArisLMaryLqcX0lxJWmbl1CforRwy07KWdGPi9VSYczIk3Q+36FHLMYa8qnR7nzA0L6TufRLnMMLMJB3j+rotxrKoM6aT9ae60bCJGwZ9hPpRSHV6Bdypm5x99viw1NBz22wCw1O9FKc6Dz5e2Dl66PZDjx4u0aWROEwm/YjffPKjEA3hA4jeTKnQekkXe1riypfNWKss8UuvgxHzMMXLieuxzEehhSGsaoShUoZVnR4JtOgwDJHeVtHCgB+EEfxj4nwqpLQWY70PoXKD9T8qTTE8CWPV9iu2L9XwB53wD0daODCi8SJgkmnC496itQKd+BBPr8O9m9TppawiDD424gXEB2La4wo/4J62KBCPOr8jHpOdCx22OXrzmf/SuBm/Ko2J45x0m9Auyh6Dddfgxo/WKYxLoRN5/ra/3FY+x3HM+bTCwzMa16Th4UYvRXr5YOiIMiL8QTfycAzxw61a3uCGAXuNoTXYLYXeCZQLUTbQM7PuuaQciA/EuJbyIiTCj+O6bd291enhRmW7Tj+GR6BTDZMeT7R2w5TW8boPMpiFv3HP+EVvjnDnGAmjFPsMs+B8+vym/ONaVoJDKB9jWGPpkPyFoR8nDBN8lORIhDGZbhq/yfQ4l+Nfr/XmIn6RX4lrpBP7qaQf9wxbqd57DCdJ47fJJpu0vGDoTRoOJ/CDDzKMCryPec9V/U3z23TzBs8m+T3yKc9mGr+IXPXZpPyZzrNZjXP4T+b2WwAAQABJREFUm27jw4vnsu5DGF2M68Es/JyqPOK64TWG2ZTCPXMtQ9Yob3hWKPNocOJHPYie23w0YhSGB0Kvy5Bu5Sh1EuoDpDWS1h0wJkScw5/0mDSO4/Q6Gi/CPa5jy8cudWEEYyZDp9P8Q/qk19WVJVGHufVPt3asEIi/XE8P0JhnDOMYbpFf0CH/pOHghtDwEhLxqtMLndjW5b84V93m+Mc1vdTLiV/kGcImnerCT9OPujl5Lk33uvwyVXoRHv7E8Lu69CIM0oN6dgjhT/UuWbZ0WXkf6IZghE/vLfa5N36p1OW/9HzdfvhXPUcjTuTBbvkvLbMor9Jyoq6sJYypytpqnYH4pWUV5VM1zmlegDvn43kgTN4ncZxem3Y4qHufxPOdpsd00pGwI1z2wz/20zrji1/04ikb/im7iXsM18QPjOrp/eCGpIa94DF+pvt/nT912jl6Oc9v+J3jH7q91Gta/IYCttvmEejWopNWptPCKAixykhqsMI9bdGh22edxJBAzjEcqJukLQH0lkoNVnFN2qLDhyFCXMNw1q1Fhw9IVpPkN5+STiZYFzYvaFsU5jNFFldY9MroJmHoSA0ToZtWkMItPvI4nszfdBLfuLZum/bEIg7VH5XJeG65ng/CtIdIrgGlLuxeulXLvKn8Zi4aDOsYrDEOhMGKj00MUlNJTGDaTS81AnTToSxN073KPo7T6+Gv9I4AHxl1Qg/iENKpKukHQpzDCIWQh+rOh96d/5i0PT7Uwj3dzjRvDMqzyUcxwpCablL3DE1VHvFMVMsj/KcuQm8qhrrAP4Tnhd78DJM877zzWj1PGfYbgmFgujJZ+k7mFysm1snNN9/cck57YrYcM3boKYqkvUGql/HxH5KWPeE22bWh0+RtXc9FeEyVfnX5JSe9aHwKqUuvOFfNM/HuqG5DP7ZRP+e4rjd46M3ldiZlVvQqnU1ZO1nZxP3mvMOrXGb6Pgl/qr0sq+kXx6Gfs00NfJSd4Ud1G37hjqRlcWrMCz22NIwoEggCE81J4bIIt2l3+UV4ezO+perQg/CIFhvmJUAwRqUWfNzqrktbdOpenlzHSjvMf4OEkas8qPylLzm6GNd1reeSKPiWDo8XgKmfqXU+9Z6418U/1ZmL/dQQ0O3F3e1lNBfx0c/FRSB6HdTdFXMzIGG8qtNJ3VKDSnwkp+djn7nYEJ73tMU3zscW41Z0zWfi3qqhjCE2aYWcIT3pvAUL0YjCUAqGRSNUei/77mXlBy2tydwrLW2XfufSto/j4JW7nWqINf7AmooxBjN6Mrz+9a+f1HvK1LqhE5Ne5MlJCcS8RlWlGFqGewzPrOpUj5ksd9NNNy3zDQapbs9dvBNTw1jVr8nyRrxbq+9y6gbx3ONfP59NDHOUE/FhXr0/juvKr7ryqNv94kc6xJAhh/TWhh3L0DOhMcOIov5Db0qGOWHcikme8YM4dvso43wvhY/tdChj+J32/MptcIhrY/u3v4205toJt+o27T1RF4+qvsftBDB20gOnKjNJv5z0ord0yGTpRS9CRi8glAN1k+Wnz1H0JkmNYpM9qxGHudim5WBuHMLgjRFmtmVtt3vKeYdXr+32Pkmnf5jsfZLmrUjHNN2q4UU6Vt3T47TOyDxpMQF/9f0R10TvdMqhyH8YRevKyDTfx/Vum0ugEUareICam8z1dz7TFrm6giheBJO1ok3VAhexrGsJiHOTbVNjVzfD0GTXz+W5nBaFKMjnMh76vTgJdHux8zEVBqBuz3uVSGrU5YOsbo4CKjkb3ne818ef//Tnqhdtx3z0xbNJpaTaksyHOPKsZz2r3J588sllTySMPVQYN1k+MSSqVPjHHyuwxTBielAyLGVQJFZAJD4Hv/PgFsNIC1om094ccxlvPp4xGmJg6LaaIh/gMV8SPUmU3hFgKHydsNR3SPrMhVvdliH9MYcjzyYNQVUhLSNv3XjjjdXTbcfd8kbkUz5YIm9g/CT/8AE43Wcz7WXdFoFZHFBuYJRaZ+11yukM0uFl4e2DHvig2G1t68qj9H5R5PlMyyM+WpkCgS1D+nhGLrroovKHPsNsvviFL5bcw2hDWkXak1axsiH6CD3dKFvveY97FjfceEPBCmC9ECZ5rjM+MO9MyEzLyltu+d2Y0WrjcooH3gF1dcG0V3nuOyfi5XZ8dezUsBBM0vRj8vIcyUkvpu0ImSy9GEERRivq+3XvEp4j8jH1Xe6Bcg3DSEg8D3EcW1aW4/3DiINtt922o2Er9Ga6TcuseD6rfqX1CVa+4/mNefN6UdZWw5vpcTeGue+T1KAV6Vgt/4gb8/NRvkY6ThbftKGLci3qEKnBi7KTRkvOU/7gL+VULGLDXIN1Q07jfTdZ+J5rDoHOPunNuffG32l0f62CSD+Ac1vkaNFBaGnsJunLoq5SFdelL2xeeKxSMtnvrQe+tbx0EFp04h6q25RjtZt16KYtJeHmVgI5BJgnLlakSfVjlRjc6ioEqW7sY1TioxTZeeedy0pGnIstc5bEh/G3vzO5sSid3y6MTOFPbFmtFD/5xVwWv/nt+PCpe9/n3rUT+rIaIj2I+KVhhJ8zacWMa2e7jZ4X+JNW2sNfVtGZL6HyjVBpZA6eqtATjxXmYL/77s+unvZ4lgT44OH5rMrLX/7yllN1PpfWicpOavzBiFInLGMfkk7OG27pdjp547nPnTCqpM9m3RQC8/Fsxgc25dA+++yT3la5z0cwZUdV0rJiOuURzwcfcumCKuE3QweZYBwZWjJerU4nYGZezqrwLDJsmPj3spd1rEqahkdP3Mc/btxIyupg0VCQ6uSUl9HgQJmb5t/whzJm+3+sIoaRc6bGsfCvidsXvvCFHbddTb/cBs6c9IqFqqZKL3p1hmGY4XZ1vRgxrLEyH8/KTjvtVN5HzPvEAQYp8kgq9CwjDuSpP936p54brCKsKLNowAlDSZxjm5ZZzK+UlhO9KGvTsGazz/uEha+qQvxDJnuf5KQji0iw0FaajuF3bNPyIh3+nDbYhS5bFq6gByp+xiT96SieujKcusmTn/zk1Bv3G06gEUardLWYhqd32+3XfeSiMJMWnXiJUjmPrqZtgY0d5LbA1bUE0KpT/bGsMgVajFdPPw67tUbQokNFipYqLP7zJamRrlt+TLnPV7wMZ/EQoLt+tEqRt5ncf7vttitvkIpKtaW/253TG+r8leeXp2mBO+WUL5c9GUIfP/9jn/8oD6noslLYZMJKWzFU5nGPe1zxmte8pqVOBZZWTYY8IcxFFz0yP/CBD5Ru/B155JGtIcXcG/PHsFgEwjUx9DHCwZ2VRqsVZNznQ/iIDTn44INbq/nRUEDcn/70p8fpOR9i9a53vatlhGR4YAz9JgJ8eLBISZTZX//6ua14udMbAjxDTOAdjTY0WrAwSQzp5QMjHV4xWagYnqNxhvcfK/zGe4wtq+c+8pGPLL2gd8FURoPJ8gZ5Nc0bZ599Vitq6bNJ/o5Vx+bz2cTQHcZ1jEn0lAjh/c+qxnUyVXl02GGHdZRHlJ+/v+X3pXebPWyztucXRyY4D+Pd78Z6IyHUMWJOQOoopFU8Z3w0p+UgceqVUJa+733vaxlKyXdf/vKXW40M6Qqiac94VvTq1qAWcYM5ZT7ysr1eVqQfqPTaYGjQWmuNz3vF6sxh5Ijr3U5NgLwyWfrVrWDbzdfJ0ou0Jr1i+oCp0osh79SfQ7g2bWjFSPyhD30oThcsyITwbv7ameMr25H/yeuxAARl4FFHfbx1zQWrLmjtY1xFMOoyDDfKuZbCNHfSMosVk6cqs+Dcy7J2mtHtqs77hAVtgj3pyOqGMQVDzvukmo4xRI9AScd03t1IR85FmrCflhfU2WJEEx0Xjj766FZZhy6NdM/7R6MHZelpp52Gc8H8yDEMk3KLsjfqbOQN8grGTEUCQaDd5B2ui2yLdZ8hJ0o7AVrkTj311DbHuhadyXpPxcU/G2tlfMAD/qksYGiB46WQCgVRbgschdrtt99RVn6iRSc+ZMPPaAngmPmrKMSjRYeXXLTo4FdItOhwTAW0OrdO6M3FlhaFmOOGFoVqrxcqDsRZkcBMCVCZobIQH3I8ByEHHnjgpJPnhl5s3/ve95b5kSFlPNfkVyYipwIRlQp0P/OZz0zpL88Z4X/sox8rK6C0tu3x4j2KkTvHVjUcm0w54smzynwxIXxw09qJcT0qauiw0mBcwwcUxrkQ4kkLIbLjjjuWv4MOOqicTyp05mOLkWLHp+5YxhMjwsrzVxYxBw/hE2+4UIlnUQriTcV8LgSDyClfPqWgvCft+JBhWA892uAagpGj24d+6LidGQE+CjAckH/T54fhE7RAT0eY4P/jYx96PAPk8ac+5anFHWMfhmuOvUPS5+Id73jHlN6SN0486cTS4DNV3jj88MNb/lWfzeOOO668t/l8Nmko+9IJXypb7okY5cD+++3f8ZxVP3pmWh598JAPFh/84AdLxm9729tKAyFGcub4SsOg12IIehgoOR/lEc9eGK/Qo26Q9uqIa2ezpYGQXzW/kd58vEceJP58iFLHo37EhzplEQ0JdUKPcYaJMTcpee2tb31ryWFk5M6WsYrr8DM1YNT5pVt3At3Sj3ow5Xeu9DK9qL/SMxEDMfVyDE8YHyjD6HWT5mkMYOmCTpQdK1asKHsIURaeeeaZ5TsovYYFlzBahFx44YVlDyyOqY8gDGWcab2dMouGbxqHee/llFl1Ze3td9xerLXmWq2ylvpWTllb3kCP/mDIIi/V5zv3fXLGGWe0pSONE5RLSJom1XScrLygnnX22WeXbKNOQ52RsiYtHykTo5GR8DCgHXTgQSVPvoEw9nNdzJdYvUeuUZpLYP66mjSX8cDe+XRa5Ka6CXpbdGuBixadaIFjToipWuCOOurIVpB1LTppS0C0Uta16ERrNi/YdOLIuhYdClZak9Jur61IzHKHFoVoqa1rUfjSl77UVrDPMjgvbxgBurPHsFo+JuLjlYoIlbNVq1a1EYkheLFtOzl2QG8regOlPYaoRMTHDhUJPmwwFufId7/73eKle720ZeAifvgX8bzxxpsKhtBgOEll3333bWtwIPy4hgo8BmAmRw6h1S6dXwH3iHPoTHcbjKJ8q16fuocu3D7wwQ+UlUr0iXMYiBiaQxf5tAWTXmO0JKcVchhXJQ0r3Q+9CD+24U55yQd3+EnFNOJDpZuPZoalVK+L693OnADGqnjfpXmRvEpvmzhXDaFbWpBWPEvR6k3e4t0azwUfFnxY5hpCeHfzUThV3kjzJnGdybOZ9obGj5QHx9MVPniIf2qoj3zNUMpu5dNMyiPKUIzRERblF5MixwcZZS0f3cx1FcLcmjxX0ZsA9/go5Pn9yle+0vahnjKue765PvLFXaPjPZ5wS4WJ4OPalC9DEClj0zC4jg/WVOKaql7oHHXUUWV+ScOIuh06lL8YONJeXKlfkc/Cv9imOuHWxC1ldco2GJB+DAGL9Mc9ZRbXhH5sp0ovhghX0yuurdvy7kpXHud5izxN2p5++ukFxp5UqJtTn0jfzXENetRfaMxK74ee4dFTMfVrNvuUt2lDPXk9ys26+kRdWcu7Oq6hrN3/dft3lLWRRnVpkrql+3FfKYO687xPaNRH4lllf7rvk2o6kh6RJqQjnKrpSDiEn0rEgeedfBRDUtGhjIzykfcVvU0xiqfC/FeveOUrSuNnuHMdQl0pHfYYXEPPbfMILBmziK6uu+3IvGF9rdMJN6y+UxUuuf71Wo847r777mVBGvGt2/Y63Fz/iMt88sMaHmPNUw4UUlH44E4BzoSKFBLEj8nRo7Xj/e9/f2lRT6/nfvmApLIcgp/VFjgq6HTjjzkV6FIew5aw6jN0BsE/enFg4AmJvBhscWeJaSqmkf/osUTrTzrmm+vSa2jRYehQvBzIH9E7I8JiCM1kBWT4F3GK69jSZZ6JoZGDx4ZOMBkl8WMs+oc/9OHWC4/z3VoU+CCom0x+snDxLyRXD/35zH/Gb7w1KzhUt7npFnpRAWBCZvIcxtmnPvWpZZpSQaTVim7j8XxUw4vj8K8uPzO8hEk+WZ0Tf6hg0gU9np/wgy0fbTFHBgbgqn8YZhjWhA7Dj1hJj8r4VMOYMHwz5IchOJQdfPxee+21adDlftwHE8HSc4DyBv+rz3LoVePX4eGYw2yeD4ZLM4SZ8pM5eLhPKncRLhM402pNmQTXkLmKHxVIhpAyBIAwmKibMjTK49xwc/W4n9nwCx6xzQ03V2+u4gff6HHDM4FxgueI3jY8AzybGE4iH8T91W278YtniSG3+E2PY8qBMF5X/aIVnPcihmHef1Xh3Rl5g33yBhOFR96o6scxk5ZjvGG4TbdnM00Pnstuz2aqF/7Xbat69BRiuAq9KJheAMNRTFnQjR/+BkMmm+ceMIBTZqbG+jR8wiUsegTQg5L6C2UYzzarVEcPgmr88IN7ZmoAPsiYLoD3O40Dk8Uvwq7zL86xTet1fDjyMQ0Lyh7KFnpzEceQqn+UU6QjPMhH6QTK3eIX+YV6DRx4J5D/Jssv1XAjPtVtrh7XdYtf6meuf73Wy40fxgHe2whlxB133FGbfrOJX5pe5EF6HdEbirSr1g+q9XIaPLYbmxaAd0UI9QrqBUxWTnzJ0/TUo0ybrFzj+eF5Y/VUhvZjtLjlllvC244tQ28xeDBUL22gShWny4X6AM9HtzKr6l+UE5S15DeeEYzilLXzkf/oYZa+TyjLKfPpvUbcYFi3KAeMpoof6Yj/1K+oL5GOfIvx/VaV4EL+6FZecA3fbdTxWICH8oeyLoYPVv2M+PH9yXuTuFB2U4bHtCoR7mT5Cn97rYefET/2u0mvw831j/g0LX6NGB7Y7WHulgGb4s4QPlYD4UMmNVhRYWPuk/RDL/1ArbP+wwz/+JDk4zn8TP2loMc4FBW7qTgzoSz6VMKQeJDZp0Blklm6oPPQhuD3s5/97HJMNh/HSHodhTsVvPR+eBFjSEuXIA//ZrJN/U5ZUUF41atfVfb4itbgaFGgGzdd7WklRVI/ZhIHr2kmAVrbqi1hMdfBTIlQMYsP4XiWuuXP9HmvC4/r+GBPW1zT57fuGtyorNDqmVuWMwyGH0I5EB8EpcPYX7T+pc9nnIst10cvznCb7paPx3Qy7OAX/lDWdvtADp1ebikfmSA6nSS6l/7rV3cCPEOf/vSnS4VqPuh+Vfcz6bMU/k1WqefjZjJJ80aOf+EX72LebelwoDhXt02fTZ7LeE+jm/Ncosd7PDV081HLhxa/6UgwDIPOZPzCX8Kip0na2yTOTbblvhmWM18Sc4DmhEc5VddINtm1M80vk/npuQkC00m/iau676XplWphgKhK3Xu82lsb42T1mYtyo+pfeszzE/Ny5Txv9AQLo1q1vAh/pyo3qDtgjA6ZbpkV5URabwm/+rVN3yeziQPpyDcQv5z0IKypyguMi3QeyPUPP0kTDFvdjFvoKBIYTltU6nBMdZ5reKBz9NDth57xg/y4UDCE0P2T3kzMD4XFHos4H4XpROjowo8eHdGDIq6v21JQ0QrAPDRYzWndYWUJWiWwnoexJvJB+nIkbuEefjNRLEMAaKGkFThaAhhuF/dSTV/8YOI/WpWJMxMWUmGkokuraFWIF8tbs6IFwwlp0aEHVI5U48s1cE27INMiEXq8PGFNCxWtTYTNCzxakHIYE0b4x/5kkqNX5Tdb/7g+J9xcPeM3WYqMn8PA3I35fPDjg5ieUw/c9IFlhHh+qLB0i1N6R3MdP3p81a2olcahbp+y5otj87fMdfzqwg63QeAXcanbGr86KuNG1jhT916Lc/PBj3csPfqYhwXh/ZYTLro5erN5PvbYY4/WQiqElyvcD3PezHX8usUnJ1yuzdGbDb+IX9SFOM4td9Gdr/gRVio54aKfo9cLfmnccsPN1cuJHzohOemXw2Wm8aPOns6vSKNKGB96Ge5M4jfT8oIeP2Eoyw03Vy8nffELmSm/4I8fPOtxnOPffMSPeNWJ8aujMvN8UOdb09K3ET2tMHjQDVWpJ4BRKV2ytF4r35UWHVpB05bQblenRqtuOvRCYpgCv+kIw3CYPwsJY9lk12OsCz0mk69bpjyu79ayg9FuqrzGS6fKJ8IN/91KYCERwPgdq/EQb3pcDoowd1Ta24l4RYtwVP7q4orRSpHAQifAx1r6fqEBaVCEiZ1jJTHilPNcokdLvyIBCfSWAA2s1d7FGIcRJoensbifUi0vIi5TlRuTDT8MP9xKQAKDT6ARRivmH3D1wMHLjLTo7LLLLq2IXXfdda39fu8wNDHHoFaNJz2mpjJaVa/xWAKLiQCThDIHxqAIxqfqELz4iM9pCRyU+zAeEpgtAYaUnHDCCbP1pmfX07ubX0jucxl6cZ1bCUig9wSYb5YGKJ63XXfdte9Gq2p5EXcc5YHv8yDiVgKLk0AjjFaLM+kW9l1N1qIzCHfGij/xIqyLT7eWHSavVSQwXwT222+/1sS+8xVmXThMErrJJpuUE5RifJ6JwbfOX90ksBAJ0HP5TW96Uxn1XvZingmLAw88sHyXMTyeXsvK4iNwzDHHFMw5xMrHTIqtLCwCLCZE+jFKgcn5+yUswMTiQcyNyZxa9jbuV0q0hztI75P2mHkkgfkl0AijFau6KINNIFp0BiWWMfF0t/iEQcuWnW6EdJ8PArkTk891XKqTq891ePovgUEmwIcnqx8NgqTxiPfWIMTLOPSOQExub/r2jul8+hTp1+/6JHNRdhsCeNZZZ80nEsNKCFTfJz7nCRx3G0WgEUYrVyOYyNOD0iJni85EmrgnAQlIQAISkIAEJCCBQSTAYkyKBCQggX4SaITRqp+ABy3saNHpt6V+shadQWNmfCQgAQlIQAISkIAEJCABCUhAAhKYfwJD8x/k/IfI6oGKBCQgAQlIQAISkIAEJCABCeQTYPVARQISkEA/CQx363ETE03nRG5oaGjSSavxI9e/XusRNqsHnnHGGex2lV6Hm+sfERp0fsavM9uYvp1McMnlkquHn+Y/KLSL/Np5xFEul1w9/DX/Bd2JrfwmWKR7uVxy9fDb/JcSHt+XXycTXHK55Orhp/kPCu3SRH6sHnj++ee3g6gc5XLJ1cN7818F8tih/DqZ4JLLJVcPP81/UGiXfvJrRE+rdtweSUACEpCABCQgAQlIQAISkIAEJCABCQw6geGpVquY6jw3ODo6WuToodsPPVYP7Ee4ufc76PyMHylZLzn5Sn717HCVXz2bHC7yq2eXyyVXz+d3dpzlJ78g0Mtyzec3qHZue8nZ57eTb7jkcF4s/Fg9MOd+YdNLvcXCr9dccv2TH6TqJSefyq+eHa794NeInlauHtg903lGAhKQgAQkIAEJSEACEpBAHQFXD6yjopsEJDCfBBphtJpPoIYlAQlIQAISkIAEJCABCUhAAhKQgAQkMHsCjTBauXrg7DOKPkhAAhKQgAQkIAEJSEACzSLg6oHNSm/vVgKDSKARRitWD1QkIAEJSEACEpCABCQgAQlIIJ8AqwcqEpCABPpJoBFGq34CNmwJSEACEpCABCQgAQlIQAISkIAEJCCB6RNohNGK1QMVCUhAAhKQgAQkIAEJSEACEsgnwOqBigQkIIF+EmiE0crVA/uZxQxbAhKQgAQkIAEJSEACEliIBFw9cCGmmnGWwOIi0Aij1eJKMu9GAhKQgAQkIAEJSEACEpCABCQgAQksfgJLxlaEWF13m0ND4/as0dHRutNtbuuuu25x6623trlVD3L967Ue8VixYkVxwQUXVKPUdtzrcHP9IxKDzs/4tWWV8sD07WSCSy6XXD38NP9BoV3k184jjnK55Orhr/kv6E5s5TfBIt3L5ZKrh9/mv5Tw+L78OpngksslVw8/zX9QaJcm8mMV9m9/+9vtICpHuVxy9fDe/FeBPHYov04muORyydXDT/MfFNqln/yGr7/++vbY/ONo2bJl5d7IyEjt+dRx+fLlRTd/Qi/Xv17rEf4WW2xRHH/88RGV2m2vw831j8gMOj/j15llTN9OJrjkcsnVw0/zHxTaRX7tPOIol0uuHv6a/4LuxFZ+EyzSvVwuuXr4bf5LCY/vy6+TCS65XHL18NP8B4V2aSK/rbfeujjxxBPbQVSOcrnk6uG9+a8CeexQfp1McMnlkquHn+Y/KLRLP/kNt0fFIwn0l8Dpp59erL322rWRWL16dfGHP/yhuPrqq4uPfexjxa9//es2vVNOOaW0in/zm98sDjnkkLZzcbDRRhsVxxxzTHG3u92tdPrqV79aHHnkkXHarQQkIAEJSEACEpCABCQgAQlIQAIDQqARRitXDxyQ3JYRjQ033LBYY401umqut956xQMf+MBih+13KA497NDi1FNPbelikFq6dGl5vuWY7HD+85//fMtgdc011xRHH310ouGuBCQgAQlIQAISkIAEJBAEXD0wSLiVgAT6RaARRitXD+xX9pp5uMyRxjxkd911V+nJkiVLio033rg0SK2//vrFkqElxZsOeNOUY+wjBlWD1VVXXVXstddeRc6cbeGHWwlIQAISkIAEJCABCTSJgKsHNim1vVcJDCaBRhitBhO9sZqMwI033lgcfvjhRd2cau94xzuKXXfdtTRc7bnnnlOOs68arH7yk58Ue++9twaryRLAcxKQgAQkIAEJSEACEpCABCQggT4TGF8isM+RmOvgWfVCWTwEDj300NbNbL755q39uh0MVieddFJrSOAPfvCD4uUvf7kGqzpYuklAAhKQgAQkIAEJSCAhMLbSfHLkrgQkIIH5J9AIo9W22247/2QNcc4I3H777S2/h4e7dxasGqwuu+yyYt99921d644EJCABCUhAAhKQgAQk0J0AoxsUCUhAAv0k0AijVT8BG3bvCey0004tT1lJsE6qBism4z/ggAPqVHWTgAQkIAEJSEACEpCABCQgAQlIYAAJDC9btqw2WqzClitDQ0NFN3/Cj1z/eq1H+JdccslAx2/Q+fUjfmuvvXax2WabFX//+9/LLEQctthii+LJT35y8YiHPyKyVXHKKacU1fjd5z73aRsSiPL3v//9cmXB1oVdduYi/1XjVxd0r8PN9Y+4GL/OFJFfJxNccrnk6uGn+Q8K7SK/dh5xlMslVw9/zX9Bd2IrvwkW6V4ul1w9/Db/pYTH9+XXyQSXXC65eviZm//OPffcef+Omk780J1Kcrnk6hFeLr+p4sb53HBz9fDT+EGhXeTXziOOcrnk6uFvr/Nf97FVcReLYMuwMGVhEdh0002LY489dtJIf/3rXy9+8YtfFPe///3b9DbZZJO2Yw5et//rCvLBTTfd1HFOBwlIQAISkIAEJCABCUigk8CqVas6HXWRgAQkMI8EhutWZ0vDn+o8uqOjo7WrvKX+xH6Of+j2Us/4Bf3ObQ7nfvKrxviuu+4qbv3jrcUnj/lkccYZZ5Snu8XvxBNPLJYvX15stdVW5UqDH/3oR4vddtut6mXtcQ4XLszR6xa/uoBz/MsNN1fP+NWlxLhbTnrIT35BICe/oNtLPfNf0O/c5nCWXye3cJFfkGjf5nDhihw981872/RIfimNif0cLmjn6Jn/JrhW9+RXJTJ+nMMFzRw98189Y/nVc2lETytWD7z++uvrCeg6kASuuOKK4rWvfW1x5513tuJH4ZYet07U7Hz6058ujjnmmLK7LT2yGG644YYbFm9+85uLQw45pOYKnSQgAQlIQAISkIAEJCCBlACrB55zzjmpk/sSkIAE5pVAIyZid/XAec1TPQls9erVpZX+b3/7WxG/XIPVT37yk9JgRUS4Zv/992/F6TnPeU7x6Ec/unXsjgQkIAEJSEACEpCABCRQT8DVA+u56CoBCcwfgUYYreYPpyENAgGMXKlcfvnlxVe+8pWW04c//JHi7ne/e+vYHQlIQAISkIAEJCABCUhAAhKQgAQGj0AjjFYXX3zx4JE3RvNK4PDDDy9+97vflWGutdaaxUc+8pF5Dd/AJCABCUhAAhKQgAQksNAInHXWWQstysZXAhJYZAQaYbS69NJLF1myeTvTJcBww/32269YPbq6vPQxj3lM8exnP3u63qgvAQlIQAISkIAEJCCBxhBYuXJlY+7VG5WABAaTQCOMVoOJ3ljNN4EbbrihOPqTR7eCPeCAA4qNNtqodeyOBCQgAQlIQAISkIAEJCABCUhAAoNDoBFGK1YPVBYWAVYKnKnQq6qbHHfcccU111xTnl5jjTWKI444opuq7hKQgAQkIAEJSEACEmg0AVYPVCQgAQn0k8DwsmXLasNfunRprXud49DQUNHNn9DP9a/XeoTP6oFnnHFGRKV22+twc/0jMoPObz7jt91225XpA79chhG/7bffvryWv2p+TP166Utf2tKr6qZ6bUqVg1w9Lov4VbxoO8z1r9d6xq8tGVoHuZzl10LWtiO/Nhytg1wuuXp4bPnSwtvakV8LRdtOLpdcPTw3/7UhLg/k18kEl1wuuXr4af6DQrvMBT9WDzz//PPbA6oc5Yabq4f3pm8F8tih/DqZ4JLLJVcPP81/UGiXfvJrRE+rdtweSUACEpCABCQgAQlIQAISkIAEJCABCQw6geGRkZFJ4zjVeS5mKFeOHrr90GP1wH6Em3u/g87P+JGS9ZKTr+RXzw5X+dWzyeEiv3p2uVxy9Xx+Z8dZfvILAr0s13x+g2rntpecfX47+YZLDufFwo/VA3PuFza91Fss/HrNJdc/+UGqXnLyqfzq2eHaD36N6Gnl6oHdM51nJCABCUhAAhKQgAQkIAEJ1BFw9cA6KrpJQALzSaARRqv5BGpYEpCABCQgAQlIQAISkIAEJCABCUhAArMn0AijlasHzj6j6IMEJCABCUhAAhKQgAQk0CwCrh7YrPT2biUwiAQaYbRi9UBFAhKQgAQkIAEJSEACEpCABPIJsHqgIgEJSKCfBBphtOonYMOWgAQkIAEJSEACEpCABCQgAQlIQAISmD6BRhitWD1QkYAEJCABCUhAAhKQgAQkIIF8AqweqEhAAhLoJ4FGGK1cPbCfWcywJSABCUhAAhKQgAQkIIGFSMDVAxdiqhlnCSwuAsPLli2rvaOlS5fWutc5Dg0NFd38Cf1c/3qtR/jGL1JhYpvLWX4TzNI9+aU0JvZzueTq4bPP7wTf2JNfkGjf5nLJ1cN38187Y47k18lkOlzkJ78gYPkSJCa2Ph8TLNK9XC65evht/ksJj+/Lr5MJLrlccvXw0/wHhXaRXzuPOIJLI3pauXpgJLlbCUhAAhKQgAQkIAEJSEACeQRWrFiRp6iWBCQggTkiMDwyMjKp11Od5+LR0dEiRw/dfuhtvfXWxYknnkjwU0o/4jfo/Ixf92yTk1/kJ78gkJNf0O2lnvkv6HduczjLr5NbuMgvSLRvc7hwRY6e+a+dbXokv5TGxH4OF7Rz9Mx/E1yre03it9NOOxVnnnlmFUHtcQ4XLszRM//VIi4d5VfPJocLV+bomf/qGfeLXyN6WnVH7hkJSEACEpCABCQgAQlIQAISkIAEJCCBQSTQCKOVqwcOYtYzThKQgAQkIAEJSEACEpDAIBNw9cBBTh3jJoFmEGiE0crVA5uRmb1LCUhAAhKQgAQkIAEJSKB3BFw9sHcs9UkCEpgZgUYYrWaGxqskIAEJSEACEpCABCQgAQlIQAISkIAE+kWgEUYrVw/sV/YyXAlIQAISkIAEJCABCUhgoRLYYYcdFmrUjbcEJLBICDTCaLXtttsukuTyNiQgAQlIQAISkIAEJCABCcwPgV133XV+AjIUCUhAAl0INMJo1eXedZaABCQgAQlIQAISkIAEJCABCUhAAhIYUAKNMFq5euCA5j6jJQEJSEACEpCABCQgAQkMLAFXDxzYpDFiEmgMgSVj45RX193t0NC4PWt0dLTudJvbuuuuW9x6661tbtWDXP96rUc8jF81NYoil7P8OtnhIr/ZcZGf/IKA5XOQmNj6fEywSPdyueTq4bf5LyU8vi+/Tia45HLJ1cNP8x8U2kV+7TziKJdLrh7+mv+C7sRWfhMs0r1cLrl6+G3+SwmP78uvkwkucBm+/vrra88uW7asdB8ZGak9nzouX7686OZP6OX612s9wjd+kQoT21zO8ptglu7JL6UxsZ/LJVcPn31+J/jGnvyCRPs2l0uuHr6b/9oZcyS/TibT4SI/+QUBy5cgMbH1+Zhgke7lcsnVw2/zX0p4fF9+nUxwyeWSq4ef5j8otIv82nnEEVwaMTzQ1QMjyd1KQAISkIAEJCABCUhAAhLII+DqgXmc1JKABOaOQCOMVq4eOHcZSJ8lIAEJSEACEpCABCQggcVJwNUDF2e6elcSWEgEGmG0WkgJYlwlIAEJSEACEpCABCQgAQlIQAISkIAExua1agIEVw9sQip7jxKQgAQkIAEJSEACEpBALwm4emAvaeqXBCQwEwKNMFpdeumlM2HjNRKQgAQkIAEJSEACEpCABBpLYOXKlY29d29cAhIYDAKNMFoNBmpjIQEJSEACEpCABCQgAQlIQAISkIAEJJBLoBFGK1cPzM0O6klAAhKQgAQkIAEJSEACEhgn4OqB5gQJSKDfBIaXLVtWG4elS5fWutc5Dg0NFd38Cf1c/3qtR/isHnjGGWdEVGq3vQ431z8iM+j8jF9nljF9O5ngksslVw8/zX9QaBf5tfOIo1wuuXr4a/4LuhNb+U2wSPdyueTq4bf5LyU8vi+/Tia45HLJ1cNP8x8U2qWJ/Fg98Pzzz28HUTnK5ZKrh/fmvwrksUP5dTLBJZdLrh5+mv+g0C795NeInlbtuD2SgAQkIAEJSEACEpCABCQgAQlIQAISGHQCwyMjI5PGcarzXDw6Olrk6KHbDz1WD+xHuLn3O+j8jB8pWS85+Up+9exwlV89mxwu8qtnl8slV8/nd3ac5Se/INDLcs3nN6h2bnvJ2ee3k2+45HBeLPxYPTDnfmHTS73Fwq/XXHL9kx+k6iUnn8qvnh2u/eDXiJ5Wrh7YPdN5RgISkIAEJCABCUhAAhKQQB0BVw+so6KbBCQwnwQaYbSaT6CGJQEJSEACEpCABCQgAQlIQAISkIAEJDB7Ao0wWrl64Owzij5IQAISkIAEJCABCUhAAs0i4OqBzUpv71YCg0igEUYrVg9UJCABCUhAAhKQgAQkIAEJSCCfAKsHKhKQgAT6SaARRqt+AjZsCUhAAhKQgAQkIAEJSEACEpCABCQggekTaITRitUDFQlIQAISkIAEJCABCUhAAhLIJ8DqgYoEJCCBfhJohNHK1QP7mcUMWwISkIAEJCABCUhAAhJYiARcPXAhpppxlsDiIjC8bNmy2jtaunRprXud49DQUNHNn9DP9a/XeoRv/CIVJra5nOU3wSzdk19KY2I/l0uuHj77/E7wjT35BYn2bS6XXD18N/+1M+ZIfp1MpsNFfvILApYvQWJi6/MxwSLdy+WSq4ff5r+U8Pi+/DqZ4JLLJVcPP81/UGgX+bXziCO4NKKnlasHRpK7lYAEJCABCUhAAhKQgAQkkEdgxYoVeYpqSUACEpgjAsMjIyOTej3VeS4eHR0tcvTQ7Yfe1ltvXZx44okEP6X0I36Dzs/4dc82OflFfvILAjn5Bd1e6pn/gn7nNoez/Dq5hYv8gkT7NocLV+Tomf/a2aZH8ktpTOzncEE7R8/8N8G1utckfjvttFNx5plnVhHUHudw4cIcPfNfLeLSUX71bHK4cGWOnvmvnnG/+DWip1V35J6RgAQkIAEJSEACEpCABCQgAQlIQAISGEQCjTBauXrgIGY94yQBCUhAAhKQgAQkIAEJDDIBVw8c5NQxbhJoBoFGGK1cPbAZmdm7lIAEJCABCUhAAhKQgAR6R8DVA3vHUp8kIIGZEWiE0WpmaLxKAhKQgAQkIAEJSEACEpCABCQgAQlIoF8EGmG0cvXAfmUvw5WABCQgAQlIQAISkIAEFiqBHXbYYaFG3XhLQAKLhEAjjFbbbrvtIkkub0MCEpCABCQgAQlIQAISkMD8ENh1113nJyBDkYAEJNCFQCOMVl3uXWcJSEACEpCABCQgAQlIQAISkIAEJCCBASUwvGzZstqoLV26tNa9znFoaKjo5k/o5/rXaz3Cv+SSSwY6foPOz/hFLp7Y5uZTrpDfBLfYk1+QaN/mcsnVw3fzXztjjuTXyWQ6XOQnvyBg+RIkJrY+HxMs0r1cLrl6+G3+SwmP788Fv3PPPXfev6NM3860xWUu0rc+pHbX3HBz9fDd57edMUfy62QSXBrR0+qyyy6rJ6CrBCQgAQlIQAISkIAEJCABCdQSWLVqVa27jhKQgATmi8DwyMjIpGFNdZ6LR0dHixw9dPuhZ/wgXy856SG/ena4yq+eTQ4X+dWzy+WSq+fzOzvO8pNfEOhluebzG1Q7t73k7PPbyTdccjjLL2h1buXXyQSXHC65eua/esbymx0X+S1Mfo3oaeXqgd0zp2ckIAEJSEACEpCABCQgAQnUEXD1wDoquklAAvNJoBFGK1cPnM8sZVgSkIAEJCABCUhAAhKQwGIg4OqBiyEVvQcJLGwCwws7+sZeAhKQgAQksDgJnHLKKcX97ne/SW9uyZIlxerVq8shGbfddlvx4x//uDjhhBOKK664YtLrPCkBCUhAAhKQgAQkIIGFQKARRquLL754IaSFcZSABCQgAQm0CNz73veecsWmUGYF33XWWac0cu24447FscceW3zqU5+K024lIAEJSEACMyJw1llnzeg6L5KABCTQKwKNGB546aWX9oqX/khAAhKQgAQGnsDee+9dvPe97x34eBpBCUhAAhIYbAIrV64c7AgaOwlIYNETaERPq0Wfit6gBCQgAQksagLnnXdecdBBB3Xc4/Lly4tbbrml+Ld/+7fiyU9+cvH0pz+9pfOUpzyleN/73lfceeedLTd3JCABCUhAAhKQgAQksJAINKKnlasHLqQsaVwlIAEJSGA6BP7yl78UF110UfHud7+7OPzww9suXbFiRduxBxKQgAQkIIHpEHD1wOnQUlcCEpgLAo3oacXqgSeffPJc8NNPCUhAAhKQwMAQ4F33hte/oVgytKSME72vvvGNb0wav4c97GHFYx7zmHJCd4xfv/rVrybVj5PDw8PFox71qGLzzTcvNtlkk+K6664rfvjDHxY/+9nPir///e+h1nU7NDRUPOQhDym23nrr4gEPeEBx0003Fd/73veKK6+8suv1hMkPGRkZydL761//WoyOjrbiwfXMAZbKeuutVzzpSU8qNt544+KrX/1qccMNN6Sny/0HP/jBxVZbbVXQu+2Pf/xj8fOf/7y45JJLittvv71Dt86hX5zr4qKbBCQggVwCrB54zjnn5KqrJwEJSKDnBIapfNUJlUkkrejV6eG27rrrlpW4budxz/Wv13oRp273Ged7HW6uf4Q/6PyMX+SSia3pO8Ei3cvlkquH3+a/lPD4vvz+P3vnAWdHVf7vs5vdpUoAKVIMTX8qiBQpQkAJAYMRBUGlGTpi+KMgIEWaDZEmXUUQKaIBDQQJEEpCBIQAShFRsQBGIBRpUgILbP77neWde2buzL1nd2f33r3zvPls5syZd84585xyz7xzSjUT+YRyCdVTmI0sf+3to5SESBZbbLHM39ms9L02/zUnfYkWc19xxRUjt/97vtBCC7mjjz7affADH4wNXFI69NBDnYw8d999tzv77LOj+9L/id8222zjdttttyrjj+lq4d6LLrool5+mMe4+afdE3Lp3//33dwt6FrjLfnmZu/rqqy246Kh4NUVy7bXXjs61XmV6ZJkuSO+4445za621VqQno52/KP2ZZ54ZM9H9O+64o9vpizsl0nLNNddE9+q/DTfc0H396193nZ2dsZ85lNZbZt/izjvvPPNK9JsGw1kBKm077LBDTc6XXHJJFLefv3FiPEdouQ/VU9BZ5c+LMnKGhle0HulL50TfeShn+MFPBKy8DPd7FOWP8ueXP37fqstD2X5/O+bOnVtNodfHvkLqS2Y9UUOWF47dGxpe0XqKX7sHNnP6mp0f6bNSXDmGllPdAb8KN3PBz0gkj6FcQvUUOuUvyVhnI4VfT8/bceI1BTDrdywrfxdeeOH4vhtuuME9+eST0bn9nn/gAx9wP/7xj2PDVqz8jkP3a9SRRj/ttddekRHL1/nqV7/qvvSlL/leVe5Pf/rTTvEcddRRiXRrlJOMYeuvv37VPeahUWIKf7PNNnO77LJLbARSvtkzSHf+/PmJsO3+tN4rr7yS0PNHgW299dbRaDG7V8fnn38+1pcR74tf/KJ/OeFWWrfccks3atSoeM0xS+NgOR9wwAFu5513TsSXPhFnjXTbc889E2zSejoPLfehegozq/zJ35fQ8IrWUxpIn58Tfe5QzvCrZiefMvLTR4is3x+fUCiXUD2FTf31Cfe54VfNRD6hXEL1FCblTxSS0kh+pVjTit0DkwWOMwhAAAIQaE0CGqkkA4rJzTffbM7oqNFCF1xwQcJg9cADD7if//zn0fQPM3BJefXVV3e/+c1vEvcvt9xyCYPVM88846ZOnRoZbH70ox8lXmw09W+77bZL3H/QQQclDFa6X3GceOKJbvr06e75556P9VdddVV32GGHxedD4dD0RpO3337bycA1b968yGujjTZKGKy0oL2mL55xxhnuV7/6Ve+0wPl2a7QIvgx9JkVw3mOPPSw4V4uzpi3KuIdAAAIQGAoC7B44FFQJEwIQ6A+BUqxp1R8g6EIAAhCAAASajUBbW1s8TcNPm6ZuLL/88k6Gi0mTJiUMQvoyrlFD9mVM933jG9+Iz2WkOfjgg6OpgLpmepoKpylpkmWXXTZa7+q+++6LzrfffvvoqP9kxJGevzvhxRdfHI3ispFU2sHQphkuscQS0XQ3C0BrV+29997xGlXTpk2LnlEGIRmsJDt8bgc3ZcqUhDEsulDgf0r/scce62655ZZEqJpiaKLRWZqq9/TTT5tX9JwyCho3Gei0JphkuDl/5jOfcWKPQAACEIAABCAAgVYjUIqRVuwe2GrFlueBAAQgUC4CMv7ceeedVX+XX355tHD46aefnjBYySCUHn0jo9FnP/PZGJxGXGntqrScdNJJCSPRfvvtF6toMXETGcR8g5X5n3vuudEoJI1EeuONN8w7MuTYKDAZgfbdd9946p8pad0KTQ20KXaafqepb0Mp++yzT5XBSlP+ZLAzOf744xMGK/nr2fy1r9Zcc81IvRGcjZellyMEIACBogiwe2BRJAkHAhAYKIFSGK20eyACAQhAAAIQKAuBq666qmpnvY9+9KPxYuMaZXXhhRfm4vjd734XX7OFz+WhnQFNNMJLUwJtVJT5//nPf3bjxm0R/fnT+z784Q+bSjQiyV9bKr7Q65AhzJ/Wr2mKQyWPPPKIe/jhh6uC9z92iZWNoEoram2wP/3pT+7BBx90Dz30UHR5uDlPmPDJITfspZ+bcwhAoDwEtHsgAgEIQKCRBJge2Ej6xA0BCEAAAhAIICADz2uvvValqemB2mVwkd7F0zUqyeSb3/ym08gfrRVlYiOB7Fy7B/pio6BkpNEi7CY2/U3n2vZ87732juOSgUajvV566aXIaDNz5kyn9U+y0rrkkktZkG7GjBmxO8uh6Yi2RtQKK6yQpVKI39/+9rfMcLQAq8kLL7xgzqrjyy+/7GwkmnFqNOeqROIBAQhAAAIQgAAERjCBUhittHsgAgEIQAACEBipBLTe0jHHHFOVfNvdRsar3XbbzR144IGxznaf3c5pqp+JP7VPBqrPfrYyVdB08o5aWFwjoP7zn/+4bx79Tff9E74fG650j7Ze3nTTTaM/rQ+l9bTOOecc9+ijj0ZBKn2LLrpIHLz5xx4px7PPPhv7LL744rE71KH4QuS5557LVFtppZVi/3//+9+xO8RRFOfDjzjcnXzSyXU5n3feebkjwULSiw4EIACBWgS0eyACAQhAoJEEwnp1jUxhAXH70wwKCI4gIAABCEAAAk1FQGtBXXrppdH6VpYwjbzyjS/vete77FK/jzJamdx+++1u289s666++upohJX5+0cZ004++WSnBcIliyxSMVjp/H//+58OuSIjmEl395vmDD4u3DvybDCy6KKLxrfX2+o9VnzHURRnTUncZ9996nI+4YQT3E477ZROBucQgAAECiHA7oGFYCQQCEBgEAQ6bDh7Ogy/g5q+lj7XF828cEw3NLyi9RQ/6bNcqBxDOcOvwsx3wc+nUXGHcgnVU8jU3wpfc8HPSCSPoVxC9RR6s5S/vHSk/W+66abECKrVVlst2kFQz/LEE0+4tdZaS0735JNPVhk6jEvW4uq6x37npTd//nx36qmnRn8yMGmh3i222CIK3/R0z+677x4Z015//XWnaYc2BfF973tftBaUdCxeuU38dbJefPGFKG7paRdFk/Szm7/0fKOX4vTT5Icht3/NwnjxxZecjfB697vfnZlG07WjPUdRnBXuq6++GsRZI+xkRBTnPLH05V03/1A96eflgYWlY2h4RespbtInCkkJ5ay74JdkpzP4VTPpDxf4wc8I0L4YicqR+lFh4bvEpRQjrfwFVX0AuCEAAQhAAAKtRMAWA7dn8kcM+YuoyxBTSzRaaNttt43+Nt5441hVhiktyjthwoTYT+tZXXnlle5rX/taZLw688wz42tybLDBBtG5DDAm6667rjkzjxtttFHs/9RTT8Vu31FrNNUyyyzjq/bb/cQTj8f3+Aa02PMdxwc/+MFo58HZs2fHOwkWxVn8x40bF0cZyjm+AQcEIACBAgj47VABwREEBCAAgX4T6Ki3TXK964pR0xJC9KTbCL2xY8e6KVOmKPq60oj0NTs/0pdfbELKC/zgZwRCyot0i9Sj/Bn96mMI50by81Ocl460f/qZNIrIRk7df//9cZALLbSQ0wedrF3xFIbWpdpkk00i/ccff8LtuOMOkfu4446LRxo89thj7t57743DNMcvf/lLt+uuu7pll1028lpxxRWjMi3j0xJLLBH5ff7zn3cXXHCB3RIdLe3SWWWVVeJrd9xxR1wnfMOXRpHZPbFyr2P77bd3HR2VJTs1wsvXW7BgQawut3/NLmg3QDPWaaqj0jRv3jy7HB8PPfTQOK7nn38+Yl005wceeKBfnOPE5TiynjdLNUQvXf6ywjG/kPCkW6Qe6TP61ccQzvCr5mY+ZeKnjxTTp0+3R695DOGiAEL0KH/5qOGXzSaEC+Uvm10ol1C9outvKUZa5WcNVyAAAQhAAAKtRWBBT8Uos/TSS8cPJ0PMf//73/hcOwxmrb+kUU5msJLyb397dXyPb7jZY489Yn/fIQPPUktVdgq85557ostaMNxE1w844AA7jY+aLnD++efH5+qAXnbZZfH5008/HbuXXWZZ5y96rgsyZB3y9UNinYE6tD6YGfsUxmmnnRZNlfLDe//73+800spExjVJozlbejhCAAIQgAAEIACBViBQ+RTZCk+T8wzsHpgDBm8IQAACEGg5Am+9/ZbrbO9bOD09te3II4+MRzjJcPTb317jfvGLS919993nll9++Wh63+abbx4z0ZQ032ikXaQmT54cXddIrYsuuigK7y9/+Us0Omrrrbd222yzTTz6SEanhx9+ONLXAu6PPPKIW3311aNzGb3WXnttd+ONNzrt0Kf1trbf/nNu5ZUrO/ddcskl0WhuS9B1113nNEpLooXmL7zwwmh6nkZxydgmQ5L8BytaG0px77PPPlFQa6yxRrRmlEYb6BnWW2+9aESXxSMDl89puDm/8cYbMWdLE0cIQAACRRBg98AiKBIGBCAwGAKlMFqxe+Bgigj3QgACEIDASCIgQ5Et5ikj0k9+8pN4MXaNApo6dQd/7LgAAEAASURBVGrvdL8do0dadNFF3Je//OXMx9O0Ol1766234usyUsloZFP/PvShD0WjkGKFlEOLtftyxBFHuIsvvsQpXsn6668f/fk65tZv989+9jM7jY7/+Mc/nEZubbjhhtG5nvOTn/xkQkcnGhG2wgorVPn3x0PTF2UIk2FNstxyy7m99947M4jDDjvMvfDCC/G1IjgrjxSnpB7no48+Oo4bBwQgAIEiCbB7YJE0CQsCEBgIAaYHDoQa90AAAhCAAASGmIDWAzDxDUfml3f0p9BpbSft4OfLySef7LQWU621HzQ6arfddnNatyotGn30r3/9K+2dOH/55Zfd4YcfHo3g8i/MnTvXffrTE116wXhfR9MbzznnHHfQQQclRlmZjnbKyxtBrRFHMpT5L1kyvvnin/tuX0du8d93332jEVf+lEtfTyO89t9/f5f1cWywnCdNmuTEq5aIswxWd911Vy01rkEAAhCAAAQgAIERS6AUI600haFex2/E5iAJhwAEIACBliSgUVIDkV122SVxmxZjT4um6mlHKO3ipwXHtTaUFjn/z3/+E+0E6Bu+0vdqRNGee+7pVlpppWgXwTXXXNMtvvjiTlMJH330UffXv/7VzZw5MzL6aBHztLz22mvRiKX3vve90Ugm7S642GKLRWtB/eEPf4iO9Yx0GtmkUVaapqdRVzJW/fnPf3a6X+tiSc4666x01NH5zjvvHPtnpS+++I5Da2xpxJemHm666abRouzaIVDx1TPeDYbziy++GBkXR40aVZOzv+h8Ou2cQwACEBgsgfHjx7vrr79+sMFwPwQgAIEBEyiF0Urrc1xxxRUDhsSNEIAABCAAgVYjIMOQjDz6k5hxq9YILJ+BDFSaejhQkYFMf9dcc00URGi8Fp/Wkbr77rujP/PT0Z7D9xusW6OuNOVPf/2VRnPub3rRhwAEIOATmDhxIkYrHwhuCEBg2AkwPXDYkRMhBCAAAQhAAAIQgAAEIAABCEAAAhCAQD0CHXlfJG0R13oB6LqG4ueFY/eHhle0nuLX8PxmTl+z8yN9Voorx9ByqjvgV+FmLvgZieQxlEuonkKn/CUZ6wx+1Uz6wwV+8DMCtC9GonKkflRY+K5QLqF6Cpvy5xPucw8FvxkzZgz7exT5W5238hmK/M2OKekbGm+onkKn/iYZ6wx+1UyMSymmB7JAaXYBwBcCzUygra3N3Xrrrc2cRNIGAQhAAAIQgECDCGiDhI9/4uMNir080c6ePbs8D8uTQgACTUmgo94aEvWu66m01kOInnQboUf6RD5bQvIDftns5Au/bDYhXOrxk9EKgQAEIAABCEAAAnkEiuhv+GEXGR79Z59s0h3CGX5JZv4Z/HwaFXcIF2mH6FH+KlzTrkbwK8VIK3YPTBc1ziEwcgjoS+rHNvlYzQTb9N96jWjRekqUdh+rtztp0fGGhkf6sosN/AbHpVH8bNS0djusJY1KX2i8oXp6RtqX6pyGXzUT+YRyCdVTmM1a/vRRa86cOUoiMgwE2D1wGCATBQQgUJNAKRZi1+6BCAQgAAEIQAACEIAABCAAAQiEE9DugQgEIACBRhIohdGqkYCJGwIQgAAEIAABCEAAAhCAAAQgAAEIQKD/BEphtLrtttv6T4Y7IAABCEAAAhCAAAQgAAEIlJjAtddeW+Kn59EhAIFmIFAKoxXz3puhqJEGCEAAAhCAAAQgAAEIQGAkEZg1a9ZISi5phQAEWpBAKYxWLZhvPBIEIAABCEAAAhCAAAQgAAEIQAACEGhpAqUwWmn3QAQCEIAABCAAAQhAAAIQgAAEwglo90AEAhCAQCMJdNjWt+lEdHZ2pr1yz9vb2+OtdvOUQsMrWk/p0e6B06ZNy0ta5F90vKHhKfJm50f6qosO+VvNRD6hXEL0tKW1SV47ZddDwpNu0XoKk/ohCkkJ5ay74JdkpzP4VTPxfYpqDxQm5c8n2+em/FUzkU8ol1A9hUn5E4WkhPCjf5Bk5p+F8DP90PKn3QNnzpxpt2UeQ+MN1VMkoenLTFDKMzTeUD3SlwL8zin8BscFfvn8SjHSKvvx8YUABCAAAQhAAAIQgAAEIAABCEAAAhBoVgId3d3dNdNW77pu7unpcSF60m2EnnYPbES8oc/b7PxIn3IyW0LKFfyy2cm3Fj//S2otPT/0RuiRv34OJN0h+QG/JDP/DH4+jYo7hIu0Q/QofxWuaRf80kT6zkO4SDNEj/KXzbgeP/oH+dzsSpHlT7sHhoRXL98sbaF61A+fWNIdkh/wSzLzz+Dn06i4Q7hIO0Sv6PJXipFW7B5YKYy4IAABCEAAAhCAAAQgAAEIhBBg98AQSuhAAAJDSaAURquhBEjYEIAABCAAAQhAAAIQgAAEIAABCEAAAsUTKIXRit0Diy84hAgBCEAAAhCAAAQgAAEItDYBdg9s7fzl6SAwEgiUwmil3QMRCEAAAhCAAAQgAAEIQAACEAgnoN0DEQhAAAKNJFAKo1UjARM3BCAAAQhAAAIQgAAEIAABCEAAAhCAQP8JlMJopd0DEQhAAAIQgAAEIAABCEAAAhAIJ6DdAxEIQAACjSRQCqMVuwc2sogRNwQgAAEIQAACEIAABCAwEgmwe+BIzDXSDIHWIlAKo1VrZRlPAwEIQAACEIAABCAAAQhAAAIQgAAEWp9Ax5gxYzKfsr29z57V09OTed33HD16tMsLx/RCwytaT/GPGzfO3XLLLZaUzGPR8YaGp8Q0Oz/SV11kyN9qJvIJ5RKi19bWFkfSzO0L9SPOptgRkr+mDD8jUTnCr8Iiy1VUe6CwKX/VhCl/1UzkE8olVE9hUv5EISkh/OgfJJn5ZyH8TD+0/GkX9jvuuMNuyzyGxhuqp0hC0yfdeu+rofGG6pE+EagW+FUzkU8ol1A9hVm2+tExd+5cPXeVdHV1RX7d3d1V19Ie6kDmhWO6oeEVraf4N9hgA3fxxRdbUjKPRccbGp4S0+z8SF91kSF/q5nIJ5RLiJ7fKW3m9oX6UV0WQvLX7oKfkagc4VdhkeUqqj1Q2JS/asKUv2om8gnlEqqnMCl/opCUEH70D5LM/LMQfqYfWv7Gjh3rpkyZYrdlHkPjDdVTJKHpk26999XQeEP1SJ8IVAv8qpnIJ5RLqJ7CLFv9YHqgch2BAAQgAAEIQAACEIAABCAAAQhAAAIQaCoCpTBasXtgU5U5EgMBCEAAAhCAAAQgAAEIjAAC7B44AjKJJEKgxQmUwmjF7oEtXop5PAhAAAIQgAAEIAABCECgcALsHlg4UgKEAAT6SaAURqt+MkEdAhCAAAQgAAEIQAACEIAABCAAAQhAoMEESmG00q4XCAQgAAEIQAACEIAABCAAAQiEExg/fny4MpoQgAAEhoBAKYxWm2+++RCgI0gIQAACEIAABCAAAQhAAAKtS2DixImt+3A8GQQgMCIIlMJoNSJygkRCAAIQgAAEIAABCEAAAhCAAAQgAAEIxAQ6urq64hPf0dnZ6Z/WdLe3t7u8cOzG0PCK1lP8t99+e1Onr9n5kT4rxZVjaDnVHfCrcDNXCL+2tjZTp/7GJPocIfzsFsqfkagc4Vdh4btCuYTqKewiy5+ltaj+RtHpC+USqkf6LMeTR/gledhZKJdQPYVbZP0NjTdEj/6B5Xr1MYSf3RWavzNmzBj2fpjSGJo+e55ax1AuoXqkL5s2/AbHBX75/Eox0uquu+7KJoAvBCAAAQhAAAIQgAAEIAABCGQSmD17dqY/nhCAAASGi0BHd3d3zbjqXdfNPT09LkRPuo3QI30iny0h+QG/bHbyhV82mxAu9fj5X1KLCM9PaZHhUT98skl3CGf4JZn5Z/DzaVTcIVykHaJH+atwTbvglybSdx7CRZohepS/bMb1+NE/yOdmVyh/RiJ5DOGiO0L0qL9Jtv4Z/HwaFXcIF2mH6JWt/JVipBW7B1YqCy4IQAACEIAABCAAAQhAAAIhBNg9MIQSOhCAwFASKIXRit0Dh7IIETYEIAABCEAAAhCAAAQg0IoE2D2wFXOVZ4LAyCJQCqPVyMoSUgsBCEAAAhCAAAQgAAEIQAACEIAABCBQCqPVbbfdRk5DAAIQgAAEIAABCEAAAhCAQD8IXHvttf3QRhUCEIBA8QRKYbSaM2dO8eQIEQIQgAAEIAABCEAAAhCAQAsTmDVrVgs/HY8GAQiMBAKlMFqNhIwgjRCAAAQgAAEIQAACEIAABCAAAQhAAAIVAqUwWrF7YCXDcUEAAhCAAAQgAAEIQAACEAghwO6BIZTQgQAEhpJAR1dXV2b4nZ2dmf5Znu3t7S4vHNMPDa9oPcWv3QOnTZtmSck8Fh1vaHhKTLPzI33VRYb8rWYin1AuIXptbW1xJM3cvlA/4myKHSH5a8rwMxKVI/wqLLJcRbUHCpvyV02Y8lfNRD6hXEL1FCblTxSSEsKP/kGSmX8Wws/0Q8ufdg+cOXOm3ZZ5DI03VE+RhKYvM0Epz9B4Q/VIXwrwO6fwGxwX+OXzK8VIq+zHxxcCEIAABCAAAQhAAAIQgAAEIAABCECgWQl0dHd310xbveu6uaenx4XoSbcReto9sBHxhj5vs/MjfcrJbAkpV/DLZiffWvz8L6m19PzQG6FH/vo5kHSH5Af8ksz8M/j5NCruEC7SDtGj/FW4pl3wSxPpOw/hIs0QPcpfNuN6/Ogf5HOzK0WWP+0eGBJevXyztIXqUT98Ykl3SH7AL8nMP4OfT6PiDuEi7RC9ostfKUZasXtgpTDiggAEIAABCEAAAhCAAAQgEEKA3QNDKKEDAQgMJYFSGK2GEiBhQwACEIAABCAAAQhAAAIQgAAEIAABCBRPoBRGK3YPLL7gECIEIAABCEAAAhCAAAQg0NoE2D2wtfOXp4PASCBQCqOVdg9EIAABCEAAAhCAAAQgAAEIQCCcgHYPRCAAAQg0kkApjFaNBEzcEIAABCAAAQhAAAIQgAAEIAABCEAAAv0nUAqjlXYPRCAAAQhAAAIQgAAEIAABCEAgnIB2D0QgAAEINJJAKYxW7B7YyCJG3BCAAAQgAAEIQAACEIDASCTA7oEjMddIMwRai0BHV1dX5hN1dnZm+md5tre3u7xwTD80vKL1FD/ps1yoHEM5w6/CzHfBz6dRcYdyCdFra2uLA6Z9iVFEjhB+dgftn5GoHOFXYeG7QrmE6insIsufpbWo9qDo9IVyCdUjfZbjySP8kjzsLJRLqJ7CLbL+hsYbokf/wHK9+hjCz+5q1vwlfUag+kj+VjORTyiXUD2FSf0QhaQ0kl8pRlqxe2CywHEGAQhAAAIQgAAEIAABCECgHoFx48bVU+E6BCAAgSEl0NHd3V0zgnrXdXNPT48L0ZNuI/TGjh3rpkyZoujrSiPS1+z8SF9+sQkpL/AbOL+NN97YjRkzpiHthlJN/mbnXQgX+GWzC+USqlem9sV2Aqb8ZZetIrlQ/rIZh3IJ1StT/TWiRZVT+gdGNPsYwjm0/E2YMMFNnz49O6KUb0i8uiVELzR9oeEVrUf6RDRbyN+Bc9Gd8KvmV4qRVtWPjQ8EIAABCEAAAhCAAAQgAAEIQAACEIBAMxMohdGK3QObuQiSNghAAAIQgAAEIAABCECgGQmwe2Az5gppgkC5CJTCaMXugeUq1DwtBCAAAQhAAAIQgAAEIDB4AuweOHiGhAABCAyOQCmMVoNDxN0QgAAEIAABCEAAAhCAAAQgAAEIQAACw02gY7gjbER82j1w7ty5jYiaOCEAAQgkCCyxxBJuvfXWi/zuvfde9/LLLyeu1zr57Gc/60aNGuX+9Kc/uf/85z+1VLkGAQhAAAIQgEA/CIwePdptttlm0R033HCDe+211/pxd3Oqrr322m7ppZd2zz33nPvzn/88oESOHz/eXX/99TXvVd9m3XXXdW+++abrb9+mZsBchAAEINBLoBRGK+04dMUVV5DhEIAABBpOQJ2/I488MkrHMccc42666abgNB199NGR7pVXXulOP/304PtQhAAEIAABCECgNoENNtgg/n3+5z//6R588MHaN4yAq+orvOtd73LPP/e8+9TETw0oxRMnToyNVu3t7U5/2jlPfybjxo1zhx12WHTa376NhcERAhCAQB6BUhit8h4efwhAAAIQgAAEIAABCEAAAhCoT2D27NluoYUWco899pjbaaed6t+ABgQgAIECCJTCaMXugQWUFIKAAAQKIfDwww+7P/7xj1FYjzzySCFhEggEIAABCEAAAhBIE9Bo7lVWWcVp5NhAxd89sK2tLQpGo618Ud/mvvvui0Zf0bfxyeCGAASKINDWO1VlQVZA1hj5Qz+z9OSnOeAvvfRS3uXIPzS8ovVIX3a2hHKGH/xEILS8FK1H+UuWv1//+teRhzqhF1xwQWJoflKzckb7XGFhrtByKn34GbXKEX4VFr4rlEuonsKm/PmE+9zwq2Yin1AuoXoKs2zlT+tZffWrX9Wju2OPPdb97W9/i9z+f2Xnd9lll7muri731FNPxazEJ5RLqJ7CLFv50zPXe++GnyhVSyiXUD3FQPkbOOeh4NeRt0C5GiRJd3d3dKz135gxY+oudB4aXtF6Sjfpq869UM7wq2Ynn0bz04KXO+64Y5S4X/7yl66zs9N9/etfd+973/ucOhQ33nhjdE31d9FFF3Wf/OQn3YYbbuhWWmmlaEj3Lbfc4u64445owcys+rHwwgu7L3/5y27NNdd0yy+/fLSA59///nc3bdo0p2OW6IdAQ8U/+tGPRl/19MOrL3tavPP2229P3CJ+n/vc59ySSy7pHn300Ti9vpIWK99oo43c4osv7k477bT40jbbbBOFr3ToOT7zmc84LVDe0dHh9tprr1hP57vssovTGhV6xjfeeMM98cQT7qKLLspdp8JYbbzxxm7FFVeM0uazigP3HFn8vMuR0y8vyy23nNtiiy0i/5tvvtk9//zzsbr09KfnHjt2rFtmmWWiBU1nzJjhnn766VhPi7c/+eSTtM8xkT6Hzzl1KXEaqqeb+pu/iYhSJ4p3woQJUdnyy++nP/3pKN/33nvv6A5Ln+qz1gnRQroLFixwd911l5s5c2ZiEf50+r7whS9ECwmr/M6fP9/94x//cHfeeae79dZbc8uLXtS23HJLt9Zaa/XWo87e3/N/uzlz5rjLL7889QTOrbrqqk7rm0imTJmSKL+mvO+++0YbBiiMF154IeofqCzntVmK57rrrovTp3Zn++23j55bbdF///tfd/fdd0dt21tvvRXrWXw66h5jpbZI+lpIud6GBWl+fpjmtvz41Kc+5d7znvdE7YfaT7Ut4vbhD3844qDFh/UcSm+WaDFk5fEHP/jBqO373//+F9VjcUwvkKxn2GeffaIFlK+55hr3l7/8xWlTGbWb7373u53aBMWlhaKVPrUZH//4x6M81DOL/W9/+9vEC5A9R73fBRtJQf8vmYvGb9ddd42mR83unSb1r3/9y33lK1+Jfl8feughd/LJJyf6B2rr9XvygQ98wCm/f/e730V1WG5JVvlL12GNWtFvqH4v8kR1WL/zikebdVgZyKrDKicqsyo7+j1Mi37zVf8kKkf2nqB2aNNNN402D1G/Q2Gorq+wwgrum9/8ZtS3sLC23nrrqD6+//3v7zVmjHLz5j0Z9QX0wSWvXBkr1Q/9xum3V+2dsbKw/WMWP/+63JZvfryqi4pPdUpt6+9//3unWRlarNxk3rx58bObn/oIav/Uz9Fza4pcrT6C0vfMM88k+lPPPvus06gk1Wv9DmSlrz/9lz333DNRHg888EC3/vrrR22KyqPaxWWXXTYyMul3QLLGGmtEz6C+pD6AqU3ZdtttI121sRox9atf/Spq1yx9YvWhD30oKl8KQ+tkqU1Uv2r69OlR//ITn/iE0/3pvo30FZf6iEqb2Gmwg4yCikcc07LddttFbaXyJau9VRuveF9//fXoVj9/02Hp3J6jKD2FOdDyp3vTQvrSRPrOi+YSGp5iJ3+r86SR/Np6f1AyR1o1MlFCVGSj8sUvfrHuQuyhz1u0np6VSiEKSQnlrLvKyE8dx5NOOimC9v3vf98dfvjhkdFGHv4i3f/3f//nzj77nF7D1SKRrv+f6pgMU6+++mqiY6bO7w9+8IPIEObrm1sdnPPPP99Oo6M6ufKXQSZLtNvdoYceGnc+lb/q1GhdBBljZHRKyymnnBK9hMlfnX4TdVLUAVMnRx1zbbQgWdCzwH1sk49F7ve+971RemQUyxIZ9fQV1Rd1wOux+utf/+rfErn7W/700pm3ELvC+vnPfx4Z6tIR6bnVqZRYHtdrJ6Xb3/TpnjwJrZeheoqnbOm76qqrImNkrfIrQ83xxx8fGUSy8kIvSVaGjJ9ewmT80JfBLPnDH/7gDjrooOiFwq7rxUgGYb2MZIkW7v3aQV+LDF92fY899nAHHHBAdCpDuV4mfJGxRUYyier4eeedF7UvekHMa7Ouvvpqd+qpp0a/+wcffHBkbPbDNLfK++677x4Zk81P8X33u991W221lXkljj6rxIV3Toxf1jXzs/IsI5Fe1GRA0suttT2mp+Mrr7wSGedefPFF3zt6Jj1bnsjAP2nSpNjIpJdjpV2ioz46yIDvi9q8/b68n9ttt92il03/mtx6IZQh377c23PU+11Q/uqlmvYlSdT42ZITaoe3+MQWbul3Lx0pPv74E715v0P0cqx6+KMf/Shq35Kh9P1WnXLqKW7q1KmJ9q9eHb7nnnucypCMAiYDqcMXXnhhZNxUGP5vq4UpQ8S3vvWt6PSHP/xhbLz+3ve+52SMevvtt538v/GNb9gt7mtf+1pkVFfbdc4550QG5/ii55Ah6POf/3ziGfQ7rT6F6mJaVMaNVfqazvtTf608y2inPo6Me74ortm/mx3XJRnk/IXYB9JHkKFe7aQ+LGaJ+k0XX3xxdMnS19/+iz5mSPLKo9rh9ELsxx13nNPHEsnPfvazyEAenXj/aRdAGSNluNQGMjvvvHNkRPJUIqfaOn2MkbE1byF2lTO18VaH/DDEfeqVU6PfImurdN3SXa+9lRFZH0eMnx+277a4i9JT2AMpf36afDfp82lU3EVzCQ1PKSB/K/lgrkbya7dEtPIxq2PZys/Ls5WLwFFHHhUbrPTk6lBKNFLpgvMviA1W+qqlL7avvTY/uq6G5+cX/jz62hZ59P6nL2F6sbQOlkYMqEPkr0+gjpx1dnSfXq5+85vfxAYrhS8jlV7KLS0f+chHqgxdFudAjxrx4dftt3v6nlvp0Zc7M1ip46Wvmfa1WPHpi7S+4pnoy1+alUaApVnJWDhUovTq67W9mIqdvtDKqCgxg9VQxU+4w0sgr/wqFXqp1AgeicqByq7Kgjr3En0514hKX37605/GBiuVGY360cgPlX+JRgXpRc2XSy+9NDZYSU+jRmTo0KhEiV7GlRbVqSIlr82S8V2jI01kNNMLi6VHbZaMYDJUmegZzGAVysruHehRo7qs7VEbKcO75Y3qb9qov9pqq7mDvnZQHJ3aFhkRda/dp1F12nErS5TfClfGCk3JsZeutva2yDiv6xIZzPRnohErGq3lS8jvwvk/Pd9tsskm/m24MwjssMMOscFKl996q6+uqb7IgGBGGOWXfkNtGQ3lm8q6DD2+1KvDMlyG1GG/zgxFHZax57BD+3aJs/RbO6P6qBFZEpVtfViSQdb6AhphY8Zr6YiVRhz5rFQ/6rHSvQMRGaz0QcwMVsob1SmlX/lidSkddlYfIas/5fcR1J865JBDqvpTamdN1J+SkdBkIP0XuzevPNr1vKO1EWKh3xoziqofKFYyoml0mX4b9DtkYn0U+dcStTlnnXVWbLBSu6eRXPabJu4yZOYZ9eu1t+eee26t6LkGAQi0CIFSLMTeInnFY0Agk4B+8PWVSV/O9KKqDode7nSuaxL/a6nO999//2iaiq6r06TRHxIZRvTlVnLFFVfE0/IUnoaTX/TOVAINR7eFOfW1Vdcl6oioI24vVeq0KWy9cOklXaOMLK7ohgL+k8FMRirrTOnLoBnd1FnWKAQTGas0KkOy++57OI3wkMjPZ2Vp1HP4rI444oiEsSu6uaD/xNFPtzqSNuxdvCdPnlxQTATTTARUfi+55JJ4+qcMMKprEpVpjWyyKaQaiaF1zVSfZOTQCClNE9VXdL1YSGQs9nd0WmyxxaJpYrrHf6HSy9vqq68e3aMv5fpKbuVN5d5GY6hun3jiidEorUi5gP/SbZaMUBqZYlOSFIWmXKk9kahNUp3USE7prbvuulFbJ1biIPFZKc1LLbVUbAQ2VhoxUJToJVdt7KxZs6IgZZiSIVEvw3oBV122F3nVbWtf1D7ac4nzOuus42SskMgokSdqy/bbb79oSpdGqKr9Vb6baBSMXv4lekn8yU9+Erk1jck3ooX+LmhkrKayIbUJKI81WlGjQjSlTaLfCftN1KgsGahsBImMx3qBVznZdZdd49/RWnVYZVntRL06rBEnSoP9/g51HdbHKRnRHn/88WiKnQw+ZnySoVn9CZvap7qr5QX03GM3HRsZnsXk6KOPrmJlfRB97PJZyWBtBuzauZJ/VXljopFumj4nUZyKS/UlS/w+gvTUDhvnvD5CXn9K4auN10cqyZe+9KVo6qTcA+m/6D4TlcczzzwzmlZpvxt2rdbxxz/+cdy/k56e0Ubh6dk1slS/AxKVaZVvTQvU70Y9+c53vhOraBSeTVm19u+8n5wXtY9f/MIXo2sKNy212lv99qm9tfxI38s5BCDQGgQqnytb43kyn8KGcmdexBMCI5yAfqg1akjz++0Lmb7caQ0ZiV6qrJNgj6rOn30dk57WupJo/QkTTQ/xRV8H1THXS7KNWlJH4VPb9H0lVGcy/eVYHVZ/nSlN7SlS9LKvL4FmsFJ6thq/VRSFuOglz5fZvWuQ6CufZIUV3hN1nDVqLJSV1rMxVn64g3Xr66p94VXnTIYKMyAo7It6jYUySCKtRcDKr79emU250Vds1R3/xUNuGZlN7Au5vkSbaGSDLxp1pZdX1dt5856KRynZNA7pKkx7ubR75WcvARtvVJmea9cHc8xqszR10UY/qL0yw47iUbt2+umnx1FqipKkFisZ8rNYxYEM0uEbrBSURof4babaChMZDm1Ugk3lsWsPPPBA9NFB59LLEt0ro7XWIJKorfXXwNIUTa3fZSJ2NuJKHwtM+vO7oCnfQ9HWWVpa5agp9jKomsFKI2bHbTEuejz91qiemcFKnhphZ9PBZMi0UctF1GFLg7EdyjpsRlT1C7QmlESjikw0xdRvU/QbbUZQPbcMz2I1fsvx0S0hrLTUx2BERnv7rdfoazNYKUy1MZrGZ6Or/XjSfQTbEMV0/P6U30cI7U+ZkWYg/RdLgx1VHvUxzuq/+dc6Kg/Vx/BFeWmjvGVgs3VSfZ0Qt5jbshFqszQSzxe1fxf87ILIS+VCfZ8syWpvrQ8rfYsj6178IACB1iBQCqNVkV9XWyPbeYpWIqCFztNfH/01arRmQpbYeim6ZlOR1IEwOeboY6Jh/FrHwURfRTVaSl/hJeqU2QgCLbCaJTJwyRAj0WKfRYmmHujroC9+ehSvveT5OloL6Oyzz47+5O+PPukPKz/Mwbr1Rdle2PXyacZHP1yGwPs0Rr47q/xqxJFNa9WIKTOw+k8r44jVdy26LPmrt9aapq1pXTTVaRuxoJcsjb7Sejv2Am11UVNj0oYuhSk9M06rjsuIUZRktVn+C56NgPTjk/FdIwi0TpDWlvJZ6aUrlJUf5kDdMrrZCCs/DN9oZfmo63oRUzujTSNMlDd6GdSL8pKjs9feM91///vfCQOA/GU0MElvdCF/LcIv8Q1hA/1diALivyoCMgRrKp4vGuVmv4k2Gtm/LrcWyDfRyCtJSB3Wb2+z1GHfiGzPopGgEv3e+0ZVu37GGWdE9Ve/vzLU9JeVRocORrQuk4nSkBYZ36677tq094D7CKH9KY3Ekwyk/+InNqs8+tfz3Day3L+uPsgf//jH2CvrNyK+WMOhDSJM/BGf5qejGTPlttG/cpvktbd+ndFoRAQCEGhtAn3zgFr7GXk6CLQ0Af+H2x50lVVWMWf8VTf2eMfRMapS/bXOhEQvk/o6q4XO1fHeYostoj996deLoV4W9UJpxiDtJGNSaySQdsvRbmaa1mIv0nbfQI+vvPpK/AJuYdhLvM79r3B2XUe9WPqLq/ojEewLuK8vdxartM5gzv10Z+WnwtYucEjrEMgqv5piZiKDRpYxQtf1RV7S1dk3LVcjGtTx185NEo3a0FQOGcbmPTUvms6h6UVmhNJUJKuHtcqV1sSy6Xdap8YfERZFNMD/ssq4GdGUZhnmskTPINFLjPiYaGHxUFZ2z2CO1v6lw7B1eNL+OhdzGftlpJBBy/IwSzftJ8NiWnzDtoxaITLQ34WQsMuoY/XJf3Z/xNTuk3Z3mrJXS2zjhFp1+Kmnn4p2/9R0MisLja7DaWOdRgtbm+LvwOc/u0Y/aiq/6q9E6xiZhLAarGHCL/9ZRjWlxTcGW9oG2kdQf0rTnJXudH9K8ei6+lNWl/1+QGj/xdKoY1Z59K/nubPaY+mq/TdDodJ2//335wWR6+8boXwjmH+DfoPU7ouR9UX96wNpb/37cUMAAq1BoBQjrfyvi62RbTwFBCoEbBRTxSc5okkvR1l/9jVY98mYJNEIDg3Bl3HKOpby1yggvRhqoUxNEbTRSX4nUF/58iS9k1aenu9va4L4fr7bRoz4fv5Lf16n1NeX216W5c7iJL8sVtIvSlZeeeU4KH86WOzZ67DRNb4f7pFLIKv8moHIniqvPNp1/6iv9RqF5E/JUbmVsVijrDTayha69eutTa31wzK3b6RSWkJEu4fVk6w2Sy+9kixjXlZ4g2GVFV5//PpbFzXCSiMoNT1PHwR8lsovfRSoJXrZryX20ltLR9eaoa2rl8aRdD2rHNuaTnoO1b96ddgMPdLPq8N6kVcdloFjOOrwIossouTUFL9/IEXfsKNRoiHSX1Z+vQkJP63jl/88Q0jW769/X15+ZvUR1E5oyYSs/pSMQNafsk0PBtJ/8Z8xqzz61/Pc/ghRX0c7PZpoOudAxEboyihVK31vvrOJgV8fLL7+trd2H0cIQKC1CHTkvRj258dBw/TzwjFcoeEVraf4NV1CC0DWkqLjDQ1PaWp2fqSvuuQ0On/9H3a50/VPX/xtespXv/rVqhFJ/hNpLQB9AbMw9AKkURr60+5T2sr4Yx/bxK3U+/KrjpkMWNq6WGsw+VNyZHjROhFZYp0+dVpUntL8LG7/Xku//PzrbW1tsZr5W3h+h1Nfou263WB6dq6jWNkXXGNlfLNeBjVM3g+3v/XDwlbclncaiWai/PDDN38tam+SxdCupY/9TV/6fv88i59/3dyhetIvc/rS+WyjKMRFX7+1aG0tUWfe56dRDPrTuiradGCzzTaLppxYmdPOfL///e8T0wH98pbON1vcXWnQ6Cel16axyk/66Wfwv5QrbZY+S4Pus3Ivt0ThqG1Q2KN6R4Cmw+zTqoww07nPSqM+/OmzFpdff8UqK1xLn8WRdUxzkU5WWFlsVG+P/ubRseFbI1Y1tVBrW8mtNGoNLxkX29oqfSk/zjQvxe/HpbT4+rqe1U6G/i4YP8tzhZcnA+WXFV76GbJ05BeqJ92hTJ/yIF0O/LZcdTFvBKDSJtGz+GEMpg5nccmqw1lloy81ff/76wP5/OQ2UZrtXPH6H6ZkgPafye5Jpy+PlZU/v/4qDI3gSofrp8/iSR8tXpV/1TOJ+hdpw5X0fEOazhVfuo9gz51On8Xr9xFk3Ev3p7TA+corrRz3p076wUluq623SqxfGNp/sTh1tPJoz+tfk1v9N+NnjOWvvputq6VzE//jhkZM2b12XeXI9/PbJGuz7COK4la5ELOs9HV29H0UycpjxefHY/H78Vle2bWsY1a8g9HTvf0pf1lx+X6kz6dRcRfNJTQ8pYD8reSDuRrJrzI/yFLDEQIQGPEE1GmyDofWNsn6kqbOrBZwV+fIRiVpJxh9GdPQdI2o0lF/GsGhDoc61NJXZ0FTA/0h7FqfImudFzVwyy27XMQ0a3FQG+WVhj5mTGWKY/pa3rk/zH2ttdbKVNPiq0qr1q/QGhcaUm9fiY2VNcr2ZdBYKUCbopQZ+AA9/fxR2rRdelpq7SyW1uV8ZBLwp+pptIN258oSq6eq5/fcc48bO3ZsVKb1gqDF3WXQ0VF/erGQ8Uvrpkm26J3yq7WhbDpGesSSH5+2eTexqSe26LL8tZtZWmzUQNq/3rkMznqhXHTRRaK2Jv1CqUXBf/GLX7hR7aPc9GunRzuiWphpVn799Vn59czuHerjlr1ri9koDG0K4+8OZi+9Gn01HBL6u7DDDjtEyak1enY40jsS4/B/g/TCk1WH9UKvBbN13aaj1arDemHXGlJF1WF/lKfSYuXQeA9kVI0MUNam+IYyC1NHTQec/JXJrmdBjzvqqKMS63j5rPz667O68847M40rfhy13GrDbEkDGY78dT3tPmNs5zqm+wiPPPJIdNn6BzrJ6iOo7VH7qjba709JX/0p9SXUn1L7oHT5ZSe0/+LnpcIdiKidzzJa+SzqjfbMi1esLBzFow2D0qLZMNZGqo1CIAABCGQR6EgP8U0r1bsufTWaIXrSbYSeOoqNiDf0eZudH+lTTmZLSLkaCn5+J1PudDq0vpRGWUi0HfOBBx5Y9QDf//73Y2ONtkdXGDvvvHO0C4vcGtLui742aorR3nvvHXnL2KS1oayjqh29ZBBKP6/W9LAOiUZ5WFr1kqpRGaOXGB37WXzq7Onl1cTu0bn/0uz765oWPrX06CVAafFZaQSKLXz7/HPPRzv0aTcnW7chzcrC91ld1rutvfkrzvTzyi9PdJ+fHss7f6c0pVvP6HeIFd6+++4XB6s4dd1PR3wx5ehv+lK3Z56GxKsbQ/TKmD6Dmuajc+3YpMWzZUjVCEB/ip7u0wul7dKpcqMROxr1qBGREu3yZAamyKP3v5NOOsmp3Er0Aqx4nnv+uWgnLdVBvXBp1I+Jrit+m9ohI5gZkfy1bNZZZx3nLzatl01/9yflreVvVrm3+HRUW2KjILTLqLZc90W7sOkFVqJnVnqMlabVZLHS+kI+q/SuXwrL0id3fySdd7rXn+Zn9dM3SGnkkn+f3JpqbS/pC3pf5u26PavCtXZCbhM/Ll23+Ox6VjvZ398FGT0tPRZu+tgffvXCsrCL1BuK9Fk6lQfptOr3xES7zv3whz+00/ioEb22E552U1MYRdRhe+G3NOXVYa2BZhusqI74aVZdWnedylQwn5/cJorDr9Pyf+bZZ6I2Q3VRxhq/rdB1tQ3qC/SOp4zqsK3npWtZrBSHz0rtkAxXvvjp8/2z3LrX2kn1Y/wdN6Wvqc36/TWxOpXuI9guicZZ+ll9BOtPbbXVVlX9Kd2b7k8pnv72XyytOqbLo58+XVfY5ufnnYyJU6dOlUosGom2wUf7NgnQx0bNVrF7TUltjO+XbpN0TW319ttvH92i3Zz9kYd2r/+boSmw5m/x6Jjl58dneeXfk+fOCitLN0SvP+UvJDylo0g90peVs31+IZzh11z8KmN989M14q+we+CIz0IeoJ8E9AXPhmVrhI5vtNLLkKb3qUMrUUfQXoxtxJVebI899th4+L/0NNLBXzhVUwr14jhz1kxdjl6GNRLL361KHfGv7P+V6Lo6GNo9yMRGaakTq6k9+uKoqTSawnToIX27E5pu6PH1119310y/JlLXi6A6hTbNUEeNMDG5ZfYtkVM6oaxkDDBWFk4RR8VvX32Vbo20snTrC7Tya+WVVyoiKsJocgK+sUYvtKp3JjK4+rte2W5M+jBjcsopp0T1yM5Vr7RjpokMx5LTTjvNvNxFF10UTSM0D8Upg4WJr+svprvttts6jVhQGZUBS+H401jt/pCj2gZ7Cdl1l12jXUoVrkQvPWZslo7VlVqsPvrRj2ayCklLkTr+pg8awWSGQLWTe+65p/vhaRWjhhmviozfD6s/vwsygAxFW+enpxXdYqYXdYlGIv7sZz+LjZLy0wv6Fz7/BTkjo48ZTmrVYYUTUof9UZO16rA/2uWEE06IPh6pX6BRgdpB1z4yRYnsx38/+MEPYu3zzjsvHtWkevy9730v7hvod1S/1WJl/fMQVlkjkOMIAxxa+FwfqyTq/+h31YzD+r3VQvf+lDMLMt1HOOCAA+xSdL/fn/L7CLX6U/pQ4PenZFAeSP8lTsggHJr6J6Obtd1Km9oKKwdqb/1R9PayrzJm7Vle9LrPpoFquYnvfve78dRllQut42YGVK2veMcdd+QFhT8EIFByAkwPLHkB4PFbk4C+gH3rW99yp516WtTxmDRpkvvSbl9y3W92RzuOWWdEX9ukZ6IRGdqBTB03vZBus8020VoV6sz4awpMnz49/sqqTq/WjdPIK42UmDFjRrRouMKwDqHCv/DCC93LL79sUUVfHmXUkuiFVMPnfbEvjr5fiFsv2ApXL+tKj14K9BXOfyHUWlzqaEr0JeXoo492Z515Vl1W/+///b+QJAxIR505feUVZ60ponSrc6i1HpRfelnP6lAPKDJualoC+qItw61eqjQSQS9qKgea5ueXYZUPGZC0BstNN90UjShSudF9N95wo3vpfy9F9c+fwicD9ezZs6Nn18uE1qDTBgsqc5p6p3oi8eOR0eXWW2+N/PWf2gwZNPRio/LoG450faD1Vl/z9aKrF0KVd72kH3H4EdFUIr/cq42yUQJipQWq9dIVwkrpG27RS5iNCFNe/Pa3v43aR39atF1XPsh4ccQRRwxop656z9af34WDDjqoXnBczyGg31SNGFF+6oVco0u0ppp+D/2yrA9Dtsh0EXX45z//eVSHlc+K2yRdh2VUs99EGWvSa74O9LdGZV3GF00DU/wyYquuakqv9TkUti0mr/Qdc8wxUV8ghJWMOoOVY4871p1z9jlRetRvkRFfeWD1Uen1+y2KL91HUPu88047Z/an/D6C2qpxW4yL4qrVn5Ixzdq0/vZfBsvD7tdSCfpLP79+M/QhxBftKqiPFSrLas9kCPzUxE/5Kgn3cccd53507o8iDlprceuttnbze/Nykd6RbX65OP744xP3cQIBCEDAJ1CKkVbsHuhnOe5WIKBOlIk6gVmidRT22HOP2FCkzoE6ZtZJePzxJ9xee+0VLW5q92sxVU3DsS9p6rwts8wycQdYL6R6WZahykSjrdQh86cXKR7r+KkTpPUr9AXXF31h1ddXhZkWDeO/5NLKSA//ujrkEjv61+RWx1bp8acm+C/hWmNERjyfob48h7CqtdNaOh1553681lGVrl5c9eXVH92gjrzyS3qaumj54oeRFw/+zUnA8i6v/CrVmh7nT7tTObAyrLKgqRx6EfBFa+RY+VSZ0cuob7DSek6q775o1IcM0CaKw+KR3xVXXNE7LXVfuxwfNbUma70jleFDDj0ks5zacyuQvDbr4osvjtoKqxd6DnvJ14ulDM16wfNlt912i16czC+Elen292h5lpd+39909SyTJ092/np+9oKs+qx81IuutYNK/9JLL51on/xwLc2+n/Gyazpa/Ha0ayG/CypLNjrC7uNYTSDN1jSU1xod6K+hpjy3sqzr+kjhj17RvfXqsEYnh9RhlSGTrDqserrPPvvEBjPT1VEjhdQHMPHrbVY5Mz07qqwrThP1A6zPod82jfr210/ShyxNDewvKwu/v0dNwdvvy/vFbZTut/qo/o/Sb+Ln70D6CArvpJNPiuPK609poXaTgfRf7F4/veano/m/3ZPdV9ToXWtPrN+m+7Temsqb7pdBy0QfIFWGTNpH9b1K5pUVGTLVv7I2UOVByz9YudBIc318kJ4vcbpz+riWZt3jx+2HgRsCEGgdAm3vf//7q98Ye5/PfvTsJanWI+tLr37oakloeEXrKU1qkDUvvpYUHW9oeEpTs/MjfdUlZyTlr4Zga90KGW81EkMvm/qab0amrPxVx0VrrWhRZb38aj0r6WvEhW9USZNZY4013EYbbRStZ6HRGOogyniU7lD4/JQ+DRvXF2nFo9Ej/q6EWelLx+uH51/TaCt9EdQwdqVHC51qd5q8ds1YacSTWOken5UftrkHkz4Lw472HOKoEW9aY0PM77///gRD08t7DgtPx6FIX714SZ+fAxV3KBfT02K9qrdanF8vCVoTyf8qn5W/qkea5qNpG3oBUr3VSAu9FOblm4wkqreaUqeXSL2gybhr61hVnqDP5adP9UsjMbWIvO5J1/WBlj+NAFN69GKiequv+/ZClfUcaqeMlQxcYnXNNdfEIxjSz2DnA02f3e8fjUtW+tS2bLHFFlE7p5e02b0j3h577LH4dn0c0HplulcjYWwEzlClz9q6rN+FWs8RJ/gdx1ClLx2Pfz6S0qcRifod7e1rR79rqov+FKgsfuk6rDWotH6d7s0T1WH9bmnRaxlL9DuaV4d9fkqfRkapPOh3RvXGl6z0+dfl9sOza6qrKs9aUFzrVyrtZujOqh+6z1ipP6A+gNLjs7Kw/eNg0qc2T/0cpU9T4MyYlpc+xStOYqx2T7sip/tTftrkVvqk4/enFJ8MQno29aey+One/vZfdI8kL7y+q33/y1guY6FEI9PV1iu/5BZ7tUG2G7TC0wgw/z1KHJS3uqbfGJW5evFam6P6oFHwmj4pI3qt98eB5m/fUyb/r5c+0w7Vkz7pM2qVI/wqLHxXKJdQPYVdtvLX4QPFDQEItB4BvUSqc2DrK4Q8ob6oylhi04JCG1EZefRXq9OXjl/pk2HLHxmV1hnouV7A/WmH9hx54Rkr66zlPYcWc7VdiPTCbmti5YVrX9jVEfQXIs3T10u6v5NQnh7+rU1ALwKabqu/UMmq6/XKvV6iFIeN/Mgr9+k0KH0aeTkUojpo9TAkfJ+VPW96ZIjqqm0kYWGG1F+9bNlmFXZff49qW8RXf5Y+Pwy9KPptlX9tKNzW1vXnd2Eo0tHqYdpvYn+eM12Hs8pLOjzVYdVF/YXWX4UxkPSl4846V93TRyv9mdR7DkuL6WU9hz7AaYqZSUj91e+vprnZZhS6V+mT0cg3ilm8FnbW0e+vZKUv6550fypLJ8uvv/2XrDD64ycjof5CRBxqGVGzwrA2x9r1UH5ZYeEHAQiUj0ApjFb+Apfly2KeGAIQKJrAnr0LKGsdnf6KdmYKMVr1N1z0IQCB+gRWXnnlaL2w+prVGpq6mDfyrFobHwhAYCgIyGClNaX6Kxqp6hut+nt/2fX96eplZ8HzQwACjSFQCqOV7U7SGMTECgEItBoBDZO37bo1zN2mPeQ9p60TpK+9CAQg0BgCWhNo1113TUQeUn811UmjHhAIQKCxBLRjqqb9moTUX/3+YnA2YgM72ijcgd3NXRCAAAQGT6AjbzisvWSFRKGh83nh2P2h4RWtp/hJn+VC5RjKGX4VZr4Lfj6NijuUS6ieQm7G+qvpgDYlUGvuhBqttGNTrbYylEuoXrPyq5SY5sxf0ucTqHaP5PKnKUi+hNbfkGcO0VHcoXrSbcb2T+kyIX1GonIkfyssfFcol1p6+g3163Bo/VU6av326nqteHXdJFRP+s1aP2x9QKVRz1OLTejzFq3XzPyUNkmz5m9f6kifcfCPoeVU95C/Prk+dyP5lWKklRYa1bbhCAQgAAEIQAACEIAABCAAgbIS0G7O2gxiqaWWcvPnz6+LQQu033jjjXX1UIAABCAwVAQ66i2EV++6EqbF9UL0pNsIPe2oMmXKFEVfVxqRvmbnR/ryi01IeYEf/IxASHmRbpF6lD+jX30M4Qy/am7mAz8jkTyGcNEdIXqUvyRb/wx+Po2KO4SLtEP0KH8VrmnXSOanHfv0p93HQp5Dm89Mnz49jSDzPCQ83RiiR/nLRBx5wi+bTQgX3RmiR/nLZtwofu35yeEKBCAAAQhAAAIQgAAEIAABCEAAAhCAAAQaQ6AURit2D2xM4SJWCEAAAhCAAAQgAAEIQGDkEmD3wJGbd6QcAq1CoBRGK3YPbJXiynNAAAIQgAAEIAABCEAAAsNFgN0Dh4s08UAAAnkESmG0ynt4/CEAAQhAAAIQgAAEIAABCEAAAhCAAASak0ApjFbaPRCBAAQgAAEIQAACEIAABCAAgXAC48ePD1dGEwIQgMAQECiF0WrzzTcfAnQECQEIQAACEIAABCAAAQhAoHUJTJw4sXUfjieDAARGBIFSGK1GRE6QSAhAAAIQgAAEIAABCEAAAhCAAAQgAIGYQEdXV1d84js6Ozv905ru9vZ2lxeO3RgaXtF6iv/2229v6vQ1Oz/SZ6W4cgwtp7oDfhVu5oKfkUgeQ7mE6il0yl+Ssc7gV82kP1zgBz8jQPtiJCpH6keFhe8K5RKqp7Apfz7hPvdQ8JsxY8awv0eRv9V5K5+hyN/smJK+ofGG6il06m+Ssc7gV83EuJRipNVdd92VTQBfCEAAAhCAAAQgAAEIQAACEMgkMHv27Ex/PCEAAQgMF4GO7u7umnHVu66be3p6XIiedBuhR/pEPltC8gN+2ezkC79sNiFc4JfNLpRLqB71d3Cc4Qc/I1Bku0b9NarVxyI5U3+r+ZpPCGf4Ga3qI/yqmcgnhEuoHuUvmzH8BscFfiOTXylGWrF7YH7h5AoEIAABCEAAAhCAAAQgAIEsAuwemEUFPwhAYDgJdAxnZI2KS7sHXnHFFY2KnnghUEoCV111lVtsscUyn33BggXuxRdfdP/85z/dWWed5Z5++umE3q9//Ws3evRod/PNN7spU6YkrtnJCius4H7605+6hRZaKPK67rrr3BlnnGGXOUIAAhCAAAQgAAEIDJKAdg+8/vrrBxkKt0MAAhAYOIFSGK0Gjoc7IQCBgRJYfvnl3ahRo3JvX3LJJd2qq67qxm853p1y6ilu6tSpsa4MUlqMcLXVVov9fIeuX3755bHB6rHHHosMWL4ObghAAAIQgAAEIAABCEAAAhAY2QRKYbS67bbbRnYukXoIjGACL730UjRiyh6hra3NrbLKKtHfMsss49ra29w3DvuGu+OOO9y8efNMLfeYNlg9/PDD7stf/nK0tl7uTVyAAAQgAAEIQAACEOg3gWuvvbbf93ADBCAAgSIJlMJoNWfOnCKZERYEINAPAnPnznUnn3xy4o6urq7o/KijjnIadi7D1aRJk6r0Ejf1nqQNVg899JDbd999XUdHKZqyNA7OIQABCEAAAhCAwJASmDVr1pCGT+AQgAAE6hEoxULs9SBwHQIQaAyBU045JY74gx/8YOzOcqQNVvfee6/be++9GWGVBQs/CEAAAhCAAAQgAAEIQAACLUCgFEYrdg9sgZLKI7Qkgddeey1+rlqjpdIGK42enDx5cnwvDghAAAIQgAAEIACB4gmwe2DxTAkRAhDoH4FSGK20eyACAQg0H4EJEybEifrXv/4Vu33Hcsstl1h0/Xe/+5076KCDfBXcEIAABCAAAQhAAAJDQEDLOCAQgAAEGkmgY8yYMZnxt7f32bN6enoyr/ue2po+LxzTCw2vaD2Lv5nT1+z8SJ+VosoxtJzqjrLya2/ra0OWWmpp5xuOxW699dZzG264oVtj9TViqLNnz47bES3WLnnPe97jTj/9dGdrYMlPC6+n63NofhStp/SUNX/17HkSyln3w6+aIvyqmcgnlEuonsKk/IlCUuCX5GFnoVxC9RQu5c/oVo7wq7DwXaFcQvUUdn/KX7rf5adN7tB4Q/UUZn/SV+99NTTeUD3SJwLVAr9qJvIJ5RKqpzDLVj86tEhylthLYnd3d9blhJ8asrxwTDE0vKL1FL92D2zm9DU7P9JnpbhyDC2nuqOs/HoW9LhRvf9WXnkld+poBt4bAABAAElEQVSpp1bgZbi0M41GUJksWLAgcq644ormFR/32WcfN336dPf000/HfqH5UbSeElDW/I3hZzhCOcMvA16vF/wGxwV+8DMCtM9GonKkflRY+K5QLqF6CrtVyp/6aMP9HtVK/PQs9d6nQ8tVqB78RKBa4FfNRD6hXEL1FGbR7V8ppgeye6CKDgKB5iLw9ttvu+efe96deOKJ7jvf+U7NxE2ZMsXdcccdkc6oUaPcT3/605r6XIQABCAAAQhAAAIQGDwBdg8cPENCgAAEBkeAfeIHx4+7IQCBOgQeeuihqkXTtej6m2++WffLk4KeOnVqNEWws7PT3XDDDW6xxRaLpg0efvjh7uSTT64TO5chAAEIQAACEIAABCAAAQhAYKQSKMVIK3YPHKnFk3S3AgGtM/DGG28k/mSwChEZvDTKSqJ7/AXYd9xxR7fuuuuGBIMOBCAAAQhAAAIQgMAACLB74ACgcQsEIFAogVIYrfxFoAulR2AQgMCQEpCxy5cHH3zQXXnllbHX6aef4RZeeOH4HAcEIAABCEAAAhCAQHEE2D2wOJaEBAEIDIxAKYxWA0PDXRCAQDMSOOWUU9yzzz4bJW3RRRdxZ5xxRjMmkzRBAAIQgAAEIAABCEAAAhCAwCAJlMJopd0DEQhAoDUIaLrhAQcc4Bb09O0wuN5667ntt9++NR6Op4AABCAAAQhAAAJNREC7ByIQgAAEGkmgFEYrdg9sZBEjbggUT0BbL//kvJ/EAR988MFuhRVWiM9xQAACEIAABCAAAQgMngC7Bw6eISFAAAKDI9DR1dWVGYJ26gqV9vZ2lxeOhREaXtF6ip/0WS5UjqGc4Vdh5rvg59OouPO4pNuHPL1KSH2utra23Pr7y1/+0m2zzTZutdVWc6NGjYqmCe60007pIBLnofGG6ilw2pcE4ugEftVM5BPKJVRPYVL+RCEp8EvysLNQLqF6CpfyZ3QrR/hVWPiuUC6hegqb8ucT7nPDr5qJfEK5hOopTMqfKCQFfkkedhbKJVRP4Zat/HUYzFY+avdAf/HmVn5Wng0CzUJgiy22GHBSttxyy/jeFVdcMXanHbvvvnvk1Z9GPh0G5xCAAAQgAAEIQAAC2QTGjRvnbrzxxuyL+EIAAhAYBgId3d3dNaOpd103a42ZED3pNkJv7NixbsqUKYq+rjQifc3Oj/TlF5uQ8gI/+BmBkPIi3SL1KH9Gv/oYwhl+1dzMB35GInkM4aI7QvQof0m2/hn8fBoVdwgXaYfoUf4qXNOuMvGbMGGCmz59ehpB5nkIF90Yokf5y0QcecIvm00IF90Zokf5y2bcKH6lWNMqHzlXIAABCEAAAhCAAAQgAAEIQAACEIAABJqRQCmMVuwe2IxFjzRBAAIQgAAEIAABCEAAAs1MgN0Dmzl3SBsEykGgFEYrdg8sR2HmKSEAAQhAAAIQgAAEIACB4giwe2BxLAkJAhAYGIFSGK0Ghoa7IAABCEAAAhCAAAQgAAEIQAACEIAABBpFoBRGK+0eiEAAAhCAAAQgAAEIQAACEIBAOIHx48eHK6MJAQhAYAgIlMJotfnmmw8BOoKEAAQgAAEIQAACEIAABCDQugQmTpzYug/Hk0EAAiOCQCmMViMiJ0gkBCAAAQhAAAIQgAAEIAABCEAAAhCAQEygo6urKz7xHZ2dnf5pTXd7e7vLC8duDA2vaD3Ff/vttzd1+pqdH+mzUlw5hpZT3QG/Cjdzwc9IJI+hXEL1FDrlL8lYZ/CrZtIfLvCDnxGgfTESlSP1o8LCd4VyCdVT2JQ/n3Cfeyj4zZgxY9jfo8jf6ryVz1Dkb3ZMSd/QeEP1FDr1N8lYZ/CrZmJcSjHS6q677somgC8EIAABCEAAAhCAAAQgAAEIZBKYPXt2pj+eEIAABIaLQEd3d3fNuOpd1809PT0uRE+6jdAjfSKfLSH5Ab9sdvKFXzabEC7wy2YXyiVUj/o7OM7wg58RKLJdo/4a1epjkZypv9V8zSeEM/yMVvURftVM5BPCJVSP8pfNGH6D4wK/kcmvFCOt2D0wv3ByBQIQgAAEIAABCEAAAhCAQBYBdg/MooIfBCAwnARKYbRi98DhLFLEBQEIQAACEIAABCAAAQi0AgF2D2yFXOQZIDCyCZTCaDWys4jUQwACEIAABCAAAQhAAAIQgAAEIACB8hEohdHqtttuK1/O8sQQgAAEIAABCEAAAhCAAAQGQeDaa68dxN3cCgEIQGDwBEphtJozZ87gSRECBCAAAQhAAAIQgAAEIACBEhGYNWtWiZ6WR4UABJqRQCmMVs0InjRBAAIQgAAEIAABCEAAAhCAAAQgAAEI5BMohdGK3QPzCwBXIAABCEAAAhCAAAQgAAEIZBFg98AsKvhBAALDSaCjq6srM77Ozs5M/yzP9vZ2lxeO6YeGV7Se4tfugdOmTbOkZB6Ljjc0PCWm2fmRvuoiQ/5WM5FPKJdQPYVJ+ROFpMAvycPOQrmE6ilcyp/RrRzhV2Hhu0K5hOopbMqfT7jPDb9qJvIJ5RKqpzApf6KQlDLy0+6BM2fOTIJInYVyCdVT8JS/FOTeU/hVM5FPKJdQPYVJ+ROFpDSSXylGWiVxcwYBCEAAAhCAAAQgAAEIQAACEIAABCDQ7AQ6uru7a6ax3nXd3NPT40L0pNsIPe0e2Ih4Q5+32fmRPuVktoSUK/hls5Mv/LLZhHCBXza7UC6hetTfwXGGH/yMQJHtGvXXqFYfi+RM/a3maz4hnFuFn3YPDHlesSlSr1X4Fc0lNDz4iVS2hJRT+GWzk28j+JVipBW7B+YXOq5AAAIQgAAEIAABCEAAAhDIIsDugVlU8IMABIaTQCmMVsMJlLggAAEIQAACEIAABCAAAQhAAAIQgAAEBk+gFEYrdg8cfEEhBAhAAAIQgAAEIAABCECgXATYPbBc+c3TQqAZCZTCaKXdAxEIQAACEIAABCAAAQhAAAIQCCeg3QMRCEAAAo0kUAqjVSMBEzcEIAABCEAAAhCAAAQgAAEIQAACEIBA/wmUwmil3QMRCEAAAhCAAAQgAAEIQAACEAgnoN0DEQhAAAKNJFAKoxW7BzayiBE3BCAAAQhAAAIQgAAEIDASCbB74EjMNdIMgdYiUAqjVWtlGU8DAQhAAAIQgAAEIAABCEAAAhCAAARan0Bb744QC7Ies729z57V09OTdTnhN3r0aPfSSy8l/NInoeEVrad0jBs3zt1yyy3pJCXOi443NDwlotn5kb5EUYlOyN9qJvIJ5RKqpzApf6KQFPgledhZKJdQPYVL+TO6lSP8Kix8VyiXUD2FTfnzCfe54VfNRD6hXEL1FCblTxSSUkZ+2oX9jjvuSIJInYVyCdVT8JS/FOTeU/hVM5FPKJdQPYVJ+ROFpDSSX8fcuXOTqXnnrKurK3J1d3dnXvc9x4wZ4/LCMb3Q8IrWU/wbbLCBu/jiiy0pmcei4w0NT4lpdn6kr7rIkL/VTOQTyiVUT2FS/kQhKfBL8rCzUC6hegqX8md0K0f4VVj4rlAuoXoKm/LnE+5zw6+aiXxCuYTqKUzKnygkpYz8xo4d66ZMmZIEkToL5RKqp+ApfynIvafwq2Yin1AuoXoKk/InCklpJD+mBybzgjMIQAACEIAABCAAAQhAAAIQgAAEIACBJiBQCqMVuwc2QUkjCRCAAAQgAAEIQAACEIDAiCLA7oEjKrtILARakkApjFbsHtiSZZeHggAEIAABCEAAAhCAAASGkAC7Bw4hXIKGAASCCJTCaBVEAiUIQAACEIAABCAAAQhAAAIQgAAEIACBpiFQCqOVdr1AIAABCEAAAhCAAAQgAAEIQCCcQO9O8+HKaEIAAhAYAgKlMFptvvnmQ4COICEAAQhAAAIQgAAEIAABCLQugYkTJ7buw/FkEIDAiCBQCqPViMgJEgkBCEAAAhCAAAQgAAEIQAACEIAABCAQE+jo6uqKT3xHZ2enf1rT3d7e7vLCsRtDwytaT/HffvvtTZ2+ZudH+qwUV46h5VR3wK/CzVzwMxLJYyiXUD2FTvlLMtYZ/KqZ9IcL/OBnBGhfjETlSP2osPBdoVxC9RQ25c8n3OceCn4zZswY9vco8rc6b+UzFPmbHVPSNzTeUD2FTv1NMtYZ/KqZGJdSjLS66667sgngCwEIQAACEIAABCAAAQhAAAKZBGbPnp3pjycEIACB4SLQ0d3dXTOuetd1c09PjwvRk24j9EifyGdLSH7AL5udfOGXzSaEC/yy2YVyCdWj/g6OM/zgZwSKbNeov0a1+lgkZ+pvNV/zCeEMP6NVfYRfNRP5hHAJ1aP8ZTOG3+C4wG9k8ivFSCt2D8wvnFyBAAQgAAEIQAACEIAABCCQRYDdA7Oo4AcBCAwngVIYrdg9cDiLFHFBAAIQgAAEIAABCEAAAq1AgN0DWyEXeQYIjGwCpTBajewsIvUQgAAEIAABCEAAAhCAAAQgAAEIQKB8BEphtLrtttvKl7M8MQQgAAEIQAACEIAABCAAgUEQuPbaawdxN7dCAAIQGDyBUhit5syZM3hShAABCEAAAhCAAAQgAAEIQKBEBGbNmlWip+VRIQCBZiRQCqNVM4InTRCAAAQgAAEIQAACEIAABCAAAQhAAAL5BEphtGL3wPwCwBUIQAACEIAABCAAAQhAAAJZBNg9MIsKfhCAwHAS6Ojq6sqMr7OzM9M/y7O9vd3lhWP6oeEVraf4tXvgtGnTLCmZx6LjDQ1PiWl2fqSvusiQv9VM5BPKJVRPYVL+RCEp8EvysLNQLqF6CpfyZ3QrR/hVWPiuUC6hegqb8ucT7nPDr5qJfEK5hOopTMqfKCSljPy0e+DMmTOTIFJnoVxC9RQ85S8FufcUftVM5BPKJVRPYVL+RCEpjeRXipFWSdycQQACEIAABCAAAQhAAAIQgAAEIAABCDQ7gY7u7u6aaax3XTf39PS4ED3pNkJPuwc2It7Q5212fqRPOZktIeUKftns5Au/bDYhXOCXzS6US6ge9XdwnOEHPyNQZLtG/TWq1cciOVN/q/maTwjnVuGn3QNDnldsitRrFX5FcwkND34ilS0h5RR+2ezk2wh+pRhpxe6B+YWOKxCAAAQgAAEIQAACEIAABLIIsHtgFhX8IACB4SRQCqPVcAIlLghAAAIQgAAEIAABCEAAAhCAAAQgAIHBEyiF0YrdAwdfUAgBAhCAAAQgAAEIQAACECgXAXYPLFd+87QQaEYCpTBaafdABAIQgAAEIAABCEAAAhCAAATCCWj3QAQCEIBAIwmUwmjVSMDEDQEIQAACEIAABCAAAQhAAAIQgAAEINB/AqUwWmn3QAQCEIAABCAAAQhAAAIQgAAEwglo90AEAhCAQCMJlMJoxe6BjSxixA0BCEAAAhCAAAQgAAEIjEQC7B44EnONNEOgtQh0dHV1ZT5RZ2dnpn+WZ3t7u8sLx/RDwytaT/GTPsuFyjGUM/wqzHwX/HwaFXcol1A9hUz9rfA1F/yMRPIYyiVUT6FT/pKMdQa/aib94QI/+BkB2hcjUTlSPyosfFcol1A9hU358wn3ueFXzUQ+oVxC9RQm5U8UkgK/JA87E5dSjLRi90DLco4QgAAEIAABCEAAAhCAAATCCIwbNy5MES0IQAACQ0Sgo7u7u2bQ9a7r5p6eHheiJ91G6I0dO9ZNmTJF0deVRqSv2fmRvvxiE1Je4Ac/IxBSXqRbpB7lz+hXH0M4w6+am/nAz0gkjyFcdEeIHuUvydY/g59Po+IO4SLtED3KX4Vr2lUmfhMmTHDTp09PI8g8D+GiG0P0KH+ZiCNP+GWzCeGiO0P0KH/ZjBvFrxQjrfKRcwUCEIAABCAAAQhAAAIQgAAEIAABCECgGQmUwmjF7oHNWPRIEwQgAAEIQAACEIAABCDQzATYPbCZc4e0QaAcBEphtGL3wHIUZp4SAhCAAAQgAAEIQAACECiOALsHFseSkCAAgYERKIXRamBouAsCEIAABCAAAQhAAAIQgAAEIAABCECgUQRKYbRi98BGFS/ihQAEIAABCEAAAhCAAARGKoHx48eP1KSTbghAoEUIlMJotfnmm7dIdvEYEIAABCAAAQhAAAIQgAAEhofAxIkThyciYoEABCCQQ6AURqucZ8cbAhCAAAQgAAEIQAACEIAABCAAAQhAoEkJlMJoxe6BTVr6SBYEIAABCEAAAhCAAAQg0LQE2D2wabOGhEGgNATaeucpL8h62vb2PntWT09P1uWE3+jRo91LL72U8EufhIZXtJ7SQfrSueFcKGf4VbOTD/wGxwV+8DMCtM9GonKkflRY+K5QLqF6Cpvy5xPuc8Ovmol8QrmE6ilMyp8oJAV+SR52FsolVE/hUv6MbuUIvwoL3xXKJVRPYVP+fMJ9bvhVM5GPuHTMnTs382pXV1fk393dnXnd9xwzZozLC8f0QsMrWk/xkz7LhcoxlDP8Ksx8F/x8GhV3KJdQPYVM/a3wNRf8jETyGMolVE+hU/6SjHUGv2om/eECP/gZAdoXI1E5Uj8qLHxXKJdQPYVN+fMJ97nhV81EPqFcQvUUJuVPFJICvyQPOxOXUkwPZPdAy3KOEIAABCAAAQhAAAIQgAAEwgiwe2AYJ7QgAIGhI1AKoxW7Bw5dASJkCEAAAhCAAAQgAAEIQKA1CbB7YGvmK08FgZFEoBRGq5GUIaQVAhCAAAQgAAEIQAACEIAABCAAAQhAoHddqzJAYPfAMuQyzwgBCEAAAhCAAAQgAAEIFEmA3QOLpElYEIDAQAiUwmg1Z86cgbDhHghAAAIQgAAEIAABCEAAAqUlMGvWrNI+Ow8OAQg0B4FSGK2aAzWpgAAEIAABCEAAAhCAAAQgAAEIQAACEAglUAqjFbsHhhYH9CAAAQhAAAIQgAAEIAABCPQRYPdASgIEINBoAh1dXV2Zaejs7Mz0z/Jsb293eeGYfmh4Respfu0eOG3aNEtK5rHoeEPDU2KanR/pqy4y5G81E/mEcgnVU5iUP1FICvySPOwslEuonsKl/BndyhF+FRa+K5RLqJ7Cpvz5hPvc8KtmIp9QLqF6CpPyJwpJKSM/7R44c+bMJIjUWSiXUD0FT/lLQe49hV81E/mEcgnVU5iUP1FISiP5lWKkVRI3ZxCAAAQgAAEIQAACEIAABCAAAQhAAALNTqCju7u7ZhrrXdfNPT09LkRPuo3Q0+6BjYg39HmbnR/pU05mS0i5gl82O/nCL5tNCBf4ZbML5RKqR/0dHGf4wc8IFNmuUX+NavWxSM7U32q+5hPCuVX4affAkOcVmyL1WoVf0VxCw4OfSGVLSDmFXzY7+TaCXylGWrF7YH6h4woEIAABCEAAAhCAAAQgAIEsAuwemEUFPwhAYDgJlMJoNZxAiQsCEIAABCAAAQhAAAIQgAAEIAABCEBg8ARKYbRi98DBFxRCgAAEIAABCEAAAhCAAATKRYDdA8uV3zwtBJqRQCmMVto9EIEABCAAAQhAAAIQgAAEIACBcALaPRCBAAQg0EgCpTBaNRIwcUMAAhCAAAQgAAEIQAACEIAABCAAAQj0n0ApjFbaPRCBAAQgAAEIQAACEIAABCAAgXAC2j0QgQAEINBIAqUwWrF7YCOLGHFDAAIQgAAEIAABCEAAAiORALsHjsRcI80QaC0CHV1dXZlP1NnZmemf5dne3u7ywjH90PCK1lP8pM9yoXIM5Qy/CjPfBT+fRsUdyiVUTyFTfyt8zQU/I5E8hnIJ1VPolL8kY53Br5pJf7jAD35GgPbFSFSO1I8KC98VyiVUT2FT/nzCfW74VTORTyiXUD2FSfkThaTAL8nDzsSlFCOt2D3QspwjBCAAAQhAAAIQgAAEIACBMALjxo0LU0QLAhCAwBAR6Oju7q4ZdL3rurmnp8eF6Em3EXpjx451U6ZMUfR1pRHpa3Z+pC+/2ISUF/jBzwiElBfpFqlH+TP61ccQzvCr5mY+8DMSyWMIF90Rokf5S7L1z+Dn06i4Q7hIO0SP8lfhmnaVid+ECRPc9OnT0wgyz0O46MYQPcpfJuLIE37ZbEK46M4QPcpfNuNG8SvFSKt85FyBAAQgAAEIQAACEIAABCAAAQhAAAIQaEYCpTBasXtgMxY90gQBCEAAAhCAAAQgAAEINDMBdg9s5twhbRAoB4GOMjwmuweWIZd5RghAAAIQaCYC+++/v5s0aZJbsGBBzWS1tbVF1/P0zj77bHfFFVfUDGMoLh5//PFuq622ckrf6aef7qZOnToU0RAmBCAAgaYmwO6BTZ09JA4CpSBQCqNVKXKSh4QABCAAAQg0EYF3v/vdwTsO1Ur20ksvXevykF1bdtll452RR48ePWTxEDAEIAABCEAAAhCAQD6BUkwPZPfA/ALAFQhAAAIQgMBQEMgbOdXfuLQYKgIBCEAAAo0hMH78+MZETKwQgAAE3iFQipFWm2++eUOmFlDKIAABCEAAAmUlcMopp7hp06a5xx9/vArBhhtu6E488cTYf/Lkye4f//hHfO47Xn31Vf8UNwQgAAEIDCOBiRMnuuuvv34YYyQqCEAAAkkCpTBaJR+ZMwhAAAIQgAAEhprAW2+95WRwevnll6uieuWVVxJ+eXoJJU4gAAEIQAACEIAABEpHoKOrqyvzoTs7OzP9szzb29vjdR+yrssvNLyi9RT37bff3tTpa3Z+pE+lKCmh5VR3wS/JTmfwq2bSHy7wg58RGKntS7oM6zyvP2LPusQSS7j11lvPvfe973VaL+upp56KRnHde++9bv78+aaW274st9xybp111nEf+MAHonb5wQcfdE8//XQUTnyz5xBbk1GjRmWmTzoLL7xwpKZneP311+2W+JiO9y9/+YuzuGOlHMdIzV//cdJ57V/z3UXrKWz4+YT73KGc4VfNTj5l5DdjxozM9s8nFMolVE9hU399wn1u+FUzkU8ol1A9hUn5E4WkNJJfKUZa3XXXXUninEEAAhCAAAQgMCIILLbYYu64445zm3xsE9fW3rfToJ/wBT0L3J8e/JM79thj3QsvvOBfitxaUP1b3/qW+8hHPpK49oUvfCE6f/HFF91XvvIV98QTTySu1ztZfPHF3a9+9Su35JJLxqrf/va33c033xyd58VrygON1+7nCAEIQGA4CMyePXs4oiEOCEAAArkEOrq7u3Mv6kK969LRIqkheqHhFa1H+kQ0W0LyDX7Z7OQLv2w2IVzgl80ulEuoHvV3cJzhNzT83nzzzUTAOs9rN8477zy35pprJvT9ExmyNILqsssuczvssEM82knhLbroou7SSy91MnzliYxOuvfII490t956a6ymvDd5++23E+nTqK+0weq0006LDFaDjdfi1JHy59NIuvPKi68FP59G0g2/JA87C+Ei3RA9yp9RrT7Cr5qJfEK4hOpR/rIZw29wXBrFrxQjrbR74Ny5c/NziCsQgAAEIAABCDQdgUmTJiUMVppap6kq8+bNcyussILbbrvt3BprrBGl+13vepfbb7/93Nlnnx0/hxZ7N4OVDE+aSijDlKYTauTVZ7b9TDR6S9P/vv3t77jx47eMDEVxABkOGax+85vfuNGjR8dXTzjhhChd5lErXk1x3GabbZzi7E+8FjZHCEAAAsNJQLsHshD7cBInLghAIE2gFEYrdg9MZzvnEIAABCAAgeYnsPPOO8eJnDVrljv++OMTX6Ivv/xyd+6557oNNtgg0lt//fVjfTnWXnvt+HzKlCnurLPOis+vueYad8MNN0T3y3PRRReJ9B944IFYJ+3QqCwZrGQgM9HUQ73Q+Wty1YpXcV588cXxrsYh8VpcHCEAAQgMNwF2Dxxu4sQHAQikCVRWGU1f4RwCEIAABCAAAQg0kIBGNZlccMEF5kwcb7rppvjc19ciqjbKSgp/+MMfYj1zPPPMM9Hoq9dem+/0t/zyy9ulquPSSy/tpk6dGhustJbWMcccUzUCISRejRTTqK+QeKsSggcEIAABCEAAAhAoEYFSjLS67bbbSpSlPCoEIAABCECgNQh8/vOfj0YwvfXWW+65556reiitWaV1rLLE1vOwEVAnnXSSO+OMM9zVV1/tFJ7J5MmTzZl71G6FGmFlRjAZrI486kiXtUBxkfHmJogLEIAABIaJwLXXXjtMMRENBCAAgWwCpTBazZkzJ/vp8YUABCAAAQhAoGkJPP3001HaNHppo402cloPasyYMW7FFVd0yy27nBu95OhoXai8B7jvvvvcxhtvHF2W8erwww93hx56qPv3v//t7rzzTvfHP/4xaM1LGc98eevtt9zdd9/teyXcteK955573PTp093f//73xD2cQAACEGhGApqajUAAAhBoJIFSGK0aCZi4IQABCEAAAhAYOIFddtnFaTTUQgst1O9ADjnkEHfJJZfEi7UrAC1+vvrqq0d/u+22WzRF76abbowWcH/55ZeD4ujs7HRabP2ggw7K1K8X70477TSgeDMjwxMCEIAABCAAAQi0MIFSrGml3QMRCEAAAhCAAARGFoGLLrrIHXzwwVUGK03Pe+WVV9xDDz3kNHIpTzQNcNddd3VHH320+9vf/ua0g2BatBC6diG88sorexdjXzR9OT7XvU899VR8rr7FpptuGp/7jiLj9cPFDQEIQGC4CWj3QAQCEIBAIwmUwmil3QMRCEAAAhCAAARGDoHPfe5z7kMf+lCc4BdffNFddtllTlP1PrbJx5xepPbee2934403xjp5jptvvtntsccebrPNNnP7779/tKC6b4DSfVrE/bjjjssM4s0333R77bWX+9KXvpRYD+t73/ue6+jIH7SeFa9NebSIasVrOhwhAAEINIqAdg9EIAABCDSSQIfWhsgSrR8h0YKi9WT06NHRGhO19ELDK1rP0pT3nHa96HhDw1P8zc6P9FkpqRzJ3woL3xXKJVRPYVP+fMJ9bvhVM5FPKJdQPYVJ+ROFpBTB7z3veU8iUO3aN3/+/ITf9ttvH59rVNWBBx7oZDxqa2tL9DlkiDLRtD2tdyVZbrnl3FprrRW5//nPf0brWOnk+eefd1OmTIn+VlllFXfkkUe6ZZZZJtJbd91147AXWWSRyE//XXXVVVH6llpqqchwJgOYRAuzn3rqqe6HP/xhXP7qxXvFFVe4JZdc0p1wwgmZ8UYBv/Mf5c+n0ecuovz5oYaGV7Se0kD++jnR5w7lDL9qdvIZKn7D/R5F/g5v/tZ73w8tV6F65C/5KwKh5UV6HXPnzs2kZrvtdHd3Z173PdWQ5YVjeqHhFa2n+LV7YDOnr9n5kT4rxZVjaDnVHfCrcDMX/IxE8hjKJVRPoVP+kox1Br9qJv3hUgS/tNFKo4/Sv9NLL710nND7778/Njql+yX+aCwZtZ588snovm222SYaHaWTxx9/wu24Y/Yug6eddlq0PpX09GyWDt+I9sILL8T+P/rRj9zWW28dG8c22WSTaJSWLaxeL17FoTTmxat0mFB/jUTlWET5q4QW3h6ExhuqpzSQv35O9LnhV81EPqFcQvUUZmj50+6B1i7qviwJjTdUT3GEpk+66d8F+fkSGm+onsImfT7hPjf8qpnIJ5RLqJ7CLFv5K8X0QHYPVNFGIAABCEAAAiOHwHPPPRcnVp2ztOjL25lnnhmNqEpf07l2BzRZeeWVcvXGjh1ram7evHmxu5ZDC637opFWGgEmGcp4/ThxQwACEBgOAuweOByUiQMCEKhFIH8hhlp3cQ0CEIAABCAAAQgMIQGNrrJRVDJaXXrppdE0Pa1F9YlPfCJaBF3T7HzR9D1NF/zrX//qHnzwwWiHPi20LtEUv/PPP9/9/ve/dxo5NW7cOPfpT386jkM6N910kw515dFHH3XXXXeds7VeNM3r61//ejRNsF68GqWluNdZZ504ntB44xtwQAACEIAABCAAgZIQKMVIK3YPLElp5jEhAAEIQKBlCJx77rnu1VdfjZ9n1VVXjQxDJ510UmQsMoPVrbfe6rSboERrWp144onugAMOiNbk/M53vh3frwXTJ0+e7H7xi184TXc57LDDEgYrTX/RboWhojWpXnutsg7X9ttt75RGrQ1SK17thugbrPobb2j60IMABCBQBAF2DyyCImFAAAKDIVAKoxW7Bw6miHAvBCAAAQhAoFgCWnvKl6z1SKSzzz77uGefffb/t3cu8JaN5R9f58yZI1Sjkrshul/5V0ah/yAqJHIpuphSbinlXiJJFMlEJIXpJvduaMgwSi6VhIio/5jKkEspjRwc//e7zn72fvbaa+39nnPWPmefvX/PfM6stdd6r9/1Xp/35o1W77GDAuuggw5KFly5oPrc31x11VXJkUcemTz++OP+ccM9iq85c+bUPX/qqaeqv5988snqvd3wzCun+vr7wu+j0tfj8dfc11UEREAEOoGAzSjthLAoDCIgAr1JQMsDe/O7K9YiIAIiIAIiMGkEbrrppmTWrFmp/7bxaF5gWIa3zTbbJLNnz05e//rXJ5wyeOONNybsscLm7SaHHXZYwql8r371q8Psp6XJNddcY6+Sn/70p8kVV1yRbLnllsm6666brLPOOslyyy0XNmf/a3qS4I9+9KPkL3/5S9W83ey3337pbbPwoZwqikeRvyxv5DRD7Ob5a/7rKgIiIAIiIAIiIAIikCQ9obTi9ECJCIiACIiACIjA1CSwcOHC5Nprr00Dnzcrixc333xz+penZGLWFksCs8JeWe1UHOX5a+Erikc2jPotAiIgApNJIK/snMzwyG8REIHeI9ATywN1emDvJWzFWAREQAREQAREQAREQAREYHwEdHrg+PjJtgiIwPgJDNiIX9YpNjONFY6dLnLH3Ih1r2xz+K/w2VeoXWM5i1+Nmb8TP0+jdh/LJdYcLiv/1vjanfgZifprLJdYc7iu9FfPmF/i18hkNFzET/yMgMoXI1G7Kn/UWPi7WC6x5nBb6c8THrkXv0YmPInlEmsON5X+oFAv4lfPw37BpSdmWun0QPvkuoqACIiACIiACIiACIiACIhAHIFNN900zqBMiYAIiECbCAy02lOh1XvCxfHOMeYwOxnmNtpoo+Scc87B+5YyGeHrdH4KX3GyiUkv4id+RiAmvWC2THNKf0a/8RrDWfwaudkT8TMS9dcYLtiIMaf0V8/W/xI/T6N2H8MF0zHmlP5qXLN3vcTvLW95S3LxxRdnEeT+juGCxRhzSn+5iNOH4pfPJoYLNmPMKf3lM54sfj0x06oYud6IgAiIgAiIgAiIgAiIgAiIgAiIgAiIgAh0IoGeUFr9/Oc/70T2CpMIiIAIiIAIiIAIiIAIiIAIdCwBnR7YsZ9GAROBniHQE0qrG264oWc+qCIqAiIgAiIgAiIgAiIgAiIgAmUQ0OmBZVCUGyIgAuMhMDAey51ut6+vL7n++us7PZgKnwiIgAiIgAiIgAiIgAiIgAiIgAiIQAcQeHr46WTDN2zYASFRECDQEzOt9KlFQAREQAREQAREQAREQAREQAREQAREQASmFoGunmnlP8WsWbP8z4b7wcHB9Fmr0wTKNoenM2fOTBYvXtwQJv+gbH9j3VP4/Feo3YtfjYW/i+USaw63y8of/f39yXXXXZcGt6zyoMzw4VYsl1hzCh8EGkX8GpnwJJZLrDncLCv/lh2+dpQHsVxizXUyP8KGdOr3HQmdwmcc/FXpz9MYuW9HeYDL3ZI/TjjhhOSjH/1oIzj3JDZdxZrrJn7ERf1Ll1gqt52aP7RSq/FbdcITzbTqhK+gMIiACIiACIiACIiACIiACIiACIiACIiACNQRGDCNd93T8GP69OnZR4W/GaEocscsxbpXpjk0pSadGD4LW6fyU/iMQOM1Np1iU9+3M/jxHUzKKg9wT9/XqNauyh81Fv4ulkusOdxW+vOER+5j+LWjPIjxlxDGmsOsvi8U6kX86nnYr1guseZwt1fSXzvKg27iN3/+/Anv53UTP+LSSmLzZaw5/OuV/EtcY7nEmJP+AKL5EsPPbJad/mq9OPOhC69spCYRAREQAREQAREQAREQAREQARGIJ7Bw4cJ4wzIpAiIgAm0gMNBqjW2r94RpeHi45VpdC3uMe5gtw5zXlJbhnsWhrPCZe53KT+EzAsXXmHSl79sZ/PxIasx3I9Qx5vR9O+P7+lDEfDd9X0+s/r4X+LWrPIhNV7HmVL7Up03/Kyadip8nVn8vfjUe7SoPlP5qjLN3Sn9ZIiO/Y7hgMsac0l8+41b8pD8o5mZvJiP99cRMq77+2jJBg62rCIiACIiACIiACIiACIiACIhAMYHNN9+8+KXeiIAIiMAEEOgJpdUEcJQXIiACIiACIiACIiACIiACItBVBLbaaquuio8iIwIiMPUISGk19b6ZQiwCIiACIiACIiACIiACIiACIiACIiACXU9ASquu/8SKoAiIgAiIgAiIgAiIgAiIgAiMnsAll1wyekuyIQIiIAIlEugJpZVODywxxcgpERABERABERABERABERCBniBw5ZVX9kQ8FUkREIHOJdATSqvOxa+QiYAIiIAIiIAIiIAIiIAIiIAIiIAIiIAI5BHoCaWVTg/M+/R6JgIiIAIiIAIiIAIiIAIiIALFBHR6YDEbvREBEZgYAgODg4O5Pk2fPj33ed7D/v7+pMgdMx/rXpnm+vr6zPuODJ8FrlP5KXxGoPEam06xqe/bGfz4DiZllVe4p+9rVGtX5Y8aC38XyyXWHG4r/XnCI/cx/NpRHsT4SwhjzWFW3xcK9SJ+9TzsVyyXWHO42yvprx3lQTfx4/TABQsWWFLLvcamq1hz3cQvF1jmYSyXWHPilwFc+RnDT/qDfHY8jeFntsuuP2q9OPNBVxEQAREQAREQAREQAREQAREQAREQAREQARGYZAIDQ0NDTYPQ6j2Wh4eHkxhzmJ1Ic15TOpH+Ek+TGH87lZ/FQeEzEo1Xfd9GJjyJ4RJrrqz050dSOzF8nqTC52nU7svkMtHprxaLzswfvRa+dpUHsekq1lxZ5V+vfV+Lr/gZicZrTHnaK/zaVR50Cz9OD4xJL6SyMs11C7+yucS6J36Qypdm6VT6g3xm/mkzfmau7PTXEzOtdHqgJR9dRUAEREAEREAEREAEREAERCCOgE4PjOMkUyIgAu0j0BNKq/bhk8siIAIiIAIiIAIiIAIiIAIiIAIiIAIiIALtINATSiudHtiOpCM3RUAEREAEREAEREAEREAEupmATg/s5q+ruInA1CDQE0qrqfEpFEoREAEREAEREAEREAEREAER6BwCnB4oEQEREIHJJCCl1WTSl98iIAIiIAIiIAIiIAIiIAIiIAIiIAIiIAK5BKS0ysWihyIgAiIgAiIgAiIgAiIgAiLQ2wQ4PVAiAiIgApNJoCeUVjo9cDKTmPwWAREQAREQAREQAREQARGYigR0euBU/GoKswh0F4GeUFp11ydTbERABERABERABERABERABERABERABESg+wkMzJw5MzeW/f0j+qzh4eHc9/7hjBkzkiJ3zFyse2Wa6+vrS73n9MBODJ+x6VR+Cp8RaLzGplNs6vt2Bj/7ZoSmrPIAt/R9oVAvxnoq1x8WI31fI1G7dsP3tTgQq7LKA3OzVbqPNUfYlP6gUC/iV8/DfsVyiTWHu72S/owJcS6rPOgmfhtuuGFy7bXXEqVCMYYq/+oRlc0l1j1C0Sv5l7jGcokxZ/oD3C2rPIjxdzTxwGyvfd+BxYsXE+8GGRwcTJ8NDQ01vMs+4IMWuWNmY90r05xPdJ0YPmPTqfwUPiPQeI1Np9jU9+0MflZhEJqyygPc0veFQr0of9TzsF+xXGLN4a7Sn9GtXWP4taM8iPGXUMaaw6y+LxTqRfzqedivWC6x5nC3V9JfO8qDbuK30UYbJeecc44ltdxrbLqKNddN/IhLq/50LJdYc+IHgUaJ4Sf9QSM3exLDz8yWXX9oeaCR1VUEREAEREAEREAEREAEREAEREAEREAERKBjCEhp1TGfQgERAREQAREQAREQAREQAREQgc4hoNMDO+dbKCQi0KsEekJppdMDezV5K94iIAIiIAIiIAIiIAIiIAJjJaDTA8dKTvZEQATKItATSquyYMkdERABERABERABERABERABERABERABERCBiSHQE0orTg+UiIAIiIAIiIAIiIAIiIAIiIAIxBPYfPPN4w3LpAiIgAi0gUBPKK3awE1OioAIiIAIiIAIiIAIiIAIiEBXE9hqq626On6KnAiIQOcTkNKq87+RQigCIiACIiACIiACIiACIiACIiACIiACPUdgYHBwMDfS06dPz32e97C/vz8pcsfMx7pXprm+vtqywE4Mn7HpVH4KnxFovMamU2zq+3YGP76DSVnlAe7p+xrV2lX5o8bC38VyiTWH20p/nvDIfQy/dpQHMf4SwlhzmNX3hUK9iF89D/sVyyXWHO72SvprR3nQTfzmz58/4f28buJHXFpJbL6MNYd/vZJ/iWsslxhz0h9ANF9i+JnNstNfrRdnPnThVacHduFHVZREQAREQAREQAREQAREQATaSmDhwoVtdV+Oi4AIiEArAgNDQ0NNzbR6j+Xh4eEkxhxmJ9Kc15ROpL/E0yTG307lZ3FQ+IxE41Xft5EJT2K4xJorK/35kdRODJ8nqfB5GrX7MrlMdPqrxaIz80evha9d5UFsuoo1V1b512vf1+Irfkai8RpTnvYKv3aVB73Cz6eumHSF+Rhz4ufJ1t+LXz0P+xXDBbPNzEl/YDSLr834ma2y829PzLTS6YGWfHQVAREQAREQAREQAREQAREQgTgCOj0wjpNMiYAItI9ATyit2odPLouACIiACIiACIiACIiACIhAdxLQ6YHd+V0VKxGYSgSktJpKX0thFQEREAEREAEREAEREAEREAEREAEREIEeISClVY98aEVTBERABERABERABERABERABEZD4JJLLhmNcZkVAREQgdIJ9ITSSqcHlp5u5KAIiIAIiIAIiIAIiIAIiECXE7jyyiu7PIaKngiIQKcT6AmlVad/BIVPBERABERABERABERABERABERABERABESgnkBPKK10emD9R9cvERABERABERABERABERABEWhFQKcHtiKk9yIgAu0mMDA4OJjrx/Tp03Of5z3s7+9Pitwx87HulWmur6/PvO/I8FngOpWfwmcEGq+x6RSb+r6dwY/vYFJWeYV7+r5GtXZV/qix8HexXGLN4bbSnyc8ch/Drx3lQYy/hDDWHGb1faFQL+JXz8N+xXKJNYe7vZL+2lEedBM/Tg9csGCBJbXca2y6ijXXTfxygWUexnKJNSd+GcCVnzH8pD/IZ8fTGH5mu+z6o9aLMx90FQEREAEREAEREAEREAEREAEREAEREAEREIFJJjAwNDTUNAit3mN5eHg4iTGH2Yk05zWlE+kv8TSJ8bdT+VkcFD4j0XjV921kwpMYLrHmykp/fiS1E8PnSSp8nkbtvkwuE53+arHozPzRa+FrV3kQm65izZVV/vXa97X4ip+RaLzGlKe9wq9d5UG38OP0wJj0Qior01y38CubS6x74gepfGmWTqU/yGfmnzbjZ+bKTn89MdNKpwda8tFVBERABERABERABERABERABOII6PTAOE4yJQIi0D4CPaG0ah8+uSwCIiACIiACIiACIiACIiACIiACIiACItAOAj2htNLpge1IOnJTBERABERABERABERABESgmwno9MBu/rqKmwhMDQI9obSaGp9CoRQBERABERABERABERABERCBziHA6YESERABEZhMAgOT6Xm7/X766aeTWbNmJSeffHK7vZL7IiACoyDApqcbb7xx8sQTTyQ333xz8s9//nMUtsdmlA0BN9lkk1zL2267bTJt2rTkxhtvTBYvXpxrZio9nDlzZvKCF7wgeeqpp9oenze96U0Jm1b++c9/Tv7yl79MJUwKa4cRoFywPNrucoHygPYBeUUiAiLQPgLPfe5zk1e96lXpUem/+MUv2ufROFxu1j4Yh7MTYvXlL3958vznPz95+OGHk1tvvXVC/Czbkw033DBZddVVk3vuuSf57W9/W7bzck8EqgTWCe1V5N5w/VfQE+SJ6Q+mQvvgGSECa4T+C/KX0OZ/PL1r/R/2XlKx94dgbypIVyut7AN0aiVp4dNVBCaaAJ1D/mioTYasuOKKyec///nU66985SvJ2WefPRnBqPp52GGHpffnn39+8qUvfan6fKreHHDAAQmNQGSnnXYadzQsvWTTzHLLLZccf/zxqfts1PrJT35y3H7JgckjMDAw0iR48sknJ6VsoON13HHHpQA6oVwo80tYHpqsMrfMuMitqUXA8jVpbzLS39vf/vZkn332SaG94x3vSO67776pBbDDQ0uZSdn5yCOPJFtuueW4Q+vLKksvnB7YTvnMEZ9Jnvu856aDbGW0WdoZVrk9dQlMD0G/4Bmoa5Lk06E8/GEYOJ9oQWXGMjfUZWX0wFA8fe+Zz0yjscOjjyZ3Riqg1nL2tvj3v5OHUhc6+7+eUFpdf/31UV/hOc95TvLSl740NYuiywrrKMujNMSoE6NPDz30UPKvf/0r2rZGI6JRyWATAgsXLkyWWWaZZNGiRclBBx3UxKReiUCSfOMb30he+cpXpjO3Zs+eLSRdSGCVVVZJfvSjH6UxO++885ITTjihC2M5eVFSHpo89r3ss/J1L3/9scXdtw/f9a53pY7o9MCxsZQtEcgS2Df0vfYMirMHh59OZv87vv+fdacXfw8MDg7mxnv6dPSRcYJWvsgdcyHGPUaDMMeSllYS4565ERs+lgh96EMfSq0xGsRU26zE+tvK3Iknnpg861nPSv7xj38ke+21VzS/I488MkG5xhKm97znPdngpfwaHuY8aBU+byWWn7dTdB/rb6w5/FH4Gmm34sdyLoQlcZPNj3zfrPyYyPDBg7C04ueJT2T4zN9W4fvlL3+ZKiWZMVNG+HAD6e/rb2DDVH7S0w033FD9jq3CZ/FI3Syp/sCtWH9jzfVS+J5RGX00js3yZLv4eXfzygX/nnAWSaw57JeRPywczfy1PITZZubMLbtOVPjMP64Kn6dRu4/lEmsOl9v9ffPy9USHj3rVBL+blS2Ym+jw+bDZfbNrp4XP2nOEuYz2i7k32vZQLJc8c/7ALJ8+2p0/8r5zXvjyzPFM4Wsk08n8KIm+FXQMtGgXRbQ92/F9B2xJYuiG+bRuJEfL7+HQhzplaGTG2L/ow7jyFjeL3Jte6QdiZjCUy9ODOzFS5F6e3bL5xYUwLyQlP2M0iKU5yA9+8IPky1/+cmk+sG8FbkpEQAREoBcI/PCHP0z4Q1ZbbbW2RRml2H777dc29+WwCIiACIiACIjA5BKYHWZY/+xnP5vcQMh3ERgnAabEnFpRGj1hyqNxujnZ1u8P8TjjqScnOxgT4v/A0NBQU49avccyy+hizGG2yFx2dlWROdzwEmOODZ/PPfdcby333oeBDaKbud3snXe8yByF/1prrZXcfffdo+L3dJhOaFLkNu+bvTP7sebK+L7ez1h/Y80pfFm6td/ZdMCm2S972cvSGVaYYokq079vu+225OKLL65aZJYDM/le+9rXJiuvvHLy+OOPp0tZL7vssuTyyy8vXDr7+te/Ptluu+2SNdZYIx2B+r//+790o3Xyn19uS/4yQfGRDecGG2yQrL/++qmRxx57LPn2t79txptes+54wyyHpCx4wxvekM5WZIbQ/Pnzk/vvv79qjDLAu2H3NNhQfr/kJS9Jl/NeffXVyYIFC9L7ovTHvgz4h9Lov//9b/KnP/0pueqqqxLsFgnHSv/v//5vsu666wZ+05IlS+5NfvKTnyRw9/KWt7wlWXPNNZM//OEPqZvsGbL11lunozYf/OAHEzZmteV8v/71r9M4PfvZz07e+ta3ps7wDQnTm9/85vQZ6eD3v/99cuGFFyZ33nln1SvCgRk2SEUYDd1tt91S9775zW+m3/id73xnemXjbG8X83zbHXbYISFdsDE8rCjzfvrTnybXXHMNRurKv9e97nVpmmPZ9AUXXJCsvfbaafhID9j9zW9+k34zlrU2E/tuzczwLsZc0ffNczvGvVh/Y82VEb6dd945TXMWp9e85jXJBz7wgeRXv/pVctNNN9njxMoFvudKK62UkDcfeOCB5IorrigsFwjfeuutl6YDNjVl5G2s5QL+EjbyKbONSUfNpNn3YDY1g2V///vfE9ITaW+zzTZL8w2zrIk7ZaJfvu/dIz9RdhI38jjm/vjHP6aDb1xNsnmI2QvkIeLw9a9/3YylV/aIY08a4rn66qun4aJsRgHty0xviZk0e+65Z1qus1cg34N8SLnhw+Ht+Hj459n7GHNlpL+x+IsdhS9LbuS3cSnK1+Tp3/3ud1V+lq+tvqdusHxNHWPuZX2zOo60SllAevv5z3/eUMe1alvTZqCdgbCdB34iRf6mLyv/FaU/8sK73/3utB3Bfk8c9kK+OOWUUwoPftloo42STTfdNHnRi16Uzk7gYBHCk9d/gNWrX/3qZOnSpcl3vvOdtC21/fbbJ7SxqOOov4gH4SNfU0ezvceyyy6bsmePKNoEXiiDaDvde++9af1I2UE5RXlAOUX9x+B+lgubRpv4d3afV67QFrn22mvr6t+89iH1AG0k2iZ+Xyu+F2UVHCgLaT+wrJCr+Wth8tf/+Z//SRmvs846yV133ZW2beBU1Lcp+r7eTbtv5q+Z4VqmOYXPk62/h/PzwmyetUKdj7Lo5lDnLR9+vyrUgW+YNpA8EXZ1eiCUGz8J/YGlLg3jCuZeV5kx9NvwnplRbwt/Lwpu/Tj8vi24ZYIfmH15cGPlcH9P+LsjvL82tD8fN0OVK2tM1gtu4N5dwZ2HMv5ibOXw/uXh76XBzRX+85/k6pCHbw/u/TPHLOYR3Fs/mMPeC4O9peH3omDnZyEMfw/PkeeFv1eE9+uEtj2yYgjnG8I7YnJNMJeVmHRK+hsM8XhxcBe5I/zOslw2PIfbi1MTSXJrCNcfw98TFb48HgpumBIvxt/UTgv9EWbKzh8dM9OKyPWSfPGLX6xGdyqcTlANrG6mNIHdd9+9um8bEVl++eUTlA501kxpRYNt3rx5aQc1G9k3vvGNycEHH5zssssudcoezKHEYK82L2sHpQONQBRg+O0VRN6cv0ex8tnPfjZ9RENm7lfm+tdjuqdz+r3vfS95ZmWzQhyhAcnmsBbvPIdXWGGFdD+nbB5F8XXIwYckx3/p+ASlkBcUQOecc04yY8YM/zh58YtfnLztbW9LzX/84x9PFTpmgI7nV7/61QZ+a6yxetpgZQkxHQSUQAi/aZTT2UZZZSeuWcOPTmx2I3aUWGzQjtAw3nHHHavKS55ZA5kGOGFBUFihBPNChxs588wzE8Jte6JlN2JHqfG1r30tVW54+6QJ3L3llluq4bH373vf+9JwU2kyBRlOXkhfc3abk3xk34+kJz36d7ofO4GPfvSjddPU6VDw98IXvrCqtCoqF9gHkvRXVC5w4AJp30u2XGCZfCvJlgufOuxTraw0fU+cWaJPx5HOquUhs0Qep8xC6UrH1AsKbA5s8FP7UVzB4u3bvD258KIL0z3BaLA1y0Psc4UZhPx58slfDR1cmpgjwgADZcbHPvaxZI899qh25u09SvEvfOELddP/CQeKPRQWlMn4IelNAkX5mgEDlFZIq3yNAou05OvuZnXcNttsk1vHFX2Bz3zmM8lWW22VvmZwrFl9XORG9vns2bPTg15QxpmgZGHQifx5zLHHJD/+8Y/tVdrWYQ8/qzPtBQNDtHmocz6238dSJYu9ow1EOUCdSzsK5Y4J5QAcbr/99rQtdfTRR9eVFa94xSuSXXfZNdn3o/umiiizd+ihh6bKOxSG8KZMMKE8Jny0pT784Q9Hn9TbrFyhnoW/nZic1z6k/kfh5xXgV22IkwAAN9FJREFUtEUO2P+AdBDLwkecUOIvWbIkoR7/d9jY2Qvf4owzzqhrf6KkgyPKwf5pI51ub0f3U5/AJuG7Hx2Utsg+QQF0asgrdRLKl/eHdvnHQh37p6BIMVktKFlOqZjdLZg5dpllktWCkge5JZgzpdXGwf0vBXMj25BXbFfy/d2hbv1kcNefjEeJcGZwC/l0cMdvxE4K3DFsD3JEUCxXJeSR91TC8fmgYPt+jqJmhWD4yNBefVPF36rdcPNJ3gV7FwR7KKzmVvw2MxbHV4VDFGqqZ3sbd103uPvtgo3Y1w2KqTNCOx0FmZdHw48TQ7immnREKUGF+P73v7/KjpFLOl0208JeUFEeeOCByemnn56eNsYoJZWBL9jNrL/S4OQkIkYomLFx+OGHp7MZvJmYe0aD2POKPxqF4xE68sSbkY08YTSCDhudR65UthIRGC+BO+64Ix2xM3cYAaXDyHOEhgWKBmvsMbrHXkWM/NloKQ20bEeIDqsprJgRgHvMZHo0nGSBMNIZM1uKhp5XWB18yMHpaGDqyBj/Q/FE3jeFFfEgXv8JFSiCn3nC6CSzFUxhRQPvz3/+c3pCD+aZdUS8TYljblA+mcIKP+BA49VmSjBqSkfTC4oi40cjmEYco7XGnI6oV3SbXTr/vrP91HCt0jczeVcal8z4wH0arEuX1iovGpw0JBGOn4aVKct4RoOaZ9bZ5llWGE1GcYfiCoEDSqpFQclmcWKUOpuOzB2UAaawwi7pz/jB/eSTT66mUbOj69gJkK7pmJiQ1vnGNnMur1xAWfvXv/6t+j2LygVTWJVdLpS1MTDKWstDDz74YNpZNOUvZUY2jdIuOemkk6qdUOyQx+GFPdInCmFLvzF5iPr+m9/4ZlVhxSlgfBPLl+SHs848K+1A2zdidgNlgu0vQTgoq/3sDdoqKLUlvUmgKF+bAiIvX5OGfL5mYCKbB7J1HLNsW9VxeV+A9rsprEjrKEP+9re/5RmNfsasXPKFtWGoP5jJY4px8ifKIRRSJtS/prCinIIP8UGJhnCqHYM0tAmygnumsCLfUj+aMOOZk/3Iv9R7vLP6D3vsbZsntJesX4Ob1H9WJrGn7be+9a10xmqeXf8splw55vPHVMuVvPah1QM2y2rfffdN+2GEH+E9bQirn5mVzYEez3se80pqQnvADrriKd/D6hy+Be00SXcTMIXVnU8NJ+eFNsa9lQEbZmL9KNS1z8koVozGKaEMMoUVz56szHh6c+ivnFZRWNHT+GEY1D0t5F+btfTC4O75wd01wjVGDgz+mMKKTdLPD2G8OrSTR3oxSXJYaNceHMx4YVfws8IzU1jdE+L0rVBuYNfkyGDv1cGdB0K4Lw9htHjzfn4wd0n4G6vCyvzIu6KwgqsprFDi/Tj4RRhR8h3ulXN5DnTgs9owxCQGLjsaxDIS/vwoL50oawT6oFIpbLHFFmkHj86W70gVjQahABrvaJCdsuTDMpr7ww47LB3lffihh5M999qzapWKNjsaQSeX+NOQ0GhEFZVuxkDg2GOPTW1xOiYNKRqIzL6xkTZmFTD7ACGNH3PMMek9ZvljmRppdKXnr5ReTZnBcjWEhgszIkxZxVIgGrgoZGiUcL311ltTs9n/mAb/qU+NzJ6ggbb/AfunCitTGmXNx/5mJhBhR+jQMUvJlvzMmTMn2XvvvXOdOuSQQ6r24IWCysoXRgjpuKL42XqrrdOGKQ1c2FljGAUNyiEE/+nUs2SAjjCjtyYosC2OuMESA5bHISh9WBqEPxu9caO0oWphMPtccReloB8N9+/z7vkOzN7APcLHt7cylhlouMnySf5osDOSSoObmXkoNZoJaco60zfeeGP1uHPs0Nlmj0E4oHRjiQEzQvKE2XGmICCMhIlGOzxQ+JeluMjzu5eeoXhlic9FF12URptZCMcff3wVQbZcYJYRQjpg2S3foVW5wPIS6wRmywU6aCwryZNsuXDIoYekS5DyzI71GeXWEUccUU1PtD9Ie6Qz8iZp2TplRx11VNUbBpXo8JpQLnw1zJaiQ7fzTjuny4qK8pDZ4fq5z32uOmuB/Tz9ciTKIfIcbnIPD4Q2DMwRlvXOnTu3mi9RxJ199tnpuzmhjLMOZ/pA//UMgaJ8bfVhNl9bfQ+gonydV8eZe+QTyo5sHZcHnLYIM7wRFEss5UMBMl4hH5tQJ7Ic0MLHrCJmPpKvd91111S5RT3CLCYEJQrPrf7lmdV9uEGY8/ZwpL3CzE+rj7L9FdpXzFhi9hF5FqUT/RvcRLmTnZWEv7j5wd0/mCrP+M33YBCNATHaErRbiFszaVauMDGAMPlyJa99iCLR+NGngg9C2U87wdpzlOn0XeiTET7e4T/Cd7Z2Ed+adgdMcIMyk7LL2gupBf3XtQT2CN+fZXsmB4YVA3NC/Yt8OKTx48KsqqygYLk62PniY/9N/hYGZhmaXSb8fXrZESUySqDdgrsPVepD0hUzsFBoIZ8Oypm9w/tmiqGXhDLh/cF/BCXSZ0M4WGY3MyiQHwyDyF8NCusNgpuYOS+Ed1FoCyPvCHl4rYqy7duh/e7Df3Zw5wehnYswg+voYOfQYHevYH6PoOhCMXZgG2c7cUqhyadCWH5c8WtaePiB8O7jGQWcme3ka5z6sc0xKBoNslFeGpD7fWy/aigwz9puRhZt9IEK4NOf/nTVDDfZ0SBGQ9kfwhqfeTMe6hyo/MiOBlFoj3c0KM8fnmVHI1Bq2WjEGmusrtGIInB6XgoBRvhQTKCMsiVi5jAVge1DREOHhqnJ8suNVA40SCx/8Q6FCCONjBTyZ50ss2dXOmVeYcVUfPZbGK8wMopSCCH8zDxguYPJvLAMknIhKyhGNp09Yo9yhhmeXllE+UPDE0k7qGHWJEKDzYTZUl5gQ5kEhyVL7quOlO6///5VYywD8g1YGvHsPYHgD7NQs0LDHAXDaBRWsMAvHyc6vsaCRqopIrP+tfpN43PLLbZMjaGkoPHqBYWhjUzz3Drh3gz37JOEwsqEMFM+mlAvSCaGQLNygW88UeXCAQcekFx33XWlR9orrHCcPbds9im/bcYgyma7R8nmFVaYYzbhWfPO4jbNr9lZmOmLzH/MhGKpL0Kn1yusePb973+/GhaWOaNcRFjWZWIzZ+w3ynnyD2WNDUjYO11FwAiMJV+PpY4z/+xKfWUKKwa4UIyUobBCAUWckEWLFjUodZiBZX2GDTaYlZqjbjdhQMvXvzynzUDdg8yq2El/uP8uufSSqsKKx35QG/+8u7StqGtN6IfkyXe/992qwor3lLPMcrLwF9Wb5hbLipuVK6xUsTLOlytmP+9KGw2FH4Ly3hRW/KYtQTyt/cdkAhMbDOM3yjZfJtGWaqV8M3d0ndoEvhvSsFdYEZsLQhv9NxUlFgqhkdRVH88/odwJyp7FFYUVb98W2pkrhjYx8pmgjFkS0p8XZlt9s9LWR4G1ZovZVh+tKHBQJB1VUViZeyivDnRbBGxVUY4R1gMqs5UI41zXt8DuXaEv9bMQbuRNA9OTkdCmP9v+39ohn24RGCHfDWGYX1Gy8Rt12xnhW9xU4c6zqSIdMdMqOxrEqKBfPsNMCTpsCB0tf7Q6ez7QEUR84e9Hg5iGahsQY45RgLGOBjGby0//xb2yJDsawSgIFS/C/hpU9BqNSHHovzYRQFGVVVbhFVO+2b/BzxDyQXj0P4+ms4yYTcVsje9+97vp3hQ0AOlQMXuoSMibfvlrmfsVsQTNGlls2mwzw3xYaDAxQuiF5b9W5hTNUqAMIY8iNJbpwLIMwYQlR2eddVb6nM1c8ZsOabZTyuglQmOPJQlZId+bu1llOQ1YlnOOVljOkd2nBzeIE0sKEFvWlf4YxX90po1d0WlDNFqJL+VZ0bKA0047rcFXvyl4kb0GS3owbgLZcsFG3ikXqJtiygXSFrOX2LMmWy6Yez6geeWC7yR5s+O5p0NqMyS8O+Q5ZhciKLHJeyw9MskumbLnzMq0csFmcNi7vKtnVzTjEMW1La2hnUBZQx62pVWHHnJoui8XinSbscZsbokINCOQzddmtlm+troIs1bHMZhAuicv5dVx5i5XZnNZvqIOYLaXDcx6c2O5t7oLu2wInxUGTJipyawfG+SxZWz33Xdf7mA0yhjqKwbGqdfYG8uWGpr75513nt2mV+pW6nsG6f6zNMwAqcycNkMc9GDC0v88ydtOgf7AI/96JK0z/aBhnn1b7si70ZQreW7xjHLHyiC+W17dzobwtPf4vswMgxWcmZmPoERnMkK2vCfNsOLG2mqpYf3XdQQuD+kmK6iafhaev66iCHp+UC7dl1FAnfXkE6mixdt9ecU8S/d+VaB8YeN3E/bIWpxx194xe2d2xb1LnhhK/hPScVYeDs/YjP3lQRk0O7RbTw1KnxWDmzZ0f/1T4UCprKXw+wtBkXVOKBdTlVoLxVmO9TE/eo3z6wLHwRwkhswMW78Sb3ve6deOUFq1goSSidkfFPworLzQcKMCoVGJORM/GsS0VS8244HpyMOh05d9b2bpLNIZRRgNYg+q7CiMmS3jmh2NMIUVbrPEhpERRlokItBOAuQHZsIwUsesAhofrYTG7yc/yZaD4USMMGuAtMwf+zGgsGFPqaIOp1dYYZ9NkUnvZYh3O08hhB+cYJMVa5zx/P3ve391SnzWnP2m/EFoFHM6ICcAIpRDTLlHuXTf/felnWMauDSQEWaC2eyzbMM2NRD+o0GPEjBPUBb62VJ5ZvKeMVs1T7xSiKV7YxEGEkxs5pb99leU/zTYacDCIKtQZEPXrJCeTPoqU7Ltt67tJTDecoEZEOMtF4rKkPHE3M+89O74tGbPvRKqqIxiLzryOx1cOv+txOczm73p7ZDOp1VOG+K5uYkSnlkgcMUv2ir80VayEzqZ8ZGnnPbu6763CYw2X+fVccy6Ic0vuW9JOjPY13FZuqaw4jmDFpyiXZbSys++9XWZD4M/vZfBbat/89oBZo8VGiitELY4yCrEfFvd7NiJfrZVgj2PuZKH4ZwnKM8ZsEHBQ/iL+iRwNckrV3g3EE5wM7FyxX5nr8wItYEivpvNrs2a8wPrppCzQSw/w8rbow0DJ9sL1L/TffcQuDdHGUTs/uyUSauG+m6kdVyL919z7LFfFcIsrZpqqmaHuz85d9k36/r619Vffi+t3UJ/B6WUyUDIh09WtkzBDWRmZbbhKq4NeldOGDF7fwgDf0hWWZs+bNN/fmbZkoKwFT1vU5BKcbZem1OKk+U7wkwsRiM5MtaEioYG5Cc+8YlkhRmNG/j50SAKQmY8MFJgFRSafWZ/7LDDO3M7fSxpMoWVjQYVdSotTOO9Zkcjsu7REKAyk4hAuwjQgWJZCXsOMBrpFVZMT18aNkvNE/ZdIi8ykuaFvMcyM0b6aDgVKYh9uuZUHdv/wLs1lntOyTPxo5v2jCvxyor3nwYXDbG8P7PnG2rsfXXqqafWNTqtA8vJP3QkTUHtO8F5DV9zv+g6FoUVbtGpzRO/RKPoW+XZ8898YzmbHry5Vh2VrBLL29X9xBIYT7nArGn2Y/SSLReKFJDZcsGWxnm3xntvS39i3GHmAEIHnXZBkTwRRoYRa28UmeO5zfTgPq+MwQ3r9GHGymTKLQbSLr300rqw0JlFWU8ZQ1nuZ3JhXyICRmCs+bqojkNJka3jzC9/9XmH/fHGWtd4N7lnmZuJnY5ov/Ouvq7ydV/WrM3K4rmv681cXhvC3o2ljmZgvUh8PyRvY3iz16pcIR555YrZz7v6uOeVVf499imrSGMmeQMB9q5o8MDe6zr1CTzglEg+Nv9wSpXBvpFVVf69bbzun61TGch5sMBNzD7i3K2pZ70rI/fM7vKCcsr+Vg9u2L03w/1KLqyLnF9Zc5Pxe1UXp6KWCrPUppo0+44dFRdGFNjcl0370PZnC8dsYPNGg2zGQ8xokJ3cgbv4VeZoUDas/KYxbBVI0WgEIzcajcijp2dlEWDGlM1YZD+1y392edrxIU0+FtaNkwc5RTNP2IOKjcexz0wj9pJiVNLcY/YSHSk2GvZCp5HTQ9/73vemmwuTD+bO/UqqUPbmxnJvM5qw6xtx3i02Bs+Kb6SyFIelD0XCCCUjsV5Q0PFHI5plTrNnz073oLFOLBu1Lly4sE7JZ51R70677m3fj6z7XimQ3Scna7bot2dunfw8s7YsEuWUFFR5hDrnWbZcWHDlgnTWIHuiMJOHWZZF5QIzkth4n3KAfU7yygWW/XPCr5e8coGyww438GYn6p5Z3XTCKKPIy0XpdnrYvwJp1hG2MKO8tZma7AmT7eRSvvhZh5xGaAJ7TlulbUP5yibTLNdcc4010zCiwEIpsPHGGze4a27o2rsEsvna6nv2RGuVr30dx6EApDGWhmfruKzyiIEMFFvs1Ub9SP3LAQO2Cfh4voZXinCCbatZhj5f2f5Pef7bjCHejbVezHO36BknNhaJr7ubDfzwzmZG5ZUr5r6VL75csXf+yjYJr33ta9MZXijVGKTMivXLTClJu8jP4Go2k6rVcsesX/o99Qg8Myh5vCLJYmCn2/E7b2memfNXNmRfsX8geV5fvcLJm3mOU9z4E/u8Ge690uz0sJzvAjcgtXqof/+WmfVvU0f8XMjBrKOT/NtmdxEMWiN5iquRjUkmOaCj9H7ATq3K2rORj2wDKmuO3xRERe6Y+Vbu+RESCi/vHqcO7bnHnlWljrnJFSUOm0DTiKSB5u1RIVMpMUPLOs6Ys9EgKk4K4nnz5qUjPVbAm/s0SK0CprG8++6726uWDcBW8bX30wampfz8jAv89fHAUzNvlQGVQ9aMN9fqu5l7rczhZhnfF3eQWH9jzeGmwgeFeonlx3RV44di2BpENP723mfvajqnU8Ufe0SZMBuJBiezmcijCDOumK7OsjBbGrbtttsm7AWHsAcGJ8DZZsY8sxmE3wv73dDposG2xhqrp/vX4Z6FD7NFUhRfP7sKxZEtGfDpnsa2CfEhX3mlFfHO7mGBecoGDmWgccw9s0XYV48lgTTqiCfCfjkoqHjP6UW2fI6NVJkBakuJKAOscezDR4eAJYrIF4/7Yrp0krIOId555QBhMjF+XoHE/mR+Twrjx0l+JmxAb26bQq0/NBAIo4XPN64pYzHvG9Iwz1uWCa+VVxqZtULHwvzx4bZnhMfCZ3x4Zt+KexMzZ+Gz59lrrDnsGb+sG/53rHtlmyszfL4O9mzzygWLu3X0mpULpBHyNnV1UbnAbCCWEJsiE/fzygW+Pxv72ymHFo7sNYazmcm2G8wt3x4g71CWkCdMWC5j5Yk9w006drQzEMoNS8fZPMR70ilu2rIm/ERh4AUzpvDjOTOrWFprG7iz1PeXv/xlOrOTMoc/8hF73WGP+FE+s5eMxVn5wxOulS9lcYnlTCjaXb7k5WvCl5evLf7N8nVeHceMPv4YWEWJ6us48o3P15woh/soU+0U0nds+450uZkpTsbKz+83y2CRDTaZe4SP/Sufufwzk/v/fn+6j5LVv4TZ6hfjYKnE7w/F7E/MFdVVZsdmj+K3lQH2zrd/aF+Yv1av0y5jtiQDhV5wa6211k4fMevd6nTrp5hfXClX1g4KdiSvXOE5/tImY5aTlSs8NyEchB33GKCgXUPdQFmW1ybCHOUfbSA4mRljjGLd3MMP40w5tVzlJLhs36bd+cPi6q/EA7Hw+XfZe4UvS6S+PF2RzckrqxlmBSX1HaHv6gV+G4Y2YJgunD5+IqTJmaGtvGroB4cElz5bKZQX/wz2/Pe4L7x7TTCz3uD0ZO0VZ6Z7RmW/2+bO79DpSGaGducAM6IqS29XDHlvZmifpF+7svXEKkH/MBDSo8l/Q/gGKu3tV4UB9hnB/sMhfdxOPFj5FNo1yGuDub8GP7Kyc4jbO0I4id3uoX5nL6kVsBPiO21aY9mA/Ww8eFYk8FsVdjAMslpoqzwW4rnUxX1WCNefwzPPD7MbOjMo55apfJusOcx6GW34suWfd4v7WPcwN1A0q8fWXsZMnSdARe5Y4Fq555cB0Lg19yggvcKKUY7LL788PT2QCo4Oz4UXXpR2cnHD7Jm/J554YnpSB/GgEmMGCBsMWyFPw48NYulY+c5WdjQIRRqzI0444YTU6VZcWsXXEsVTTz6V7vtjHXwcJ2zZeJh7VlGivMqawa6ZG2/4cMukjO9rbil8RqL+WjaXWPdIJyioSEsck25C488vV8M9Gle+8OF0PPIMDSMUKwgzC1DE+PSH8pjZERYm/LL0jx2mu1taRqnDCT8Ie87R2UXsffoj5z9z2/uLMcJ36KGHpjZoTBEv8o43t8MOO1ZdZIYmfrHxse0fNzsoXuzo5qrBcMOsM1uyzIgi9thjxk7do/No4bbwHXnkkdWN2FFO8/7vD/w9bXxS+fDH0mYfvh133LHaCWYfGxqYVl7C0fzwYfONXfu+fqkkDXTY2L4ZFj5OcTRB2Wazpmz5w/DTw+nsMAufX55Ag5aw0Fg+4vAj0jCzPxknDvnvjftz5sypxomOv8XBh9ueYd7Cx72JfSv7zdXMWfj8O38faw47vVL+WZoiziiejX9eueD50SFtVS5wGl92M2BfLtDBo87137+oXGBJHLMf/TIZwuzFh88/9/eWJvPaDZjz7QGU2ISPPGGnYpFX/Clh2MFfTiI0YYNq45jNQ5ghndKxtkNk2JTayh1zA7acjEw5i3DwDOFhE3Y6v7iBwg/x6Z4tEGxDeMsrMVxwJ9YcZnslf4yGSyfxy8vXhC8vXxNHk6J8nVfH+fjm1XF+8Ih8RL1CvrjsssvS+hIlL0sOrT717ll4iq4+/VE/MvCF0Cax9oO5x2xQlHUIbX7C8NDDD6VKNPIS7WuUxj4fke9MiUe4aRfhni+rLI+nDlf+sz2t8upoP0iNYgcmiP9W7Ck6d+7cimsjF/oryy03MiB16623VMsWm/FpfhG+a8PMd1amIHnlCs/ZtzdbrvDcBA7Ezfix7xftKPooHEphA3Nmnv4aM7BQPKFUY9N9xDaPR3lGG8dOhjfOzNQ1RX+2b+O/r/mTvVr4zL3se/tdtjncVfiMbu3qOT+IIiTs3Yq8LrQ5L88oYl8cBr93ROkShA3V76ycur0MiqLKCeV/D21K9sPy3/eGkMbfEvLrc8LztUL+uTrY9f4yrLsZyqeQVjkR8Npgho1AUpVZSIPIgyHvLa74fVMwy6bk2wZ3jglheBTlVhD7vmsEhckXK2XHKaENPj8o4si1jwa3nhmubw3xOjXUyzYLC7vP6utL5oQ8gSwI/vytks//GZ6H0fmQ3/Pb7z4eqeUm/xG+/tDvMlb3hjAsDrqQXwZ+H6/w2yQMHHCaoufHMrudnxXCVhlgYzbZQyH+iDeXPsj8N9rw5ZWP3slY9zA3ok72tjvsngrICjM2UGTGBg1WKhYrqFda6fkNoWb2BEsO6BwxSkJlM2/evHSDaUYWvJJos7DXVVY+/OEPpwoxfxw9o0G+ssnaGc9vFACMRiC24WPWPRRnNhqRfaffIjAaAlYosRzMls3RsTQhDXKCHkIDhfxEA8WUvTxndAzhyGKTd797l7qj2DG/5557ViuT7DI6s2fXhQsXVpfaMeqI0nk8QmcNBRRCQ4qOHMo3BK09I73M6soKyjc79IF8x+gs9k3YZ2+nHXdKf1IO2cwPG9nlBQ1CGnEmuIMCx4TZEYg/KZWOvG0eT/iOPvroKmcK/rL2faDwZ3mH7d1FY53OsLFhw2tTWBFGBhIQvgnlpY2MpA8z/zGQcNXCEeb4c/75F1TjgFGWh+21516pLRrpKDklk0/Ab+iLstEUks3KBfZ9RHHTqlx4z3veW3caZbZcyJuN54mUXS54t0dzj9LKZnMwawBltuUFrrQXbKNpyhA6jibZPGQzMVA4UU4hKK+80gpOdOisY0kZYLNA7ZRA8hjlirmHO+RrlN0mRZvG23tdu5dA2fm6WR2HQiivjiuiS/6xfTJRGrGMbTzC5uCmAKKtjvtWb5Nffd4yRa8NROMvdaBvf9M+8qf4ebPjCWeMXQbJd9ppp2r4qTf9iaAoxJsJ7bVm5Qptn7xyBTd9+9Bmc1Hv24b7mEE5Zfv+8htzHBhjvC+99BIep+K5MQPUb79CPIuWlpt9XbuDwK6hrnpX+LPFryv09SVHhLYlSh/koqAkjZWfBLMoo5Avhr7Iq0Pb1ISW+iGhTfuaihJm7n8fSxVW9j7vejyzjipyfFCyzQhhM5kZ6vavhBVdJhdXFF1hLlhyTGWG01rB/JHBT4sb14OCYspkvovbSGs6HFoVFEYvCeGu+WSmx3/9Q2hboyhDdgp9l12DP0aIUH0hhBX/p5qMqNU6ONR+PbRNHfbBZVkBjbassMzFZjzQAWOpgQmjEczmoAOL2Owle8/VRklQjvnRIAp6PxvB2xnvvY1GMKrDXkDZk5L23nvvqgJvvH7Jfm8TQHnEEjGUEKeddlrC/lVv2+pt6XKX9ddfP4VDA47GC/uzmOKYjhfKF4Q8xV415AnLI4wCnnnmmamSY+jxoVQJYnYZQYtRQh100EHJT37ykzRsKHBY2jIexQYNVzrhlBMsf2RmpY8XihOblp9GrPLfkUcemXbIsUcjiwYxsyXoSHrzJ598clWZxJI7lOU0wNdee+3k8ssuT0cZsWPccB6F0MKgoEPo2KJE57hu/GJGCoowTgwzdoTRNm9PLZXwH0sDaNjiF+Ezgc1+++1nP9MrAwakF4TlH/yxd06RUL7CnGUEKAXp7MMObt4v0goztCSTT4AOjuVvlhSh7OW7oTRhNpwvF8jLnDxl6dPsEYuicoHBJszllQsnnXRSSwDZcoFZGZQTEy3MpDr1lFPTuNPO2OLNWyRLH1uaDigZD/Irs0a9FOUh2iN0Rk/6ykmpmwzMvTco+YbC0duD0werjMmnH/nIR6pOkseYOU6eYlYGM8CYHYai3LeJLr744uoAX9WybnqGQF6+pu45/PDDG/K1rxcBVJSvR1vHFcGmHPnc546q7mc1Z7c56RYDfmZWkd2i58SLtgv5gvzJH/6YMgV7xN8GrinjWMHBCgzyjZ8p7vMR7fHsqYFFYSjr+YEHHpgcsP8BCTOcfZuDbU28QjzPP/owYylXcMu3D2kvMRuMWVbz589Pzjn3nHTVCfU4A3OwxS/PCoW9V1SxOmZOmEDA7D6+A4or7KFot/aALSHMi4uedQ+Bw4OyhD/2mFotKIPCNPw0cj8O7c5LQpqIFRbOfjbUuycHhRU9krNDv4TZWA+Hv1cG902YvfXTCHdvCXX22SEMKNY2CWn7l6EevTuEbdnQLlq9MsMKN48IM6r+Ugkzvy8Nbm8XZkxtEJb6bR/s8ndPeM/m7SY/C2Yuo50d3iE3hXuTCyv9qVeFFS8jKjh7M/7rCUERNyvkN/gcGPzm7/YQz5eHshGpfoP019T4r0Z1ksPrR4NQRNkor1fcoCwyrT+zPGjcffmEL1dD7islPxrE5pB+xsN4RoPo9DILqx3iC3kKdRRXJiyvYm8giQiUQSCrLOgPBS7CTAH2SDGhIUJHjE4YjRcUwaZkoLFh+2UwAvfrX//arKUKmuc+77nVDheNHjpctqQH90xMQWy/MTNv3jz7me4lZ7MZqg9HcUN46eD6mUMWLzqCzASjsY7QgTShwc50fJvKznOUMNZ45D0KsWzjkZMXabQhsGNKvFdYsTfEBz7wgfS9/YdC2ivWYWsdYGZWEEaOujaxcGbZZd/b7+wVZZX/jvaepYSMRts7e06j00aw7RlXC0f2ntlWnM7q9+eBnTVQ4Y4yJLtkzNyzWafeL+59ujGzWTP6PXYCpAsv9r2y5QJ1rZUL7DvXrFywGUG4Sz7IKxesk+q/bzZtUy6g+DJhOdF4ygVzvygd+bB4M3R2d5uzW9qhJyxwoD1i+RUlAfW1dYotvEV5iPe/+tWvUjetHYRb5Bdzk9MXKTOsXMEOCio6tVZ28a0Y8LLOI3mIwYTPf/7zGJf0MAEboDUERfna6kXSvuVrm92LHavvR1vH+bxk+c7CgtKIOhEhvdv2APZ+tFfKG7YWoC4zsb4B4WBmKHWPF2ZOo9w1gYPlI55RN7Ms0ovFo6iusvfDldkg3q4vT/y9maEcgAsCE2tz8JvntLe8mF92tXcx5Qoz43y5gt1s+9DP4mTJImUKdTgCW2MFi5tvvjnln40XB+14pR/2LB1y2vLtf7g9dS9rL32o/7qCwO6hLW6zo1KFVSVW3w4DmkcHBYtX2tRa4mESSUHsrwppcJfQDq+6GZSgr3TKom8GN/cIfjaeD57v4LFBIfWpyswpTLwwuMXpgQgKnoOCW9nZYOSCfYceT+Y5xZhXWLGU8LDgro8PiqMfVfocqePj/M/z8f4sDmHePpQlf3T9GlNYXfXEk8n7QnxMvBv2rBOvfUGhkxtWK4SsQdQs8Lbms5mZGPcWLFhQ17mjcGbUhMaeLUXCD0bsadCZ0MGy94SXk0joSDIKy4wHhMKUmUwUkr4DSUeWDZEJH4UqnUOE/SKsg81vpsba6Sa4td3229V1gjHjpVV82bQS5RkzXPbca8/q2vSzzz67bq+BotEIlgkwdTgrrfw187HmMF/W98WtWH9jzSl8EGiUGH50+FjKwsmYzCLye7ist9566VIV3GGGgJ2YQ/5CocysIPIcS+i8PdxiSS9X3GdpEXs0ZRU7MeGzWJWZ/lAEM6WdBhMNKE42ymskZcPHchtmFqEAZ88mlOkWp6LwMTuLcgNFO/kYZSC8vBLM4mhX2LIsk1FfOvL4syjsoZGVbPiy7/1vCx+DATbTjSWJzJLjHXv9weOWW26pblzr7ft70gvfnQMuWNJcJD58+MEsLZZnYIflpCwHM+4WviK3eO7dm0hz+NVr4WOAhxnO5F86k7YXEyysXGB2suUfniNF5QL8SP8otliyk1cuTMXvSzzYcJi9XVhGRJqmPCGNN2s3kbdRZLPM0C+9hKG5yZYGtF1QFKP49YNwmPNCm4YyDTtpmyKUG3fffXdaPtlSQjNfNmfc7bX8QZybfV/ex3LG7ETxI19bvUyaIg4WD8vXhJv63iuaSa+kxbz63uo4ygvKCdoJLEUtquNiucSaa8UPJRv1HmEnr6FIZkClSKiryc/EC+UzcaFezNopK3wWDnOPQQPCgNKKdhT1MrMp+T60H1BCoWCy72b2s1dzz8zllSuUKaSDovSHHep73KK/wV5WzLQy4YAN2oHwwgzlHn02BijNXzPrr3wT4oa/119/ffqX5evNF4XPm8nG17/z92Wbw22FzxMeufectwtp+OjKnlbrB0Uyc6nYH+pl4Y9F8Y+H9P47NyDb6Frr8pR1AmuE2UMvDX4NBsXVH0PZhsJmaUXh5N2cHn7cVNnT6tOhLPihUzaZOeZprR3cWyeEcUbYs/OW0OZnuV1tqN1Mjlwtvn3BX+w9J4SBGV9/C2HwpyGaOcsfzw8HGy0TVuj9O5j1pypmzdX7Vv8rJv0tG/LnmiFMLwhxYGkicSF8WYn1N9Yc7seEL9Y9zNXWhGRDPwm/GQ3yJ/TRGEObzywENPGmbDKFFR+ePV8oUM8686x0RIJI2UkljAYxTZgKl9EKGopeaJD7Y1v9aJC/xw6FMebpeNloEKMzYxUbEXkqHNvpBcUZI022VpxKy+TrX/96urcQFYl1+OydriIwWgKkIZQijEh6xRPu0PnyR1VbocI7GhgoufIEZQazIaxQzjMz2mfk+1ZL42wk0udb4ke5YSOC+Etjmr/Rho8GGX+jERr+1vg3fq38Jaw0lK+77rrReDVms5SdlJEWvlYOsUQAaRUP7w5+8CeZGgTorKGYzRMrF/LSS6tyYd68eXlOjvkZnXDbaDzrSF55YGbyygV7N5or7vg8jt08Llk36dgXmctzk0ZfM6HMoDzmbzT5spmbetd9BMjXtnIhm/4sX+fFmplWRfW9pX9zr4z0hyKY5a6Ir8/zwsYzygHiRtsjO6OMQWn2m4wNHwoXZidOxrLjvPih7LeTGXlv8cgz2+xZXrnSzDzvsOPTC30gL6SLa8PkAP5MYsLHN7FZ5WWkF/Nb16lD4K8hbfGHzKwsVRtP6JnttCgoYu6tuDUU7oskZnkZSw9R7PA3M0yQYWPzGGFG152RZnHvgbDs16aRbRT0HbaocSAoy5Anw7NWcn+FYzNzhH5RUFL9MbQVprq0JjKBMaTzRAVDI43KyqYM08lkv4bZs2enIyBULIwSMApphd42b98mHY3gt22gTCXGsiDscloWIxgUtIwu5I0Gff/73083Jy6KMkoqK5TN3yKzrZ4TJhPfKKWiYO8ORiPYeJF3LLsivJxWwrRdiQj0EgFGcdmscyxCR5kGrUQERKC7CHAapsqF7vqmio0IsAcVJ4SOVlhxkVVajdYNmRcBEeheAig8XuGUZPflzDaarNh/Jsxe90sm03C4FWVF4To4KKJuLXrZhc87SmkFXzqYjN5klUIoc9D0m7bflEf2TRgZZkQiTzgRK2aj1zy7Rc8YDaJyLZKikd680aA8NxiNQIlmko2vPddVBLqdAErmXXfdtWk0bUYiI5MmlBlSWBkNXUWguwgwqFVULuSVBxZ7lQtGQlcR6DwC3/jGN6rL0Hx9XhRSDhRhADu7D2OReT0fGwG2OvDLA8fmimyJwOQQYMneL8KsTC9/HMWsKG+vHfc7h725RrZHDzMqKyushlx/psjPZ1eWOha977bnYTP7kd3ssxGzRl/2ed5v1j4XuWPmY90r2xz+b7LJJummkhaWvOto/WX68lhHg9hLxkun81P4/NcauY9NL5gWv/Hxw3arpXn2PbKN3Gy5ZOYaQ1T/JNYctqbK9/VxYum1Z+Pf1ZOo/1W2uanEr55E/a+yucS61+v8isoF45ctD+yr+bQ/VfKvhT3vavHNe+eflW0Ot8XPEx65j+Usfo3syLOWr4vyr7fFqgw7JMTna28m9nuUbW483zcvLpMZPg6lsUkDnq2/n8zw+XAU3St8+WTK5uLdG3Azm0jTYQunOpmo+qO20c6I98eGGUqPBuVQvgakFsSJCp/fac/41Ybga+HJ3j2rw/UvZfPruJlW2Q/Sqb9Zpsexs0VSTXQZTWmzDQeL3NJzERABERgvAfYtsVOTOOFHIgIiIAIiIAIi0BkEDjvssIQTyu001c4IlUIhAmMncFVQKv8+bMvDDlYxSpix+9Tc5r/D6/eEcLBf1QNh0HbkvPDmdvS28wgMZJfhZYPY6j3mmW4fYw6zk2GO/a/K9pepyOytVSQ2ShLjb6fzU/iKvnJcehY/8TMCMeUBZss0Z+kPN1uNlJbpb2w8LHzGqNlV4WukI36NTOxJTHoRP6PVeBW/RiY8ieESa07pL59xL/Kzjc+LiYy8mYz0xyB9mf724vftRX4PhQ/NX5FMZPlnQ7WDlb2sYr7HRIYvy0jhyxIJM7sbH3XfE45VlYiACIiACIiACIiACIiACIiACMQTaDXgFe+STIqACIjA2Aj0hNJqbGhkSwREQAREQAREQAREQAREQAREQAREQAREYLII9ITSasMNN5wsvvJXBERABERABERABERABERABKYkgc3C6YESERABEZhMAj2htOL0QIkIiIAIiIAIiIAIiIAIiIAIiEA8AU4PlIiACIjAZBLoCaXVZAKW3yIgAiIgAiIgAiIgAiIgAiIgAiIgAiIgAqMn0BNKK04PlIiACIiACIiACIiACIiACIiACMQT4PRAiQiIgAhMJoGeUFrp9MDJTGLyWwREQAREQAREQAREQAREYCoS0OmBU/GrKcwi0F0EBgYHB3NjNH369NzneQ/7+/uTInfMfKx7ZZvDf4XPvkLtGstZ/GrM/J34eRq1+1guseZwWfm3xtfuxM9I1F9jucSaw3Wlv3rG/BK/Riaj4SJ+4mcEVL4YidpV+aPGwt/Fcok1h9tKf57wyL34NTLhSSyXWHO4qfQHhXoRv3oe9gsuPTHTatasWRZnXUVABERABERABERABERABERABCIIzJ49O8KUjIiACIhA+wgMDA0NNXW91XssDw8PJzHmMDsZ5jbeeOPk3HPPxfuWMhnh63R+Cl9xsolJL+InfkYgJr1gtkxzSn9Gv/Eaw1n8GrnZE/EzEvXXGC7YiDGn9FfP1v8SP0+jdh/DBdMx5pT+alyzd73E761vfWsSu69VDBelv2xqqv0WvxoLf1cmF9yNcU/ln/8C9feTwa8nZlrVY9YvERABERABERABERABERABERABERABERCBTifQE0ornR7Y6clQ4RMBERABERABERABERABEeg0ArGzrDot3AqPCIhA9xDoCaWVTg/sngSrmIiACIiACIiACIiACIiACEwMAZ0eODGc5YsIiEAxgYHiV1PnzQ9+8INk+eWXzw3w008/nTz66H+SO+74Q3LSSScl999/f525888/P5kxY0Zy1VVXJSeccELdO/ux6qqrJqeffnqyzDLLpI8uvfTSZO7cufZaVxEQAREQAREQAREQAREQAREQAREQAREQgZIJdIXSauWVV06mTZtWiGaFFVZI1lhj9WTzzTZPjv/S8cmFF15YNYtCimMUX/CCF1Sf+Rves4m7KawWLVqUKrC8Gd2LgAiIgAiIgAiIgAiIgAiIQLcR2GyzzZL58+d3W7QUHxEQgSlEoCuUVsb7kUceSa644gr7mfT19SVrrrlmst5666WKqb7+vuSgAw9Krr322mTJkiVVc0U3WYXVnXfemeyxxx7paYlFdvRcBERABERABERABERABERABLqBwNZbby2lVTd8SMVBBKYwga5SWi1evDg57rjjGj7HySefnDz44IPJVlttlaC4et/73pdrzlvMKqxuu+225EMf+lAyMNBVyHyUdS8CIiACIiACIiACIiACIiACIiACIiACHUNgYHBwMDcwLJmLlf7+/qTIHXMj1r3xmCsKxzXXXJNcdtllqdKK8LzsZS9rCC+zssxvFFbf+c53qksCb7755mTfffdNFVZmxuJVdI01h/2icHu3Y90r25zC579C7T6Ws/jVmPk78fM0avexXGLN4bLKlxpfuxM/I1F/jeUSaw7Xlf7qGfNL/BqZjIaL+ImfEVD5YiRq13bkD5YGTnQ/jxjp+9a+q9214/ua282usf7GmsMvfd9G4uLXyIQncOmJ0wNvuOGGZOnSpVUKzWZLZRVW2EVhJREBERABERABERABERABERCBXiKwcOHCXoqu4ioCItCBBAaGhoaaBqvVeywPDw8nMeYw205zReHg+aabbor3qdx9990N4eCUwRVXXLFuhtXVV1+dHHzwwWat7lpmPIrCXedh5UeZ/uJkjHsKX96XGHkmfvlsYrhgM8ac0l8+Y/EbHxfxEz8IqHwZXzoQP/EzAjH1OWbLNKf0Z/QbrzGcxa+Rmz0RPyNRf43hgo0Yc0p/9Wz9L/HzNEbuu2qDpuWXXz5Zd911q7HkRMENNtgg2WmnnZKVV1q5+vzss8+u3tsNJwz6JYE8Z8N2iQiIgAiIgAiIgAiIgAiIgAj0IoHNdHpgL352xVkEOopAVymt1llnnSRPIeWJX3LJJcldd93lH6X3a621VsMzZlldd911yf3339/wTg9EQAREQAREQAREQAREQAREoJsJ6PTAbv66ipsITA0CPbGnFZ/i4YceTo499tjkqKOOavplzjnnnOoMK2ZqnX766U3N66UIiIAIiIAIiIAIiIAIiIAIiIAIiIAIiED5BLpqptVtt92W7L333nWUWC+7/fbbJ+edd17d87wf8+bNS772ta+lO9Rz2iDLDVdZZZV0X6vjjjsuz4qeiYAIiIAIiIAIiIAIiIAIiEBXEmCVikQEREAEJpNAV820QkH1+OOP1/098cQTyfXXX9+S8e23356cccYZqTns7LffflU7O+ywQ7LeeutVf+tGBERABERABERABERABERABLqdwJVXXtntUVT8REAEOpxAVymtxsMaRZWXW2+9Nbnooouqj048cW7yjGc8o/pbNyIgAiIgAiIgAiIgAiIgAiIgAiIgAiIgAu0j0BNKqw033HBMBI8//vjkgQceSO0ut9yyydy5c8fkjiyJgAiIgAiIgAiIgAiIgAiIwFQjwOmBEhEQARGYTAI9obTaZJNNxsSY5Yb77LNP8vTw06n99ddfP9luu+3G5JYsiYAIiIAIiIAIiIAIiIAIiMBUIsDpgRIREAERmEwCAzNnzsz1v79/RJ+F4qaVzJgxIylyx+zGujcWc/19I2FdZpllCsNRFL6+vr40iNhdbbXVkrz4nnveucm73/3u1Nz+n9g/ueeee5IlS5ZY1HKvsfHA8mTzy42Ae6jwORiVW33fRiY8ieUSaw43lf6gUC/iV8/DfsVyiTWHu0p/Rrd2Fb8aC38XyyXWHG4r/XnCI/fi18iEJ7FcYs3hptIfFOqlV/kV9aOMTiyXWHO4q/RndGtX8aux8HexXGLN4bbSnyc8cj+Z/AYWL17cGKLwZHBwMH0+NDSU+94/pCArcsfMxbo3FnPDTw8n08K/xx57LDccv/jFL3KfE7annx6ZRYXde++9N8mL74knnphssMEGyTrrrJP09feF0wQPSXbY4Z0WtdxrbDywPNn8ciPgHip8DkblVt+3kQlPYrnEmsNNpT8o1Iv41fOwX7FcYs3hrtKf0a1dxa/Gwt/Fcok1h9tKf57wyL34NTLhSSyXWHO4qfQHhXrpRX6cHjjR/TyoK/3Vpz1+9WL6I955/XOem8RyiTWHu0p/Rrd2nUx+A7VgTN27N77xjU0D3+z0wI033ji1ax+hyKFddtklylyRfT0XAREQAREQAREQAREQAREQgalEQKcHTqWvpbCKQHcS6Ik9rbrz0ylWIiACIiACIiACIiACIiACIiACIiACItC9BHpCaTXW0wO797MrZiIgAiIgAiIgAiIgAiIgAiLQnIBOD2zOR29FQATaT6AnlFZjPT2w/fjlgwiIgAiIgAiIgAiIgAiIgAh0JgGdHtiZ30WhEoFeItATSqte+qCKqwiIgAiIgAiIgAiIgAiIgAiIgAiIgAh0A4GeUFpxeqBEBERABERABERABERABERABEQgngCnB0pEQAREYDIJ/D9VqV2cY4qgtQAAAABJRU5ErkJggg==;" vertex="1" parent="1"><mxGeometry x="-50" y="120" width="1197" height="596" as="geometry"/></mxCell></root></mxGraphModel></diagram></mxfile>